  0
SECTION
  2
BLOCKS
  0
ENDSEC
  0
SECTION
  2
ENTITIES
  0
LINE
  8
0
 10
858
 20
151.98
 11
798
 21
151.98
  0
LINE
  8
0
 10
798
 20
151.98
 11
798
 21
-151.98
  0
LINE
  8
0
 10
798
 20
-151.98
 11
858
 21
-151.98
  0
LINE
  8
0
 10
858
 20
-151.98
 11
858
 21
151.98
  0
LINE
  8
0
 10
780
 20
151.98
 11
0
 21
151.98
  0
LINE
  8
0
 10
0
 20
151.98
 11
0
 21
-151.98
  0
LINE
  8
0
 10
0
 20
-151.98
 11
780
 21
-151.98
  0
LINE
  8
0
 10
780
 20
-151.98
 11
780
 21
151.98
  0
LINE
  8
0
 10
50
 20
-90.08
 11
48.0335
 21
-89.8863
  0
LINE
  8
0
 10
48.0335
 20
-89.8863
 11
46.1425
 21
-89.3127
  0
LINE
  8
0
 10
46.1425
 20
-89.3127
 11
44.3998
 21
-88.3812
  0
LINE
  8
0
 10
44.3998
 20
-88.3812
 11
42.8724
 21
-87.1276
  0
LINE
  8
0
 10
42.8724
 20
-87.1276
 11
41.6188
 21
-85.6001
  0
LINE
  8
0
 10
41.6188
 20
-85.6001
 11
40.6873
 21
-83.8575
  0
LINE
  8
0
 10
40.6873
 20
-83.8575
 11
40.1137
 21
-81.9665
  0
LINE
  8
0
 10
40.1137
 20
-81.9665
 11
39.92
 21
-80
  0
LINE
  8
0
 10
39.92
 20
-80
 11
39.92
 21
80
  0
LINE
  8
0
 10
39.92
 20
80
 11
40.1137
 21
81.9665
  0
LINE
  8
0
 10
40.1137
 20
81.9665
 11
40.6873
 21
83.8575
  0
LINE
  8
0
 10
40.6873
 20
83.8575
 11
41.6188
 21
85.6001
  0
LINE
  8
0
 10
41.6188
 20
85.6001
 11
42.8724
 21
87.1276
  0
LINE
  8
0
 10
42.8724
 20
87.1276
 11
44.3998
 21
88.3812
  0
LINE
  8
0
 10
44.3998
 20
88.3812
 11
46.1425
 21
89.3127
  0
LINE
  8
0
 10
46.1425
 20
89.3127
 11
48.0335
 21
89.8863
  0
LINE
  8
0
 10
48.0335
 20
89.8863
 11
50
 21
90.08
  0
LINE
  8
0
 10
50
 20
90.08
 11
410
 21
90.08
  0
LINE
  8
0
 10
410
 20
90.08
 11
411.967
 21
89.8863
  0
LINE
  8
0
 10
411.967
 20
89.8863
 11
413.857
 21
89.3127
  0
LINE
  8
0
 10
413.857
 20
89.3127
 11
415.6
 21
88.3812
  0
LINE
  8
0
 10
415.6
 20
88.3812
 11
417.128
 21
87.1276
  0
LINE
  8
0
 10
417.128
 20
87.1276
 11
418.381
 21
85.6001
  0
LINE
  8
0
 10
418.381
 20
85.6001
 11
419.313
 21
83.8575
  0
LINE
  8
0
 10
419.313
 20
83.8575
 11
419.886
 21
81.9665
  0
LINE
  8
0
 10
419.886
 20
81.9665
 11
420.08
 21
80
  0
LINE
  8
0
 10
420.08
 20
80
 11
420.08
 21
-80
  0
LINE
  8
0
 10
420.08
 20
-80
 11
419.886
 21
-81.9665
  0
LINE
  8
0
 10
419.886
 20
-81.9665
 11
419.313
 21
-83.8575
  0
LINE
  8
0
 10
419.313
 20
-83.8575
 11
418.381
 21
-85.6001
  0
LINE
  8
0
 10
418.381
 20
-85.6001
 11
417.128
 21
-87.1276
  0
LINE
  8
0
 10
417.128
 20
-87.1276
 11
415.6
 21
-88.3812
  0
LINE
  8
0
 10
415.6
 20
-88.3812
 11
413.857
 21
-89.3127
  0
LINE
  8
0
 10
413.857
 20
-89.3127
 11
411.967
 21
-89.8863
  0
LINE
  8
0
 10
411.967
 20
-89.8863
 11
410
 21
-90.08
  0
LINE
  8
0
 10
410
 20
-90.08
 11
50
 21
-90.08
  0
ENDSEC
  0
SECTION
  2
OBJECTS
  0
DICTIONARY
  0
ENDSEC
  0
EOF
