  0
SECTION
  2
BLOCKS
  0
ENDSEC
  0
SECTION
  2
ENTITIES
  0
LINE
  8
0
 10
270
 20
221
 11
0.801239
 21
221
  0
LINE
  8
0
 10
0.801239
 20
221
 11
1.56134
 21
220.769
  0
LINE
  8
0
 10
1.56134
 20
220.769
 11
2.26672
 21
220.392
  0
LINE
  8
0
 10
2.26672
 20
220.392
 11
2.88499
 21
219.885
  0
LINE
  8
0
 10
2.88499
 20
219.885
 11
3.3924
 21
219.267
  0
LINE
  8
0
 10
3.3924
 20
219.267
 11
3.76942
 21
218.561
  0
LINE
  8
0
 10
3.76942
 20
218.561
 11
4.0016
 21
217.796
  0
LINE
  8
0
 10
4.0016
 20
217.796
 11
4.07999
 21
217
  0
LINE
  8
0
 10
4.07999
 20
217
 11
4.0016
 21
216.204
  0
LINE
  8
0
 10
4.0016
 20
216.204
 11
3.76942
 21
215.439
  0
LINE
  8
0
 10
3.76942
 20
215.439
 11
3.3924
 21
214.733
  0
LINE
  8
0
 10
3.3924
 20
214.733
 11
2.88499
 21
214.115
  0
LINE
  8
0
 10
2.88499
 20
214.115
 11
2.26672
 21
213.608
  0
LINE
  8
0
 10
2.26672
 20
213.608
 11
1.56134
 21
213.231
  0
LINE
  8
0
 10
1.56134
 20
213.231
 11
0.795959
 21
212.998
  0
LINE
  8
0
 10
0.795959
 20
212.998
 11
0
 21
212.92
  0
LINE
  8
0
 10
0
 20
212.92
 11
-0.795959
 21
212.998
  0
LINE
  8
0
 10
-0.795959
 20
212.998
 11
-1.56134
 21
213.231
  0
LINE
  8
0
 10
-1.56134
 20
213.231
 11
-2.26672
 21
213.608
  0
LINE
  8
0
 10
-2.26672
 20
213.608
 11
-2.88499
 21
214.115
  0
LINE
  8
0
 10
-2.88499
 20
214.115
 11
-3.3924
 21
214.733
  0
LINE
  8
0
 10
-3.3924
 20
214.733
 11
-3.76942
 21
215.439
  0
LINE
  8
0
 10
-3.76942
 20
215.439
 11
-4.0016
 21
216.204
  0
LINE
  8
0
 10
-4.0016
 20
216.204
 11
-4.07999
 21
217
  0
LINE
  8
0
 10
-4.07999
 20
217
 11
-4.0016
 21
217.796
  0
LINE
  8
0
 10
-4.0016
 20
217.796
 11
-3.76942
 21
218.561
  0
LINE
  8
0
 10
-3.76942
 20
218.561
 11
-3.3924
 21
219.267
  0
LINE
  8
0
 10
-3.3924
 20
219.267
 11
-2.88499
 21
219.885
  0
LINE
  8
0
 10
-2.88499
 20
219.885
 11
-2.26672
 21
220.392
  0
LINE
  8
0
 10
-2.26672
 20
220.392
 11
-1.56134
 21
220.769
  0
LINE
  8
0
 10
-1.56134
 20
220.769
 11
-0.801239
 21
221
  0
LINE
  8
0
 10
-0.801239
 20
221
 11
-270
 21
221
  0
LINE
  8
0
 10
-270
 20
221
 11
-270
 21
-229
  0
LINE
  8
0
 10
-270
 20
-229
 11
270
 21
-229
  0
LINE
  8
0
 10
270
 20
-229
 11
270
 21
221
  0
LINE
  8
0
 10
160.594
 20
162.96
 11
160.204
 21
163.078
  0
LINE
  8
0
 10
160.204
 20
163.078
 11
159.844
 21
163.271
  0
LINE
  8
0
 10
159.844
 20
163.271
 11
159.529
 21
163.529
  0
LINE
  8
0
 10
159.529
 20
163.529
 11
159.271
 21
163.844
  0
LINE
  8
0
 10
159.271
 20
163.844
 11
159.078
 21
164.204
  0
LINE
  8
0
 10
159.078
 20
164.204
 11
158.96
 21
164.594
  0
LINE
  8
0
 10
158.96
 20
164.594
 11
158.92
 21
165
  0
LINE
  8
0
 10
158.92
 20
165
 11
158.96
 21
165.406
  0
LINE
  8
0
 10
158.96
 20
165.406
 11
159.078
 21
165.796
  0
LINE
  8
0
 10
159.078
 20
165.796
 11
159.271
 21
166.156
  0
LINE
  8
0
 10
159.271
 20
166.156
 11
159.529
 21
166.471
  0
LINE
  8
0
 10
159.529
 20
166.471
 11
159.844
 21
166.729
  0
LINE
  8
0
 10
159.844
 20
166.729
 11
160.204
 21
166.922
  0
LINE
  8
0
 10
160.204
 20
166.922
 11
160.594
 21
167.04
  0
LINE
  8
0
 10
160.594
 20
167.04
 11
161
 21
167.08
  0
LINE
  8
0
 10
161
 20
167.08
 11
161.406
 21
167.04
  0
LINE
  8
0
 10
161.406
 20
167.04
 11
161.796
 21
166.922
  0
LINE
  8
0
 10
161.796
 20
166.922
 11
162.156
 21
166.729
  0
LINE
  8
0
 10
162.156
 20
166.729
 11
162.471
 21
166.471
  0
LINE
  8
0
 10
162.471
 20
166.471
 11
162.729
 21
166.156
  0
LINE
  8
0
 10
162.729
 20
166.156
 11
162.922
 21
165.796
  0
LINE
  8
0
 10
162.922
 20
165.796
 11
163.04
 21
165.406
  0
LINE
  8
0
 10
163.04
 20
165.406
 11
163.08
 21
165
  0
LINE
  8
0
 10
163.08
 20
165
 11
163.04
 21
164.594
  0
LINE
  8
0
 10
163.04
 20
164.594
 11
162.922
 21
164.204
  0
LINE
  8
0
 10
162.922
 20
164.204
 11
162.729
 21
163.844
  0
LINE
  8
0
 10
162.729
 20
163.844
 11
162.471
 21
163.529
  0
LINE
  8
0
 10
162.471
 20
163.529
 11
162.156
 21
163.271
  0
LINE
  8
0
 10
162.156
 20
163.271
 11
161.796
 21
163.078
  0
LINE
  8
0
 10
161.796
 20
163.078
 11
161.406
 21
162.96
  0
LINE
  8
0
 10
161.406
 20
162.96
 11
161
 21
162.92
  0
LINE
  8
0
 10
161
 20
162.92
 11
160.594
 21
162.96
  0
LINE
  8
0
 10
-161.406
 20
162.96
 11
-161.796
 21
163.078
  0
LINE
  8
0
 10
-161.796
 20
163.078
 11
-162.156
 21
163.271
  0
LINE
  8
0
 10
-162.156
 20
163.271
 11
-162.471
 21
163.529
  0
LINE
  8
0
 10
-162.471
 20
163.529
 11
-162.729
 21
163.844
  0
LINE
  8
0
 10
-162.729
 20
163.844
 11
-162.922
 21
164.204
  0
LINE
  8
0
 10
-162.922
 20
164.204
 11
-163.04
 21
164.594
  0
LINE
  8
0
 10
-163.04
 20
164.594
 11
-163.08
 21
165
  0
LINE
  8
0
 10
-163.08
 20
165
 11
-163.04
 21
165.406
  0
LINE
  8
0
 10
-163.04
 20
165.406
 11
-162.922
 21
165.796
  0
LINE
  8
0
 10
-162.922
 20
165.796
 11
-162.729
 21
166.156
  0
LINE
  8
0
 10
-162.729
 20
166.156
 11
-162.471
 21
166.471
  0
LINE
  8
0
 10
-162.471
 20
166.471
 11
-162.156
 21
166.729
  0
LINE
  8
0
 10
-162.156
 20
166.729
 11
-161.796
 21
166.922
  0
LINE
  8
0
 10
-161.796
 20
166.922
 11
-161.406
 21
167.04
  0
LINE
  8
0
 10
-161.406
 20
167.04
 11
-161
 21
167.08
  0
LINE
  8
0
 10
-161
 20
167.08
 11
-160.594
 21
167.04
  0
LINE
  8
0
 10
-160.594
 20
167.04
 11
-160.204
 21
166.922
  0
LINE
  8
0
 10
-160.204
 20
166.922
 11
-159.844
 21
166.729
  0
LINE
  8
0
 10
-159.844
 20
166.729
 11
-159.529
 21
166.471
  0
LINE
  8
0
 10
-159.529
 20
166.471
 11
-159.271
 21
166.156
  0
LINE
  8
0
 10
-159.271
 20
166.156
 11
-159.078
 21
165.796
  0
LINE
  8
0
 10
-159.078
 20
165.796
 11
-158.96
 21
165.406
  0
LINE
  8
0
 10
-158.96
 20
165.406
 11
-158.92
 21
165
  0
LINE
  8
0
 10
-158.92
 20
165
 11
-158.96
 21
164.594
  0
LINE
  8
0
 10
-158.96
 20
164.594
 11
-159.078
 21
164.204
  0
LINE
  8
0
 10
-159.078
 20
164.204
 11
-159.271
 21
163.844
  0
LINE
  8
0
 10
-159.271
 20
163.844
 11
-159.529
 21
163.529
  0
LINE
  8
0
 10
-159.529
 20
163.529
 11
-159.844
 21
163.271
  0
LINE
  8
0
 10
-159.844
 20
163.271
 11
-160.204
 21
163.078
  0
LINE
  8
0
 10
-160.204
 20
163.078
 11
-160.594
 21
162.96
  0
LINE
  8
0
 10
-160.594
 20
162.96
 11
-161
 21
162.92
  0
LINE
  8
0
 10
-161
 20
162.92
 11
-161.406
 21
162.96
  0
LINE
  8
0
 10
160.594
 20
52.96
 11
160.204
 21
53.0783
  0
LINE
  8
0
 10
160.204
 20
53.0783
 11
159.844
 21
53.2705
  0
LINE
  8
0
 10
159.844
 20
53.2705
 11
159.529
 21
53.5292
  0
LINE
  8
0
 10
159.529
 20
53.5292
 11
159.271
 21
53.8444
  0
LINE
  8
0
 10
159.271
 20
53.8444
 11
159.078
 21
54.204
  0
LINE
  8
0
 10
159.078
 20
54.204
 11
158.96
 21
54.5942
  0
LINE
  8
0
 10
158.96
 20
54.5942
 11
158.92
 21
55
  0
LINE
  8
0
 10
158.92
 20
55
 11
158.96
 21
55.4058
  0
LINE
  8
0
 10
158.96
 20
55.4058
 11
159.078
 21
55.796
  0
LINE
  8
0
 10
159.078
 20
55.796
 11
159.271
 21
56.1556
  0
LINE
  8
0
 10
159.271
 20
56.1556
 11
159.529
 21
56.4708
  0
LINE
  8
0
 10
159.529
 20
56.4708
 11
159.844
 21
56.7294
  0
LINE
  8
0
 10
159.844
 20
56.7294
 11
160.204
 21
56.9217
  0
LINE
  8
0
 10
160.204
 20
56.9217
 11
160.594
 21
57.04
  0
LINE
  8
0
 10
160.594
 20
57.04
 11
161
 21
57.08
  0
LINE
  8
0
 10
161
 20
57.08
 11
161.406
 21
57.04
  0
LINE
  8
0
 10
161.406
 20
57.04
 11
161.796
 21
56.9217
  0
LINE
  8
0
 10
161.796
 20
56.9217
 11
162.156
 21
56.7294
  0
LINE
  8
0
 10
162.156
 20
56.7294
 11
162.471
 21
56.4708
  0
LINE
  8
0
 10
162.471
 20
56.4708
 11
162.729
 21
56.1556
  0
LINE
  8
0
 10
162.729
 20
56.1556
 11
162.922
 21
55.796
  0
LINE
  8
0
 10
162.922
 20
55.796
 11
163.04
 21
55.4058
  0
LINE
  8
0
 10
163.04
 20
55.4058
 11
163.08
 21
55
  0
LINE
  8
0
 10
163.08
 20
55
 11
163.04
 21
54.5942
  0
LINE
  8
0
 10
163.04
 20
54.5942
 11
162.922
 21
54.204
  0
LINE
  8
0
 10
162.922
 20
54.204
 11
162.729
 21
53.8444
  0
LINE
  8
0
 10
162.729
 20
53.8444
 11
162.471
 21
53.5292
  0
LINE
  8
0
 10
162.471
 20
53.5292
 11
162.156
 21
53.2705
  0
LINE
  8
0
 10
162.156
 20
53.2705
 11
161.796
 21
53.0783
  0
LINE
  8
0
 10
161.796
 20
53.0783
 11
161.406
 21
52.96
  0
LINE
  8
0
 10
161.406
 20
52.96
 11
161
 21
52.92
  0
LINE
  8
0
 10
161
 20
52.92
 11
160.594
 21
52.96
  0
LINE
  8
0
 10
-161.406
 20
52.96
 11
-161.796
 21
53.0783
  0
LINE
  8
0
 10
-161.796
 20
53.0783
 11
-162.156
 21
53.2705
  0
LINE
  8
0
 10
-162.156
 20
53.2705
 11
-162.471
 21
53.5292
  0
LINE
  8
0
 10
-162.471
 20
53.5292
 11
-162.729
 21
53.8444
  0
LINE
  8
0
 10
-162.729
 20
53.8444
 11
-162.922
 21
54.204
  0
LINE
  8
0
 10
-162.922
 20
54.204
 11
-163.04
 21
54.5942
  0
LINE
  8
0
 10
-163.04
 20
54.5942
 11
-163.08
 21
55
  0
LINE
  8
0
 10
-163.08
 20
55
 11
-163.04
 21
55.4058
  0
LINE
  8
0
 10
-163.04
 20
55.4058
 11
-162.922
 21
55.796
  0
LINE
  8
0
 10
-162.922
 20
55.796
 11
-162.729
 21
56.1556
  0
LINE
  8
0
 10
-162.729
 20
56.1556
 11
-162.471
 21
56.4708
  0
LINE
  8
0
 10
-162.471
 20
56.4708
 11
-162.156
 21
56.7294
  0
LINE
  8
0
 10
-162.156
 20
56.7294
 11
-161.796
 21
56.9217
  0
LINE
  8
0
 10
-161.796
 20
56.9217
 11
-161.406
 21
57.04
  0
LINE
  8
0
 10
-161.406
 20
57.04
 11
-161
 21
57.08
  0
LINE
  8
0
 10
-161
 20
57.08
 11
-160.594
 21
57.04
  0
LINE
  8
0
 10
-160.594
 20
57.04
 11
-160.204
 21
56.9217
  0
LINE
  8
0
 10
-160.204
 20
56.9217
 11
-159.844
 21
56.7294
  0
LINE
  8
0
 10
-159.844
 20
56.7294
 11
-159.529
 21
56.4708
  0
LINE
  8
0
 10
-159.529
 20
56.4708
 11
-159.271
 21
56.1556
  0
LINE
  8
0
 10
-159.271
 20
56.1556
 11
-159.078
 21
55.796
  0
LINE
  8
0
 10
-159.078
 20
55.796
 11
-158.96
 21
55.4058
  0
LINE
  8
0
 10
-158.96
 20
55.4058
 11
-158.92
 21
55
  0
LINE
  8
0
 10
-158.92
 20
55
 11
-158.96
 21
54.5942
  0
LINE
  8
0
 10
-158.96
 20
54.5942
 11
-159.078
 21
54.204
  0
LINE
  8
0
 10
-159.078
 20
54.204
 11
-159.271
 21
53.8444
  0
LINE
  8
0
 10
-159.271
 20
53.8444
 11
-159.529
 21
53.5292
  0
LINE
  8
0
 10
-159.529
 20
53.5292
 11
-159.844
 21
53.2705
  0
LINE
  8
0
 10
-159.844
 20
53.2705
 11
-160.204
 21
53.0783
  0
LINE
  8
0
 10
-160.204
 20
53.0783
 11
-160.594
 21
52.96
  0
LINE
  8
0
 10
-160.594
 20
52.96
 11
-161
 21
52.92
  0
LINE
  8
0
 10
-161
 20
52.92
 11
-161.406
 21
52.96
  0
LINE
  8
0
 10
-0.308228
 20
-1.54964
 11
-0.60463
 21
-1.45972
  0
LINE
  8
0
 10
-0.60463
 20
-1.45972
 11
-0.877792
 21
-1.31372
  0
LINE
  8
0
 10
-0.877792
 20
-1.31372
 11
-1.11722
 21
-1.11722
  0
LINE
  8
0
 10
-1.11722
 20
-1.11722
 11
-1.31372
 21
-0.877792
  0
LINE
  8
0
 10
-1.31372
 20
-0.877792
 11
-1.45972
 21
-0.60463
  0
LINE
  8
0
 10
-1.45972
 20
-0.60463
 11
-1.54964
 21
-0.308228
  0
LINE
  8
0
 10
-1.54964
 20
-0.308228
 11
-1.57999
 21
0
  0
LINE
  8
0
 10
-1.57999
 20
0
 11
-1.54964
 21
0.308228
  0
LINE
  8
0
 10
-1.54964
 20
0.308228
 11
-1.45972
 21
0.60463
  0
LINE
  8
0
 10
-1.45972
 20
0.60463
 11
-1.31372
 21
0.877792
  0
LINE
  8
0
 10
-1.31372
 20
0.877792
 11
-1.11722
 21
1.11722
  0
LINE
  8
0
 10
-1.11722
 20
1.11722
 11
-0.877792
 21
1.31372
  0
LINE
  8
0
 10
-0.877792
 20
1.31372
 11
-0.60463
 21
1.45972
  0
LINE
  8
0
 10
-0.60463
 20
1.45972
 11
-0.308228
 21
1.54964
  0
LINE
  8
0
 10
-0.308228
 20
1.54964
 11
0
 21
1.57999
  0
LINE
  8
0
 10
0
 20
1.57999
 11
0.308228
 21
1.54964
  0
LINE
  8
0
 10
0.308228
 20
1.54964
 11
0.60463
 21
1.45972
  0
LINE
  8
0
 10
0.60463
 20
1.45972
 11
0.877792
 21
1.31372
  0
LINE
  8
0
 10
0.877792
 20
1.31372
 11
1.11722
 21
1.11722
  0
LINE
  8
0
 10
1.11722
 20
1.11722
 11
1.31372
 21
0.877792
  0
LINE
  8
0
 10
1.31372
 20
0.877792
 11
1.45972
 21
0.60463
  0
LINE
  8
0
 10
1.45972
 20
0.60463
 11
1.54964
 21
0.308228
  0
LINE
  8
0
 10
1.54964
 20
0.308228
 11
1.57999
 21
0
  0
LINE
  8
0
 10
1.57999
 20
0
 11
1.54964
 21
-0.308228
  0
LINE
  8
0
 10
1.54964
 20
-0.308228
 11
1.45972
 21
-0.60463
  0
LINE
  8
0
 10
1.45972
 20
-0.60463
 11
1.31372
 21
-0.877792
  0
LINE
  8
0
 10
1.31372
 20
-0.877792
 11
1.11722
 21
-1.11722
  0
LINE
  8
0
 10
1.11722
 20
-1.11722
 11
0.877792
 21
-1.31372
  0
LINE
  8
0
 10
0.877792
 20
-1.31372
 11
0.60463
 21
-1.45972
  0
LINE
  8
0
 10
0.60463
 20
-1.45972
 11
0.308228
 21
-1.54964
  0
LINE
  8
0
 10
0.308228
 20
-1.54964
 11
0
 21
-1.57999
  0
LINE
  8
0
 10
0
 20
-1.57999
 11
-0.308228
 21
-1.54964
  0
LINE
  8
0
 10
-185.406
 20
-20.04
 11
-185.796
 21
-19.9217
  0
LINE
  8
0
 10
-185.796
 20
-19.9217
 11
-186.156
 21
-19.7294
  0
LINE
  8
0
 10
-186.156
 20
-19.7294
 11
-186.471
 21
-19.4708
  0
LINE
  8
0
 10
-186.471
 20
-19.4708
 11
-186.729
 21
-19.1556
  0
LINE
  8
0
 10
-186.729
 20
-19.1556
 11
-186.922
 21
-18.796
  0
LINE
  8
0
 10
-186.922
 20
-18.796
 11
-187.04
 21
-18.4058
  0
LINE
  8
0
 10
-187.04
 20
-18.4058
 11
-187.08
 21
-18
  0
LINE
  8
0
 10
-187.08
 20
-18
 11
-187.04
 21
-17.5942
  0
LINE
  8
0
 10
-187.04
 20
-17.5942
 11
-186.922
 21
-17.204
  0
LINE
  8
0
 10
-186.922
 20
-17.204
 11
-186.729
 21
-16.8444
  0
LINE
  8
0
 10
-186.729
 20
-16.8444
 11
-186.471
 21
-16.5292
  0
LINE
  8
0
 10
-186.471
 20
-16.5292
 11
-186.156
 21
-16.2705
  0
LINE
  8
0
 10
-186.156
 20
-16.2705
 11
-185.796
 21
-16.0783
  0
LINE
  8
0
 10
-185.796
 20
-16.0783
 11
-185.406
 21
-15.96
  0
LINE
  8
0
 10
-185.406
 20
-15.96
 11
-185
 21
-15.92
  0
LINE
  8
0
 10
-185
 20
-15.92
 11
-184.594
 21
-15.96
  0
LINE
  8
0
 10
-184.594
 20
-15.96
 11
-184.204
 21
-16.0783
  0
LINE
  8
0
 10
-184.204
 20
-16.0783
 11
-183.844
 21
-16.2705
  0
LINE
  8
0
 10
-183.844
 20
-16.2705
 11
-183.529
 21
-16.5292
  0
LINE
  8
0
 10
-183.529
 20
-16.5292
 11
-183.271
 21
-16.8444
  0
LINE
  8
0
 10
-183.271
 20
-16.8444
 11
-183.078
 21
-17.204
  0
LINE
  8
0
 10
-183.078
 20
-17.204
 11
-182.96
 21
-17.5942
  0
LINE
  8
0
 10
-182.96
 20
-17.5942
 11
-182.92
 21
-18
  0
LINE
  8
0
 10
-182.92
 20
-18
 11
-182.96
 21
-18.4058
  0
LINE
  8
0
 10
-182.96
 20
-18.4058
 11
-183.078
 21
-18.796
  0
LINE
  8
0
 10
-183.078
 20
-18.796
 11
-183.271
 21
-19.1556
  0
LINE
  8
0
 10
-183.271
 20
-19.1556
 11
-183.529
 21
-19.4708
  0
LINE
  8
0
 10
-183.529
 20
-19.4708
 11
-183.844
 21
-19.7294
  0
LINE
  8
0
 10
-183.844
 20
-19.7294
 11
-184.204
 21
-19.9217
  0
LINE
  8
0
 10
-184.204
 20
-19.9217
 11
-184.594
 21
-20.04
  0
LINE
  8
0
 10
-184.594
 20
-20.04
 11
-185
 21
-20.08
  0
LINE
  8
0
 10
-185
 20
-20.08
 11
-185.406
 21
-20.04
  0
LINE
  8
0
 10
-235.406
 20
-20.04
 11
-235.796
 21
-19.9217
  0
LINE
  8
0
 10
-235.796
 20
-19.9217
 11
-236.156
 21
-19.7294
  0
LINE
  8
0
 10
-236.156
 20
-19.7294
 11
-236.471
 21
-19.4708
  0
LINE
  8
0
 10
-236.471
 20
-19.4708
 11
-236.729
 21
-19.1556
  0
LINE
  8
0
 10
-236.729
 20
-19.1556
 11
-236.922
 21
-18.796
  0
LINE
  8
0
 10
-236.922
 20
-18.796
 11
-237.04
 21
-18.4058
  0
LINE
  8
0
 10
-237.04
 20
-18.4058
 11
-237.08
 21
-18
  0
LINE
  8
0
 10
-237.08
 20
-18
 11
-237.04
 21
-17.5942
  0
LINE
  8
0
 10
-237.04
 20
-17.5942
 11
-236.922
 21
-17.204
  0
LINE
  8
0
 10
-236.922
 20
-17.204
 11
-236.729
 21
-16.8444
  0
LINE
  8
0
 10
-236.729
 20
-16.8444
 11
-236.471
 21
-16.5292
  0
LINE
  8
0
 10
-236.471
 20
-16.5292
 11
-236.156
 21
-16.2705
  0
LINE
  8
0
 10
-236.156
 20
-16.2705
 11
-235.796
 21
-16.0783
  0
LINE
  8
0
 10
-235.796
 20
-16.0783
 11
-235.406
 21
-15.96
  0
LINE
  8
0
 10
-235.406
 20
-15.96
 11
-235
 21
-15.92
  0
LINE
  8
0
 10
-235
 20
-15.92
 11
-234.594
 21
-15.96
  0
LINE
  8
0
 10
-234.594
 20
-15.96
 11
-234.204
 21
-16.0783
  0
LINE
  8
0
 10
-234.204
 20
-16.0783
 11
-233.844
 21
-16.2705
  0
LINE
  8
0
 10
-233.844
 20
-16.2705
 11
-233.529
 21
-16.5292
  0
LINE
  8
0
 10
-233.529
 20
-16.5292
 11
-233.271
 21
-16.8444
  0
LINE
  8
0
 10
-233.271
 20
-16.8444
 11
-233.078
 21
-17.204
  0
LINE
  8
0
 10
-233.078
 20
-17.204
 11
-232.96
 21
-17.5942
  0
LINE
  8
0
 10
-232.96
 20
-17.5942
 11
-232.92
 21
-18
  0
LINE
  8
0
 10
-232.92
 20
-18
 11
-232.96
 21
-18.4058
  0
LINE
  8
0
 10
-232.96
 20
-18.4058
 11
-233.078
 21
-18.796
  0
LINE
  8
0
 10
-233.078
 20
-18.796
 11
-233.271
 21
-19.1556
  0
LINE
  8
0
 10
-233.271
 20
-19.1556
 11
-233.529
 21
-19.4708
  0
LINE
  8
0
 10
-233.529
 20
-19.4708
 11
-233.844
 21
-19.7294
  0
LINE
  8
0
 10
-233.844
 20
-19.7294
 11
-234.204
 21
-19.9217
  0
LINE
  8
0
 10
-234.204
 20
-19.9217
 11
-234.594
 21
-20.04
  0
LINE
  8
0
 10
-234.594
 20
-20.04
 11
-235
 21
-20.08
  0
LINE
  8
0
 10
-235
 20
-20.08
 11
-235.406
 21
-20.04
  0
LINE
  8
0
 10
184.594
 20
-20.04
 11
184.204
 21
-19.9217
  0
LINE
  8
0
 10
184.204
 20
-19.9217
 11
183.844
 21
-19.7294
  0
LINE
  8
0
 10
183.844
 20
-19.7294
 11
183.529
 21
-19.4708
  0
LINE
  8
0
 10
183.529
 20
-19.4708
 11
183.271
 21
-19.1556
  0
LINE
  8
0
 10
183.271
 20
-19.1556
 11
183.078
 21
-18.796
  0
LINE
  8
0
 10
183.078
 20
-18.796
 11
182.96
 21
-18.4058
  0
LINE
  8
0
 10
182.96
 20
-18.4058
 11
182.92
 21
-18
  0
LINE
  8
0
 10
182.92
 20
-18
 11
182.96
 21
-17.5942
  0
LINE
  8
0
 10
182.96
 20
-17.5942
 11
183.078
 21
-17.204
  0
LINE
  8
0
 10
183.078
 20
-17.204
 11
183.271
 21
-16.8444
  0
LINE
  8
0
 10
183.271
 20
-16.8444
 11
183.529
 21
-16.5292
  0
LINE
  8
0
 10
183.529
 20
-16.5292
 11
183.844
 21
-16.2705
  0
LINE
  8
0
 10
183.844
 20
-16.2705
 11
184.204
 21
-16.0783
  0
LINE
  8
0
 10
184.204
 20
-16.0783
 11
184.594
 21
-15.96
  0
LINE
  8
0
 10
184.594
 20
-15.96
 11
185
 21
-15.92
  0
LINE
  8
0
 10
185
 20
-15.92
 11
185.406
 21
-15.96
  0
LINE
  8
0
 10
185.406
 20
-15.96
 11
185.796
 21
-16.0783
  0
LINE
  8
0
 10
185.796
 20
-16.0783
 11
186.156
 21
-16.2705
  0
LINE
  8
0
 10
186.156
 20
-16.2705
 11
186.471
 21
-16.5292
  0
LINE
  8
0
 10
186.471
 20
-16.5292
 11
186.729
 21
-16.8444
  0
LINE
  8
0
 10
186.729
 20
-16.8444
 11
186.922
 21
-17.204
  0
LINE
  8
0
 10
186.922
 20
-17.204
 11
187.04
 21
-17.5942
  0
LINE
  8
0
 10
187.04
 20
-17.5942
 11
187.08
 21
-18
  0
LINE
  8
0
 10
187.08
 20
-18
 11
187.04
 21
-18.4058
  0
LINE
  8
0
 10
187.04
 20
-18.4058
 11
186.922
 21
-18.796
  0
LINE
  8
0
 10
186.922
 20
-18.796
 11
186.729
 21
-19.1556
  0
LINE
  8
0
 10
186.729
 20
-19.1556
 11
186.471
 21
-19.4708
  0
LINE
  8
0
 10
186.471
 20
-19.4708
 11
186.156
 21
-19.7294
  0
LINE
  8
0
 10
186.156
 20
-19.7294
 11
185.796
 21
-19.9217
  0
LINE
  8
0
 10
185.796
 20
-19.9217
 11
185.406
 21
-20.04
  0
LINE
  8
0
 10
185.406
 20
-20.04
 11
185
 21
-20.08
  0
LINE
  8
0
 10
185
 20
-20.08
 11
184.594
 21
-20.04
  0
LINE
  8
0
 10
234.594
 20
-20.04
 11
234.204
 21
-19.9217
  0
LINE
  8
0
 10
234.204
 20
-19.9217
 11
233.844
 21
-19.7294
  0
LINE
  8
0
 10
233.844
 20
-19.7294
 11
233.529
 21
-19.4708
  0
LINE
  8
0
 10
233.529
 20
-19.4708
 11
233.271
 21
-19.1556
  0
LINE
  8
0
 10
233.271
 20
-19.1556
 11
233.078
 21
-18.796
  0
LINE
  8
0
 10
233.078
 20
-18.796
 11
232.96
 21
-18.4058
  0
LINE
  8
0
 10
232.96
 20
-18.4058
 11
232.92
 21
-18
  0
LINE
  8
0
 10
232.92
 20
-18
 11
232.96
 21
-17.5942
  0
LINE
  8
0
 10
232.96
 20
-17.5942
 11
233.078
 21
-17.204
  0
LINE
  8
0
 10
233.078
 20
-17.204
 11
233.271
 21
-16.8444
  0
LINE
  8
0
 10
233.271
 20
-16.8444
 11
233.529
 21
-16.5292
  0
LINE
  8
0
 10
233.529
 20
-16.5292
 11
233.844
 21
-16.2705
  0
LINE
  8
0
 10
233.844
 20
-16.2705
 11
234.204
 21
-16.0783
  0
LINE
  8
0
 10
234.204
 20
-16.0783
 11
234.594
 21
-15.96
  0
LINE
  8
0
 10
234.594
 20
-15.96
 11
235
 21
-15.92
  0
LINE
  8
0
 10
235
 20
-15.92
 11
235.406
 21
-15.96
  0
LINE
  8
0
 10
235.406
 20
-15.96
 11
235.796
 21
-16.0783
  0
LINE
  8
0
 10
235.796
 20
-16.0783
 11
236.156
 21
-16.2705
  0
LINE
  8
0
 10
236.156
 20
-16.2705
 11
236.471
 21
-16.5292
  0
LINE
  8
0
 10
236.471
 20
-16.5292
 11
236.729
 21
-16.8444
  0
LINE
  8
0
 10
236.729
 20
-16.8444
 11
236.922
 21
-17.204
  0
LINE
  8
0
 10
236.922
 20
-17.204
 11
237.04
 21
-17.5942
  0
LINE
  8
0
 10
237.04
 20
-17.5942
 11
237.08
 21
-18
  0
LINE
  8
0
 10
237.08
 20
-18
 11
237.04
 21
-18.4058
  0
LINE
  8
0
 10
237.04
 20
-18.4058
 11
236.922
 21
-18.796
  0
LINE
  8
0
 10
236.922
 20
-18.796
 11
236.729
 21
-19.1556
  0
LINE
  8
0
 10
236.729
 20
-19.1556
 11
236.471
 21
-19.4708
  0
LINE
  8
0
 10
236.471
 20
-19.4708
 11
236.156
 21
-19.7294
  0
LINE
  8
0
 10
236.156
 20
-19.7294
 11
235.796
 21
-19.9217
  0
LINE
  8
0
 10
235.796
 20
-19.9217
 11
235.406
 21
-20.04
  0
LINE
  8
0
 10
235.406
 20
-20.04
 11
235
 21
-20.08
  0
LINE
  8
0
 10
235
 20
-20.08
 11
234.594
 21
-20.04
  0
LINE
  8
0
 10
244.914
 20
-37.3879
 11
244.517
 21
-37.2953
  0
LINE
  8
0
 10
244.517
 20
-37.2953
 11
244.146
 21
-37.127
  0
LINE
  8
0
 10
244.146
 20
-37.127
 11
243.814
 21
-36.8895
  0
LINE
  8
0
 10
243.814
 20
-36.8895
 11
243.536
 21
-36.5919
  0
LINE
  8
0
 10
243.536
 20
-36.5919
 11
243.32
 21
-36.2456
  0
LINE
  8
0
 10
243.32
 20
-36.2456
 11
243.177
 21
-35.864
  0
LINE
  8
0
 10
243.177
 20
-35.864
 11
243.11
 21
-35.4617
  0
LINE
  8
0
 10
243.11
 20
-35.4617
 11
243.124
 21
-35.0542
  0
LINE
  8
0
 10
243.124
 20
-35.0542
 11
243.216
 21
-34.6571
  0
LINE
  8
0
 10
243.216
 20
-34.6571
 11
243.385
 21
-34.2857
  0
LINE
  8
0
 10
243.385
 20
-34.2857
 11
243.622
 21
-33.9542
  0
LINE
  8
0
 10
243.622
 20
-33.9542
 11
243.92
 21
-33.6755
  0
LINE
  8
0
 10
243.92
 20
-33.6755
 11
244.266
 21
-33.4602
  0
LINE
  8
0
 10
244.266
 20
-33.4602
 11
244.647
 21
-33.3165
  0
LINE
  8
0
 10
244.647
 20
-33.3165
 11
245.05
 21
-33.2501
  0
LINE
  8
0
 10
245.05
 20
-33.2501
 11
245.457
 21
-33.2635
  0
LINE
  8
0
 10
245.457
 20
-33.2635
 11
245.854
 21
-33.356
  0
LINE
  8
0
 10
245.854
 20
-33.356
 11
246.226
 21
-33.5243
  0
LINE
  8
0
 10
246.226
 20
-33.5243
 11
246.557
 21
-33.7618
  0
LINE
  8
0
 10
246.557
 20
-33.7618
 11
246.836
 21
-34.0594
  0
LINE
  8
0
 10
246.836
 20
-34.0594
 11
247.051
 21
-34.4057
  0
LINE
  8
0
 10
247.051
 20
-34.4057
 11
247.195
 21
-34.7873
  0
LINE
  8
0
 10
247.195
 20
-34.7873
 11
247.261
 21
-35.1896
  0
LINE
  8
0
 10
247.261
 20
-35.1896
 11
247.248
 21
-35.5972
  0
LINE
  8
0
 10
247.248
 20
-35.5972
 11
247.155
 21
-35.9942
  0
LINE
  8
0
 10
247.155
 20
-35.9942
 11
246.987
 21
-36.3657
  0
LINE
  8
0
 10
246.987
 20
-36.3657
 11
246.75
 21
-36.6971
  0
LINE
  8
0
 10
246.75
 20
-36.6971
 11
246.452
 21
-36.9758
  0
LINE
  8
0
 10
246.452
 20
-36.9758
 11
246.106
 21
-37.1911
  0
LINE
  8
0
 10
246.106
 20
-37.1911
 11
245.724
 21
-37.3348
  0
LINE
  8
0
 10
245.724
 20
-37.3348
 11
245.322
 21
-37.4012
  0
LINE
  8
0
 10
245.322
 20
-37.4012
 11
244.914
 21
-37.3879
  0
LINE
  8
0
 10
-245.724
 20
-37.3348
 11
-246.106
 21
-37.1911
  0
LINE
  8
0
 10
-246.106
 20
-37.1911
 11
-246.452
 21
-36.9758
  0
LINE
  8
0
 10
-246.452
 20
-36.9758
 11
-246.75
 21
-36.6971
  0
LINE
  8
0
 10
-246.75
 20
-36.6971
 11
-246.987
 21
-36.3657
  0
LINE
  8
0
 10
-246.987
 20
-36.3657
 11
-247.155
 21
-35.9942
  0
LINE
  8
0
 10
-247.155
 20
-35.9942
 11
-247.248
 21
-35.5972
  0
LINE
  8
0
 10
-247.248
 20
-35.5972
 11
-247.261
 21
-35.1896
  0
LINE
  8
0
 10
-247.261
 20
-35.1896
 11
-247.195
 21
-34.7873
  0
LINE
  8
0
 10
-247.195
 20
-34.7873
 11
-247.051
 21
-34.4057
  0
LINE
  8
0
 10
-247.051
 20
-34.4057
 11
-246.836
 21
-34.0594
  0
LINE
  8
0
 10
-246.836
 20
-34.0594
 11
-246.557
 21
-33.7618
  0
LINE
  8
0
 10
-246.557
 20
-33.7618
 11
-246.226
 21
-33.5243
  0
LINE
  8
0
 10
-246.226
 20
-33.5243
 11
-245.854
 21
-33.356
  0
LINE
  8
0
 10
-245.854
 20
-33.356
 11
-245.457
 21
-33.2635
  0
LINE
  8
0
 10
-245.457
 20
-33.2635
 11
-245.05
 21
-33.2501
  0
LINE
  8
0
 10
-245.05
 20
-33.2501
 11
-244.647
 21
-33.3165
  0
LINE
  8
0
 10
-244.647
 20
-33.3165
 11
-244.266
 21
-33.4602
  0
LINE
  8
0
 10
-244.266
 20
-33.4602
 11
-243.92
 21
-33.6755
  0
LINE
  8
0
 10
-243.92
 20
-33.6755
 11
-243.622
 21
-33.9542
  0
LINE
  8
0
 10
-243.622
 20
-33.9542
 11
-243.385
 21
-34.2857
  0
LINE
  8
0
 10
-243.385
 20
-34.2857
 11
-243.216
 21
-34.6571
  0
LINE
  8
0
 10
-243.216
 20
-34.6571
 11
-243.124
 21
-35.0542
  0
LINE
  8
0
 10
-243.124
 20
-35.0542
 11
-243.11
 21
-35.4617
  0
LINE
  8
0
 10
-243.11
 20
-35.4617
 11
-243.177
 21
-35.864
  0
LINE
  8
0
 10
-243.177
 20
-35.864
 11
-243.32
 21
-36.2456
  0
LINE
  8
0
 10
-243.32
 20
-36.2456
 11
-243.536
 21
-36.5919
  0
LINE
  8
0
 10
-243.536
 20
-36.5919
 11
-243.814
 21
-36.8895
  0
LINE
  8
0
 10
-243.814
 20
-36.8895
 11
-244.146
 21
-37.127
  0
LINE
  8
0
 10
-244.146
 20
-37.127
 11
-244.517
 21
-37.2953
  0
LINE
  8
0
 10
-244.517
 20
-37.2953
 11
-244.914
 21
-37.3879
  0
LINE
  8
0
 10
-244.914
 20
-37.3879
 11
-245.322
 21
-37.4012
  0
LINE
  8
0
 10
-245.322
 20
-37.4012
 11
-245.724
 21
-37.3348
  0
LINE
  8
0
 10
160.594
 20
-57.04
 11
160.204
 21
-56.9217
  0
LINE
  8
0
 10
160.204
 20
-56.9217
 11
159.844
 21
-56.7294
  0
LINE
  8
0
 10
159.844
 20
-56.7294
 11
159.529
 21
-56.4708
  0
LINE
  8
0
 10
159.529
 20
-56.4708
 11
159.271
 21
-56.1556
  0
LINE
  8
0
 10
159.271
 20
-56.1556
 11
159.078
 21
-55.796
  0
LINE
  8
0
 10
159.078
 20
-55.796
 11
158.96
 21
-55.4058
  0
LINE
  8
0
 10
158.96
 20
-55.4058
 11
158.92
 21
-55
  0
LINE
  8
0
 10
158.92
 20
-55
 11
158.96
 21
-54.5942
  0
LINE
  8
0
 10
158.96
 20
-54.5942
 11
159.078
 21
-54.204
  0
LINE
  8
0
 10
159.078
 20
-54.204
 11
159.271
 21
-53.8444
  0
LINE
  8
0
 10
159.271
 20
-53.8444
 11
159.529
 21
-53.5292
  0
LINE
  8
0
 10
159.529
 20
-53.5292
 11
159.844
 21
-53.2705
  0
LINE
  8
0
 10
159.844
 20
-53.2705
 11
160.204
 21
-53.0783
  0
LINE
  8
0
 10
160.204
 20
-53.0783
 11
160.594
 21
-52.96
  0
LINE
  8
0
 10
160.594
 20
-52.96
 11
161
 21
-52.92
  0
LINE
  8
0
 10
161
 20
-52.92
 11
161.406
 21
-52.96
  0
LINE
  8
0
 10
161.406
 20
-52.96
 11
161.796
 21
-53.0783
  0
LINE
  8
0
 10
161.796
 20
-53.0783
 11
162.156
 21
-53.2705
  0
LINE
  8
0
 10
162.156
 20
-53.2705
 11
162.471
 21
-53.5292
  0
LINE
  8
0
 10
162.471
 20
-53.5292
 11
162.729
 21
-53.8444
  0
LINE
  8
0
 10
162.729
 20
-53.8444
 11
162.922
 21
-54.204
  0
LINE
  8
0
 10
162.922
 20
-54.204
 11
163.04
 21
-54.5942
  0
LINE
  8
0
 10
163.04
 20
-54.5942
 11
163.08
 21
-55
  0
LINE
  8
0
 10
163.08
 20
-55
 11
163.04
 21
-55.4058
  0
LINE
  8
0
 10
163.04
 20
-55.4058
 11
162.922
 21
-55.796
  0
LINE
  8
0
 10
162.922
 20
-55.796
 11
162.729
 21
-56.1556
  0
LINE
  8
0
 10
162.729
 20
-56.1556
 11
162.471
 21
-56.4708
  0
LINE
  8
0
 10
162.471
 20
-56.4708
 11
162.156
 21
-56.7294
  0
LINE
  8
0
 10
162.156
 20
-56.7294
 11
161.796
 21
-56.9217
  0
LINE
  8
0
 10
161.796
 20
-56.9217
 11
161.406
 21
-57.04
  0
LINE
  8
0
 10
161.406
 20
-57.04
 11
161
 21
-57.08
  0
LINE
  8
0
 10
161
 20
-57.08
 11
160.594
 21
-57.04
  0
LINE
  8
0
 10
-161.406
 20
-57.04
 11
-161.796
 21
-56.9217
  0
LINE
  8
0
 10
-161.796
 20
-56.9217
 11
-162.156
 21
-56.7294
  0
LINE
  8
0
 10
-162.156
 20
-56.7294
 11
-162.471
 21
-56.4708
  0
LINE
  8
0
 10
-162.471
 20
-56.4708
 11
-162.729
 21
-56.1556
  0
LINE
  8
0
 10
-162.729
 20
-56.1556
 11
-162.922
 21
-55.796
  0
LINE
  8
0
 10
-162.922
 20
-55.796
 11
-163.04
 21
-55.4058
  0
LINE
  8
0
 10
-163.04
 20
-55.4058
 11
-163.08
 21
-55
  0
LINE
  8
0
 10
-163.08
 20
-55
 11
-163.04
 21
-54.5942
  0
LINE
  8
0
 10
-163.04
 20
-54.5942
 11
-162.922
 21
-54.204
  0
LINE
  8
0
 10
-162.922
 20
-54.204
 11
-162.729
 21
-53.8444
  0
LINE
  8
0
 10
-162.729
 20
-53.8444
 11
-162.471
 21
-53.5292
  0
LINE
  8
0
 10
-162.471
 20
-53.5292
 11
-162.156
 21
-53.2705
  0
LINE
  8
0
 10
-162.156
 20
-53.2705
 11
-161.796
 21
-53.0783
  0
LINE
  8
0
 10
-161.796
 20
-53.0783
 11
-161.406
 21
-52.96
  0
LINE
  8
0
 10
-161.406
 20
-52.96
 11
-161
 21
-52.92
  0
LINE
  8
0
 10
-161
 20
-52.92
 11
-160.594
 21
-52.96
  0
LINE
  8
0
 10
-160.594
 20
-52.96
 11
-160.204
 21
-53.0783
  0
LINE
  8
0
 10
-160.204
 20
-53.0783
 11
-159.844
 21
-53.2705
  0
LINE
  8
0
 10
-159.844
 20
-53.2705
 11
-159.529
 21
-53.5292
  0
LINE
  8
0
 10
-159.529
 20
-53.5292
 11
-159.271
 21
-53.8444
  0
LINE
  8
0
 10
-159.271
 20
-53.8444
 11
-159.078
 21
-54.204
  0
LINE
  8
0
 10
-159.078
 20
-54.204
 11
-158.96
 21
-54.5942
  0
LINE
  8
0
 10
-158.96
 20
-54.5942
 11
-158.92
 21
-55
  0
LINE
  8
0
 10
-158.92
 20
-55
 11
-158.96
 21
-55.4058
  0
LINE
  8
0
 10
-158.96
 20
-55.4058
 11
-159.078
 21
-55.796
  0
LINE
  8
0
 10
-159.078
 20
-55.796
 11
-159.271
 21
-56.1556
  0
LINE
  8
0
 10
-159.271
 20
-56.1556
 11
-159.529
 21
-56.4708
  0
LINE
  8
0
 10
-159.529
 20
-56.4708
 11
-159.844
 21
-56.7294
  0
LINE
  8
0
 10
-159.844
 20
-56.7294
 11
-160.204
 21
-56.9217
  0
LINE
  8
0
 10
-160.204
 20
-56.9217
 11
-160.594
 21
-57.04
  0
LINE
  8
0
 10
-160.594
 20
-57.04
 11
-161
 21
-57.08
  0
LINE
  8
0
 10
-161
 20
-57.08
 11
-161.406
 21
-57.04
  0
LINE
  8
0
 10
-214.724
 20
-91.0284
 11
-215.106
 21
-90.8847
  0
LINE
  8
0
 10
-215.106
 20
-90.8847
 11
-215.452
 21
-90.6694
  0
LINE
  8
0
 10
-215.452
 20
-90.6694
 11
-215.75
 21
-90.3907
  0
LINE
  8
0
 10
-215.75
 20
-90.3907
 11
-215.987
 21
-90.0592
  0
LINE
  8
0
 10
-215.987
 20
-90.0592
 11
-216.155
 21
-89.6878
  0
LINE
  8
0
 10
-216.155
 20
-89.6878
 11
-216.248
 21
-89.2907
  0
LINE
  8
0
 10
-216.248
 20
-89.2907
 11
-216.261
 21
-88.8832
  0
LINE
  8
0
 10
-216.261
 20
-88.8832
 11
-216.195
 21
-88.4809
  0
LINE
  8
0
 10
-216.195
 20
-88.4809
 11
-216.051
 21
-88.0993
  0
LINE
  8
0
 10
-216.051
 20
-88.0993
 11
-215.836
 21
-87.753
  0
LINE
  8
0
 10
-215.836
 20
-87.753
 11
-215.557
 21
-87.4554
  0
LINE
  8
0
 10
-215.557
 20
-87.4554
 11
-215.226
 21
-87.2179
  0
LINE
  8
0
 10
-215.226
 20
-87.2179
 11
-214.854
 21
-87.0496
  0
LINE
  8
0
 10
-214.854
 20
-87.0496
 11
-214.457
 21
-86.957
  0
LINE
  8
0
 10
-214.457
 20
-86.957
 11
-214.05
 21
-86.9437
  0
LINE
  8
0
 10
-214.05
 20
-86.9437
 11
-213.647
 21
-87.0101
  0
LINE
  8
0
 10
-213.647
 20
-87.0101
 11
-213.266
 21
-87.1537
  0
LINE
  8
0
 10
-213.266
 20
-87.1537
 11
-212.92
 21
-87.3691
  0
LINE
  8
0
 10
-212.92
 20
-87.3691
 11
-212.622
 21
-87.6478
  0
LINE
  8
0
 10
-212.622
 20
-87.6478
 11
-212.385
 21
-87.9792
  0
LINE
  8
0
 10
-212.385
 20
-87.9792
 11
-212.216
 21
-88.3506
  0
LINE
  8
0
 10
-212.216
 20
-88.3506
 11
-212.124
 21
-88.7477
  0
LINE
  8
0
 10
-212.124
 20
-88.7477
 11
-212.11
 21
-89.1553
  0
LINE
  8
0
 10
-212.11
 20
-89.1553
 11
-212.177
 21
-89.5576
  0
LINE
  8
0
 10
-212.177
 20
-89.5576
 11
-212.32
 21
-89.9392
  0
LINE
  8
0
 10
-212.32
 20
-89.9392
 11
-212.536
 21
-90.2855
  0
LINE
  8
0
 10
-212.536
 20
-90.2855
 11
-212.814
 21
-90.5831
  0
LINE
  8
0
 10
-212.814
 20
-90.5831
 11
-213.146
 21
-90.8206
  0
LINE
  8
0
 10
-213.146
 20
-90.8206
 11
-213.517
 21
-90.9888
  0
LINE
  8
0
 10
-213.517
 20
-90.9888
 11
-213.914
 21
-91.0814
  0
LINE
  8
0
 10
-213.914
 20
-91.0814
 11
-214.322
 21
-91.0948
  0
LINE
  8
0
 10
-214.322
 20
-91.0948
 11
-214.724
 21
-91.0284
  0
LINE
  8
0
 10
213.914
 20
-91.0814
 11
213.517
 21
-90.9888
  0
LINE
  8
0
 10
213.517
 20
-90.9888
 11
213.146
 21
-90.8206
  0
LINE
  8
0
 10
213.146
 20
-90.8206
 11
212.814
 21
-90.5831
  0
LINE
  8
0
 10
212.814
 20
-90.5831
 11
212.536
 21
-90.2855
  0
LINE
  8
0
 10
212.536
 20
-90.2855
 11
212.32
 21
-89.9392
  0
LINE
  8
0
 10
212.32
 20
-89.9392
 11
212.177
 21
-89.5576
  0
LINE
  8
0
 10
212.177
 20
-89.5576
 11
212.11
 21
-89.1553
  0
LINE
  8
0
 10
212.11
 20
-89.1553
 11
212.124
 21
-88.7477
  0
LINE
  8
0
 10
212.124
 20
-88.7477
 11
212.216
 21
-88.3506
  0
LINE
  8
0
 10
212.216
 20
-88.3506
 11
212.385
 21
-87.9792
  0
LINE
  8
0
 10
212.385
 20
-87.9792
 11
212.622
 21
-87.6478
  0
LINE
  8
0
 10
212.622
 20
-87.6478
 11
212.92
 21
-87.3691
  0
LINE
  8
0
 10
212.92
 20
-87.3691
 11
213.266
 21
-87.1537
  0
LINE
  8
0
 10
213.266
 20
-87.1537
 11
213.647
 21
-87.0101
  0
LINE
  8
0
 10
213.647
 20
-87.0101
 11
214.05
 21
-86.9437
  0
LINE
  8
0
 10
214.05
 20
-86.9437
 11
214.457
 21
-86.957
  0
LINE
  8
0
 10
214.457
 20
-86.957
 11
214.854
 21
-87.0496
  0
LINE
  8
0
 10
214.854
 20
-87.0496
 11
215.226
 21
-87.2179
  0
LINE
  8
0
 10
215.226
 20
-87.2179
 11
215.557
 21
-87.4554
  0
LINE
  8
0
 10
215.557
 20
-87.4554
 11
215.836
 21
-87.753
  0
LINE
  8
0
 10
215.836
 20
-87.753
 11
216.051
 21
-88.0993
  0
LINE
  8
0
 10
216.051
 20
-88.0993
 11
216.195
 21
-88.4809
  0
LINE
  8
0
 10
216.195
 20
-88.4809
 11
216.261
 21
-88.8832
  0
LINE
  8
0
 10
216.261
 20
-88.8832
 11
216.248
 21
-89.2907
  0
LINE
  8
0
 10
216.248
 20
-89.2907
 11
216.155
 21
-89.6878
  0
LINE
  8
0
 10
216.155
 20
-89.6878
 11
215.987
 21
-90.0592
  0
LINE
  8
0
 10
215.987
 20
-90.0592
 11
215.75
 21
-90.3907
  0
LINE
  8
0
 10
215.75
 20
-90.3907
 11
215.452
 21
-90.6694
  0
LINE
  8
0
 10
215.452
 20
-90.6694
 11
215.106
 21
-90.8847
  0
LINE
  8
0
 10
215.106
 20
-90.8847
 11
214.724
 21
-91.0284
  0
LINE
  8
0
 10
214.724
 20
-91.0284
 11
214.322
 21
-91.0948
  0
LINE
  8
0
 10
214.322
 20
-91.0948
 11
213.914
 21
-91.0814
  0
LINE
  8
0
 10
187.395
 20
-112.545
 11
186.616
 21
-112.363
  0
LINE
  8
0
 10
186.616
 20
-112.363
 11
185.888
 21
-112.033
  0
LINE
  8
0
 10
185.888
 20
-112.033
 11
185.237
 21
-111.568
  0
LINE
  8
0
 10
185.237
 20
-111.568
 11
184.691
 21
-110.984
  0
LINE
  8
0
 10
184.691
 20
-110.984
 11
184.268
 21
-110.305
  0
LINE
  8
0
 10
184.268
 20
-110.305
 11
183.987
 21
-109.556
  0
LINE
  8
0
 10
183.987
 20
-109.556
 11
183.856
 21
-108.767
  0
LINE
  8
0
 10
183.856
 20
-108.767
 11
183.882
 21
-107.967
  0
LINE
  8
0
 10
183.882
 20
-107.967
 11
184.064
 21
-107.189
  0
LINE
  8
0
 10
184.064
 20
-107.189
 11
184.394
 21
-106.46
  0
LINE
  8
0
 10
184.394
 20
-106.46
 11
184.86
 21
-105.81
  0
LINE
  8
0
 10
184.86
 20
-105.81
 11
185.444
 21
-105.263
  0
LINE
  8
0
 10
185.444
 20
-105.263
 11
186.123
 21
-104.841
  0
LINE
  8
0
 10
186.123
 20
-104.841
 11
186.872
 21
-104.559
  0
LINE
  8
0
 10
186.872
 20
-104.559
 11
187.661
 21
-104.429
  0
LINE
  8
0
 10
187.661
 20
-104.429
 11
188.46
 21
-104.455
  0
LINE
  8
0
 10
188.46
 20
-104.455
 11
189.239
 21
-104.637
  0
LINE
  8
0
 10
189.239
 20
-104.637
 11
189.968
 21
-104.967
  0
LINE
  8
0
 10
189.968
 20
-104.967
 11
190.618
 21
-105.432
  0
LINE
  8
0
 10
190.618
 20
-105.432
 11
191.164
 21
-106.016
  0
LINE
  8
0
 10
191.164
 20
-106.016
 11
191.587
 21
-106.695
  0
LINE
  8
0
 10
191.587
 20
-106.695
 11
191.868
 21
-107.444
  0
LINE
  8
0
 10
191.868
 20
-107.444
 11
191.999
 21
-108.233
  0
LINE
  8
0
 10
191.999
 20
-108.233
 11
191.973
 21
-109.033
  0
LINE
  8
0
 10
191.973
 20
-109.033
 11
191.791
 21
-109.811
  0
LINE
  8
0
 10
191.791
 20
-109.811
 11
191.461
 21
-110.54
  0
LINE
  8
0
 10
191.461
 20
-110.54
 11
190.995
 21
-111.19
  0
LINE
  8
0
 10
190.995
 20
-111.19
 11
190.411
 21
-111.737
  0
LINE
  8
0
 10
190.411
 20
-111.737
 11
189.732
 21
-112.159
  0
LINE
  8
0
 10
189.732
 20
-112.159
 11
188.983
 21
-112.441
  0
LINE
  8
0
 10
188.983
 20
-112.441
 11
188.194
 21
-112.571
  0
LINE
  8
0
 10
188.194
 20
-112.571
 11
187.395
 21
-112.545
  0
LINE
  8
0
 10
-188.983
 20
-112.441
 11
-189.732
 21
-112.159
  0
LINE
  8
0
 10
-189.732
 20
-112.159
 11
-190.411
 21
-111.737
  0
LINE
  8
0
 10
-190.411
 20
-111.737
 11
-190.995
 21
-111.19
  0
LINE
  8
0
 10
-190.995
 20
-111.19
 11
-191.461
 21
-110.54
  0
LINE
  8
0
 10
-191.461
 20
-110.54
 11
-191.791
 21
-109.811
  0
LINE
  8
0
 10
-191.791
 20
-109.811
 11
-191.973
 21
-109.033
  0
LINE
  8
0
 10
-191.973
 20
-109.033
 11
-191.999
 21
-108.233
  0
LINE
  8
0
 10
-191.999
 20
-108.233
 11
-191.868
 21
-107.444
  0
LINE
  8
0
 10
-191.868
 20
-107.444
 11
-191.587
 21
-106.695
  0
LINE
  8
0
 10
-191.587
 20
-106.695
 11
-191.164
 21
-106.016
  0
LINE
  8
0
 10
-191.164
 20
-106.016
 11
-190.618
 21
-105.432
  0
LINE
  8
0
 10
-190.618
 20
-105.432
 11
-189.968
 21
-104.967
  0
LINE
  8
0
 10
-189.968
 20
-104.967
 11
-189.239
 21
-104.637
  0
LINE
  8
0
 10
-189.239
 20
-104.637
 11
-188.46
 21
-104.455
  0
LINE
  8
0
 10
-188.46
 20
-104.455
 11
-187.661
 21
-104.429
  0
LINE
  8
0
 10
-187.661
 20
-104.429
 11
-186.872
 21
-104.559
  0
LINE
  8
0
 10
-186.872
 20
-104.559
 11
-186.123
 21
-104.841
  0
LINE
  8
0
 10
-186.123
 20
-104.841
 11
-185.444
 21
-105.263
  0
LINE
  8
0
 10
-185.444
 20
-105.263
 11
-184.86
 21
-105.81
  0
LINE
  8
0
 10
-184.86
 20
-105.81
 11
-184.394
 21
-106.46
  0
LINE
  8
0
 10
-184.394
 20
-106.46
 11
-184.064
 21
-107.189
  0
LINE
  8
0
 10
-184.064
 20
-107.189
 11
-183.882
 21
-107.967
  0
LINE
  8
0
 10
-183.882
 20
-107.967
 11
-183.856
 21
-108.767
  0
LINE
  8
0
 10
-183.856
 20
-108.767
 11
-183.987
 21
-109.556
  0
LINE
  8
0
 10
-183.987
 20
-109.556
 11
-184.268
 21
-110.305
  0
LINE
  8
0
 10
-184.268
 20
-110.305
 11
-184.691
 21
-110.984
  0
LINE
  8
0
 10
-184.691
 20
-110.984
 11
-185.237
 21
-111.568
  0
LINE
  8
0
 10
-185.237
 20
-111.568
 11
-185.888
 21
-112.033
  0
LINE
  8
0
 10
-185.888
 20
-112.033
 11
-186.616
 21
-112.363
  0
LINE
  8
0
 10
-186.616
 20
-112.363
 11
-187.395
 21
-112.545
  0
LINE
  8
0
 10
-187.395
 20
-112.545
 11
-188.194
 21
-112.571
  0
LINE
  8
0
 10
-188.194
 20
-112.571
 11
-188.983
 21
-112.441
  0
LINE
  8
0
 10
-184.724
 20
-142.99
 11
-185.106
 21
-142.846
  0
LINE
  8
0
 10
-185.106
 20
-142.846
 11
-185.452
 21
-142.631
  0
LINE
  8
0
 10
-185.452
 20
-142.631
 11
-185.75
 21
-142.352
  0
LINE
  8
0
 10
-185.75
 20
-142.352
 11
-185.987
 21
-142.021
  0
LINE
  8
0
 10
-185.987
 20
-142.021
 11
-186.155
 21
-141.649
  0
LINE
  8
0
 10
-186.155
 20
-141.649
 11
-186.248
 21
-141.252
  0
LINE
  8
0
 10
-186.248
 20
-141.252
 11
-186.261
 21
-140.845
  0
LINE
  8
0
 10
-186.261
 20
-140.845
 11
-186.195
 21
-140.442
  0
LINE
  8
0
 10
-186.195
 20
-140.442
 11
-186.051
 21
-140.061
  0
LINE
  8
0
 10
-186.051
 20
-140.061
 11
-185.836
 21
-139.715
  0
LINE
  8
0
 10
-185.836
 20
-139.715
 11
-185.557
 21
-139.417
  0
LINE
  8
0
 10
-185.557
 20
-139.417
 11
-185.226
 21
-139.179
  0
LINE
  8
0
 10
-185.226
 20
-139.179
 11
-184.854
 21
-139.011
  0
LINE
  8
0
 10
-184.854
 20
-139.011
 11
-184.457
 21
-138.919
  0
LINE
  8
0
 10
-184.457
 20
-138.919
 11
-184.05
 21
-138.905
  0
LINE
  8
0
 10
-184.05
 20
-138.905
 11
-183.648
 21
-138.972
  0
LINE
  8
0
 10
-183.648
 20
-138.972
 11
-183.266
 21
-139.115
  0
LINE
  8
0
 10
-183.266
 20
-139.115
 11
-182.92
 21
-139.331
  0
LINE
  8
0
 10
-182.92
 20
-139.331
 11
-182.622
 21
-139.609
  0
LINE
  8
0
 10
-182.622
 20
-139.609
 11
-182.385
 21
-139.941
  0
LINE
  8
0
 10
-182.385
 20
-139.941
 11
-182.216
 21
-140.312
  0
LINE
  8
0
 10
-182.216
 20
-140.312
 11
-182.124
 21
-140.709
  0
LINE
  8
0
 10
-182.124
 20
-140.709
 11
-182.11
 21
-141.117
  0
LINE
  8
0
 10
-182.11
 20
-141.117
 11
-182.177
 21
-141.519
  0
LINE
  8
0
 10
-182.177
 20
-141.519
 11
-182.32
 21
-141.901
  0
LINE
  8
0
 10
-182.32
 20
-141.901
 11
-182.536
 21
-142.247
  0
LINE
  8
0
 10
-182.536
 20
-142.247
 11
-182.814
 21
-142.545
  0
LINE
  8
0
 10
-182.814
 20
-142.545
 11
-183.146
 21
-142.782
  0
LINE
  8
0
 10
-183.146
 20
-142.782
 11
-183.517
 21
-142.95
  0
LINE
  8
0
 10
-183.517
 20
-142.95
 11
-183.914
 21
-143.043
  0
LINE
  8
0
 10
-183.914
 20
-143.043
 11
-184.322
 21
-143.056
  0
LINE
  8
0
 10
-184.322
 20
-143.056
 11
-184.724
 21
-142.99
  0
LINE
  8
0
 10
183.914
 20
-143.043
 11
183.517
 21
-142.95
  0
LINE
  8
0
 10
183.517
 20
-142.95
 11
183.146
 21
-142.782
  0
LINE
  8
0
 10
183.146
 20
-142.782
 11
182.814
 21
-142.545
  0
LINE
  8
0
 10
182.814
 20
-142.545
 11
182.536
 21
-142.247
  0
LINE
  8
0
 10
182.536
 20
-142.247
 11
182.32
 21
-141.901
  0
LINE
  8
0
 10
182.32
 20
-141.901
 11
182.177
 21
-141.519
  0
LINE
  8
0
 10
182.177
 20
-141.519
 11
182.11
 21
-141.117
  0
LINE
  8
0
 10
182.11
 20
-141.117
 11
182.124
 21
-140.709
  0
LINE
  8
0
 10
182.124
 20
-140.709
 11
182.216
 21
-140.312
  0
LINE
  8
0
 10
182.216
 20
-140.312
 11
182.385
 21
-139.941
  0
LINE
  8
0
 10
182.385
 20
-139.941
 11
182.622
 21
-139.609
  0
LINE
  8
0
 10
182.622
 20
-139.609
 11
182.92
 21
-139.331
  0
LINE
  8
0
 10
182.92
 20
-139.331
 11
183.266
 21
-139.115
  0
LINE
  8
0
 10
183.266
 20
-139.115
 11
183.648
 21
-138.972
  0
LINE
  8
0
 10
183.648
 20
-138.972
 11
184.05
 21
-138.905
  0
LINE
  8
0
 10
184.05
 20
-138.905
 11
184.457
 21
-138.919
  0
LINE
  8
0
 10
184.457
 20
-138.919
 11
184.854
 21
-139.011
  0
LINE
  8
0
 10
184.854
 20
-139.011
 11
185.226
 21
-139.179
  0
LINE
  8
0
 10
185.226
 20
-139.179
 11
185.557
 21
-139.417
  0
LINE
  8
0
 10
185.557
 20
-139.417
 11
185.836
 21
-139.715
  0
LINE
  8
0
 10
185.836
 20
-139.715
 11
186.051
 21
-140.061
  0
LINE
  8
0
 10
186.051
 20
-140.061
 11
186.195
 21
-140.442
  0
LINE
  8
0
 10
186.195
 20
-140.442
 11
186.261
 21
-140.845
  0
LINE
  8
0
 10
186.261
 20
-140.845
 11
186.248
 21
-141.252
  0
LINE
  8
0
 10
186.248
 20
-141.252
 11
186.155
 21
-141.649
  0
LINE
  8
0
 10
186.155
 20
-141.649
 11
185.987
 21
-142.021
  0
LINE
  8
0
 10
185.987
 20
-142.021
 11
185.75
 21
-142.352
  0
LINE
  8
0
 10
185.75
 20
-142.352
 11
185.452
 21
-142.631
  0
LINE
  8
0
 10
185.452
 20
-142.631
 11
185.106
 21
-142.846
  0
LINE
  8
0
 10
185.106
 20
-142.846
 11
184.724
 21
-142.99
  0
LINE
  8
0
 10
184.724
 20
-142.99
 11
184.322
 21
-143.056
  0
LINE
  8
0
 10
184.322
 20
-143.056
 11
183.914
 21
-143.043
  0
LINE
  8
0
 10
-161.406
 20
-167.04
 11
-161.796
 21
-166.922
  0
LINE
  8
0
 10
-161.796
 20
-166.922
 11
-162.156
 21
-166.729
  0
LINE
  8
0
 10
-162.156
 20
-166.729
 11
-162.471
 21
-166.471
  0
LINE
  8
0
 10
-162.471
 20
-166.471
 11
-162.729
 21
-166.156
  0
LINE
  8
0
 10
-162.729
 20
-166.156
 11
-162.922
 21
-165.796
  0
LINE
  8
0
 10
-162.922
 20
-165.796
 11
-163.04
 21
-165.406
  0
LINE
  8
0
 10
-163.04
 20
-165.406
 11
-163.08
 21
-165
  0
LINE
  8
0
 10
-163.08
 20
-165
 11
-163.04
 21
-164.594
  0
LINE
  8
0
 10
-163.04
 20
-164.594
 11
-162.922
 21
-164.204
  0
LINE
  8
0
 10
-162.922
 20
-164.204
 11
-162.729
 21
-163.844
  0
LINE
  8
0
 10
-162.729
 20
-163.844
 11
-162.471
 21
-163.529
  0
LINE
  8
0
 10
-162.471
 20
-163.529
 11
-162.156
 21
-163.271
  0
LINE
  8
0
 10
-162.156
 20
-163.271
 11
-161.796
 21
-163.078
  0
LINE
  8
0
 10
-161.796
 20
-163.078
 11
-161.406
 21
-162.96
  0
LINE
  8
0
 10
-161.406
 20
-162.96
 11
-161
 21
-162.92
  0
LINE
  8
0
 10
-161
 20
-162.92
 11
-160.594
 21
-162.96
  0
LINE
  8
0
 10
-160.594
 20
-162.96
 11
-160.204
 21
-163.078
  0
LINE
  8
0
 10
-160.204
 20
-163.078
 11
-159.844
 21
-163.271
  0
LINE
  8
0
 10
-159.844
 20
-163.271
 11
-159.529
 21
-163.529
  0
LINE
  8
0
 10
-159.529
 20
-163.529
 11
-159.271
 21
-163.844
  0
LINE
  8
0
 10
-159.271
 20
-163.844
 11
-159.078
 21
-164.204
  0
LINE
  8
0
 10
-159.078
 20
-164.204
 11
-158.96
 21
-164.594
  0
LINE
  8
0
 10
-158.96
 20
-164.594
 11
-158.92
 21
-165
  0
LINE
  8
0
 10
-158.92
 20
-165
 11
-158.96
 21
-165.406
  0
LINE
  8
0
 10
-158.96
 20
-165.406
 11
-159.078
 21
-165.796
  0
LINE
  8
0
 10
-159.078
 20
-165.796
 11
-159.271
 21
-166.156
  0
LINE
  8
0
 10
-159.271
 20
-166.156
 11
-159.529
 21
-166.471
  0
LINE
  8
0
 10
-159.529
 20
-166.471
 11
-159.844
 21
-166.729
  0
LINE
  8
0
 10
-159.844
 20
-166.729
 11
-160.204
 21
-166.922
  0
LINE
  8
0
 10
-160.204
 20
-166.922
 11
-160.594
 21
-167.04
  0
LINE
  8
0
 10
-160.594
 20
-167.04
 11
-161
 21
-167.08
  0
LINE
  8
0
 10
-161
 20
-167.08
 11
-161.406
 21
-167.04
  0
LINE
  8
0
 10
160.594
 20
-167.04
 11
160.204
 21
-166.922
  0
LINE
  8
0
 10
160.204
 20
-166.922
 11
159.844
 21
-166.729
  0
LINE
  8
0
 10
159.844
 20
-166.729
 11
159.529
 21
-166.471
  0
LINE
  8
0
 10
159.529
 20
-166.471
 11
159.271
 21
-166.156
  0
LINE
  8
0
 10
159.271
 20
-166.156
 11
159.078
 21
-165.796
  0
LINE
  8
0
 10
159.078
 20
-165.796
 11
158.96
 21
-165.406
  0
LINE
  8
0
 10
158.96
 20
-165.406
 11
158.92
 21
-165
  0
LINE
  8
0
 10
158.92
 20
-165
 11
158.96
 21
-164.594
  0
LINE
  8
0
 10
158.96
 20
-164.594
 11
159.078
 21
-164.204
  0
LINE
  8
0
 10
159.078
 20
-164.204
 11
159.271
 21
-163.844
  0
LINE
  8
0
 10
159.271
 20
-163.844
 11
159.529
 21
-163.529
  0
LINE
  8
0
 10
159.529
 20
-163.529
 11
159.844
 21
-163.271
  0
LINE
  8
0
 10
159.844
 20
-163.271
 11
160.204
 21
-163.078
  0
LINE
  8
0
 10
160.204
 20
-163.078
 11
160.594
 21
-162.96
  0
LINE
  8
0
 10
160.594
 20
-162.96
 11
161
 21
-162.92
  0
LINE
  8
0
 10
161
 20
-162.92
 11
161.406
 21
-162.96
  0
LINE
  8
0
 10
161.406
 20
-162.96
 11
161.796
 21
-163.078
  0
LINE
  8
0
 10
161.796
 20
-163.078
 11
162.156
 21
-163.271
  0
LINE
  8
0
 10
162.156
 20
-163.271
 11
162.471
 21
-163.529
  0
LINE
  8
0
 10
162.471
 20
-163.529
 11
162.729
 21
-163.844
  0
LINE
  8
0
 10
162.729
 20
-163.844
 11
162.922
 21
-164.204
  0
LINE
  8
0
 10
162.922
 20
-164.204
 11
163.04
 21
-164.594
  0
LINE
  8
0
 10
163.04
 20
-164.594
 11
163.08
 21
-165
  0
LINE
  8
0
 10
163.08
 20
-165
 11
163.04
 21
-165.406
  0
LINE
  8
0
 10
163.04
 20
-165.406
 11
162.922
 21
-165.796
  0
LINE
  8
0
 10
162.922
 20
-165.796
 11
162.729
 21
-166.156
  0
LINE
  8
0
 10
162.729
 20
-166.156
 11
162.471
 21
-166.471
  0
LINE
  8
0
 10
162.471
 20
-166.471
 11
162.156
 21
-166.729
  0
LINE
  8
0
 10
162.156
 20
-166.729
 11
161.796
 21
-166.922
  0
LINE
  8
0
 10
161.796
 20
-166.922
 11
161.406
 21
-167.04
  0
LINE
  8
0
 10
161.406
 20
-167.04
 11
161
 21
-167.08
  0
LINE
  8
0
 10
161
 20
-167.08
 11
160.594
 21
-167.04
  0
LINE
  8
0
 10
-153.724
 20
-196.683
 11
-154.106
 21
-196.54
  0
LINE
  8
0
 10
-154.106
 20
-196.54
 11
-154.452
 21
-196.325
  0
LINE
  8
0
 10
-154.452
 20
-196.325
 11
-154.75
 21
-196.046
  0
LINE
  8
0
 10
-154.75
 20
-196.046
 11
-154.987
 21
-195.714
  0
LINE
  8
0
 10
-154.987
 20
-195.714
 11
-155.155
 21
-195.343
  0
LINE
  8
0
 10
-155.155
 20
-195.343
 11
-155.248
 21
-194.946
  0
LINE
  8
0
 10
-155.248
 20
-194.946
 11
-155.261
 21
-194.538
  0
LINE
  8
0
 10
-155.261
 20
-194.538
 11
-155.195
 21
-194.136
  0
LINE
  8
0
 10
-155.195
 20
-194.136
 11
-155.051
 21
-193.754
  0
LINE
  8
0
 10
-155.051
 20
-193.754
 11
-154.836
 21
-193.408
  0
LINE
  8
0
 10
-154.836
 20
-193.408
 11
-154.557
 21
-193.111
  0
LINE
  8
0
 10
-154.557
 20
-193.111
 11
-154.226
 21
-192.873
  0
LINE
  8
0
 10
-154.226
 20
-192.873
 11
-153.854
 21
-192.705
  0
LINE
  8
0
 10
-153.854
 20
-192.705
 11
-153.457
 21
-192.612
  0
LINE
  8
0
 10
-153.457
 20
-192.612
 11
-153.05
 21
-192.599
  0
LINE
  8
0
 10
-153.05
 20
-192.599
 11
-152.648
 21
-192.665
  0
LINE
  8
0
 10
-152.648
 20
-192.665
 11
-152.266
 21
-192.809
  0
LINE
  8
0
 10
-152.266
 20
-192.809
 11
-151.92
 21
-193.024
  0
LINE
  8
0
 10
-151.92
 20
-193.024
 11
-151.622
 21
-193.303
  0
LINE
  8
0
 10
-151.622
 20
-193.303
 11
-151.385
 21
-193.634
  0
LINE
  8
0
 10
-151.385
 20
-193.634
 11
-151.216
 21
-194.006
  0
LINE
  8
0
 10
-151.216
 20
-194.006
 11
-151.124
 21
-194.403
  0
LINE
  8
0
 10
-151.124
 20
-194.403
 11
-151.11
 21
-194.81
  0
LINE
  8
0
 10
-151.11
 20
-194.81
 11
-151.177
 21
-195.213
  0
LINE
  8
0
 10
-151.177
 20
-195.213
 11
-151.32
 21
-195.594
  0
LINE
  8
0
 10
-151.32
 20
-195.594
 11
-151.536
 21
-195.941
  0
LINE
  8
0
 10
-151.536
 20
-195.941
 11
-151.814
 21
-196.238
  0
LINE
  8
0
 10
-151.814
 20
-196.238
 11
-152.146
 21
-196.476
  0
LINE
  8
0
 10
-152.146
 20
-196.476
 11
-152.517
 21
-196.644
  0
LINE
  8
0
 10
-152.517
 20
-196.644
 11
-152.914
 21
-196.737
  0
LINE
  8
0
 10
-152.914
 20
-196.737
 11
-153.322
 21
-196.75
  0
LINE
  8
0
 10
-153.322
 20
-196.75
 11
-153.724
 21
-196.683
  0
LINE
  8
0
 10
152.914
 20
-196.737
 11
152.517
 21
-196.644
  0
LINE
  8
0
 10
152.517
 20
-196.644
 11
152.146
 21
-196.476
  0
LINE
  8
0
 10
152.146
 20
-196.476
 11
151.814
 21
-196.238
  0
LINE
  8
0
 10
151.814
 20
-196.238
 11
151.536
 21
-195.941
  0
LINE
  8
0
 10
151.536
 20
-195.941
 11
151.32
 21
-195.594
  0
LINE
  8
0
 10
151.32
 20
-195.594
 11
151.177
 21
-195.213
  0
LINE
  8
0
 10
151.177
 20
-195.213
 11
151.11
 21
-194.81
  0
LINE
  8
0
 10
151.11
 20
-194.81
 11
151.124
 21
-194.403
  0
LINE
  8
0
 10
151.124
 20
-194.403
 11
151.216
 21
-194.006
  0
LINE
  8
0
 10
151.216
 20
-194.006
 11
151.385
 21
-193.634
  0
LINE
  8
0
 10
151.385
 20
-193.634
 11
151.622
 21
-193.303
  0
LINE
  8
0
 10
151.622
 20
-193.303
 11
151.92
 21
-193.024
  0
LINE
  8
0
 10
151.92
 20
-193.024
 11
152.266
 21
-192.809
  0
LINE
  8
0
 10
152.266
 20
-192.809
 11
152.648
 21
-192.665
  0
LINE
  8
0
 10
152.648
 20
-192.665
 11
153.05
 21
-192.599
  0
LINE
  8
0
 10
153.05
 20
-192.599
 11
153.457
 21
-192.612
  0
LINE
  8
0
 10
153.457
 20
-192.612
 11
153.854
 21
-192.705
  0
LINE
  8
0
 10
153.854
 20
-192.705
 11
154.226
 21
-192.873
  0
LINE
  8
0
 10
154.226
 20
-192.873
 11
154.557
 21
-193.111
  0
LINE
  8
0
 10
154.557
 20
-193.111
 11
154.836
 21
-193.408
  0
LINE
  8
0
 10
154.836
 20
-193.408
 11
155.051
 21
-193.754
  0
LINE
  8
0
 10
155.051
 20
-193.754
 11
155.195
 21
-194.136
  0
LINE
  8
0
 10
155.195
 20
-194.136
 11
155.261
 21
-194.538
  0
LINE
  8
0
 10
155.261
 20
-194.538
 11
155.248
 21
-194.946
  0
LINE
  8
0
 10
155.248
 20
-194.946
 11
155.155
 21
-195.343
  0
LINE
  8
0
 10
155.155
 20
-195.343
 11
154.987
 21
-195.714
  0
LINE
  8
0
 10
154.987
 20
-195.714
 11
154.75
 21
-196.046
  0
LINE
  8
0
 10
154.75
 20
-196.046
 11
154.452
 21
-196.325
  0
LINE
  8
0
 10
154.452
 20
-196.325
 11
154.106
 21
-196.54
  0
LINE
  8
0
 10
154.106
 20
-196.54
 11
153.724
 21
-196.683
  0
LINE
  8
0
 10
153.724
 20
-196.683
 11
153.322
 21
-196.75
  0
LINE
  8
0
 10
153.322
 20
-196.75
 11
152.914
 21
-196.737
  0
ENDSEC
  0
SECTION
  2
OBJECTS
  0
DICTIONARY
  0
ENDSEC
  0
EOF
