  0
SECTION
  2
BLOCKS
  0
ENDSEC
  0
SECTION
  2
ENTITIES
  0
LINE
  8
0
 10
862
 20
255
 11
-238
 21
255
  0
LINE
  8
0
 10
-238
 20
255
 11
-238
 21
-255
  0
LINE
  8
0
 10
-238
 20
-255
 11
862
 21
-255
  0
LINE
  8
0
 10
862
 20
-255
 11
862
 21
255
  0
LINE
  8
0
 10
789
 20
195.42
 11
788.594
 21
195.46
  0
LINE
  8
0
 10
788.594
 20
195.46
 11
788.204
 21
195.578
  0
LINE
  8
0
 10
788.204
 20
195.578
 11
787.844
 21
195.771
  0
LINE
  8
0
 10
787.844
 20
195.771
 11
787.529
 21
196.029
  0
LINE
  8
0
 10
787.529
 20
196.029
 11
787.271
 21
196.344
  0
LINE
  8
0
 10
787.271
 20
196.344
 11
787.078
 21
196.704
  0
LINE
  8
0
 10
787.078
 20
196.704
 11
786.96
 21
197.094
  0
LINE
  8
0
 10
786.96
 20
197.094
 11
786.92
 21
197.5
  0
LINE
  8
0
 10
786.92
 20
197.5
 11
786.96
 21
197.906
  0
LINE
  8
0
 10
786.96
 20
197.906
 11
787.078
 21
198.296
  0
LINE
  8
0
 10
787.078
 20
198.296
 11
787.271
 21
198.656
  0
LINE
  8
0
 10
787.271
 20
198.656
 11
787.529
 21
198.971
  0
LINE
  8
0
 10
787.529
 20
198.971
 11
787.844
 21
199.229
  0
LINE
  8
0
 10
787.844
 20
199.229
 11
788.204
 21
199.422
  0
LINE
  8
0
 10
788.204
 20
199.422
 11
788.594
 21
199.54
  0
LINE
  8
0
 10
788.594
 20
199.54
 11
789
 21
199.58
  0
LINE
  8
0
 10
789
 20
199.58
 11
789.406
 21
199.54
  0
LINE
  8
0
 10
789.406
 20
199.54
 11
789.796
 21
199.422
  0
LINE
  8
0
 10
789.796
 20
199.422
 11
790.156
 21
199.229
  0
LINE
  8
0
 10
790.156
 20
199.229
 11
790.471
 21
198.971
  0
LINE
  8
0
 10
790.471
 20
198.971
 11
790.729
 21
198.656
  0
LINE
  8
0
 10
790.729
 20
198.656
 11
790.922
 21
198.296
  0
LINE
  8
0
 10
790.922
 20
198.296
 11
791.04
 21
197.906
  0
LINE
  8
0
 10
791.04
 20
197.906
 11
791.08
 21
197.5
  0
LINE
  8
0
 10
791.08
 20
197.5
 11
791.04
 21
197.094
  0
LINE
  8
0
 10
791.04
 20
197.094
 11
790.922
 21
196.704
  0
LINE
  8
0
 10
790.922
 20
196.704
 11
790.729
 21
196.344
  0
LINE
  8
0
 10
790.729
 20
196.344
 11
790.471
 21
196.029
  0
LINE
  8
0
 10
790.471
 20
196.029
 11
790.156
 21
195.771
  0
LINE
  8
0
 10
790.156
 20
195.771
 11
789.796
 21
195.578
  0
LINE
  8
0
 10
789.796
 20
195.578
 11
789.406
 21
195.46
  0
LINE
  8
0
 10
789.406
 20
195.46
 11
789
 21
195.42
  0
LINE
  8
0
 10
-9
 20
195.42
 11
-9.40578
 21
195.46
  0
LINE
  8
0
 10
-9.40578
 20
195.46
 11
-9.79597
 21
195.578
  0
LINE
  8
0
 10
-9.79597
 20
195.578
 11
-10.1556
 21
195.771
  0
LINE
  8
0
 10
-10.1556
 20
195.771
 11
-10.4708
 21
196.029
  0
LINE
  8
0
 10
-10.4708
 20
196.029
 11
-10.7294
 21
196.344
  0
LINE
  8
0
 10
-10.7294
 20
196.344
 11
-10.9217
 21
196.704
  0
LINE
  8
0
 10
-10.9217
 20
196.704
 11
-11.04
 21
197.094
  0
LINE
  8
0
 10
-11.04
 20
197.094
 11
-11.08
 21
197.5
  0
LINE
  8
0
 10
-11.08
 20
197.5
 11
-11.04
 21
197.906
  0
LINE
  8
0
 10
-11.04
 20
197.906
 11
-10.9217
 21
198.296
  0
LINE
  8
0
 10
-10.9217
 20
198.296
 11
-10.7294
 21
198.656
  0
LINE
  8
0
 10
-10.7294
 20
198.656
 11
-10.4708
 21
198.971
  0
LINE
  8
0
 10
-10.4708
 20
198.971
 11
-10.1556
 21
199.229
  0
LINE
  8
0
 10
-10.1556
 20
199.229
 11
-9.79597
 21
199.422
  0
LINE
  8
0
 10
-9.79597
 20
199.422
 11
-9.40578
 21
199.54
  0
LINE
  8
0
 10
-9.40578
 20
199.54
 11
-9
 21
199.58
  0
LINE
  8
0
 10
-9
 20
199.58
 11
-8.59421
 21
199.54
  0
LINE
  8
0
 10
-8.59421
 20
199.54
 11
-8.20401
 21
199.422
  0
LINE
  8
0
 10
-8.20401
 20
199.422
 11
-7.84441
 21
199.229
  0
LINE
  8
0
 10
-7.84441
 20
199.229
 11
-7.52921
 21
198.971
  0
LINE
  8
0
 10
-7.52921
 20
198.971
 11
-7.27054
 21
198.656
  0
LINE
  8
0
 10
-7.27054
 20
198.656
 11
-7.07832
 21
198.296
  0
LINE
  8
0
 10
-7.07832
 20
198.296
 11
-6.95996
 21
197.906
  0
LINE
  8
0
 10
-6.95996
 20
197.906
 11
-6.92
 21
197.5
  0
LINE
  8
0
 10
-6.92
 20
197.5
 11
-6.95996
 21
197.094
  0
LINE
  8
0
 10
-6.95996
 20
197.094
 11
-7.07832
 21
196.704
  0
LINE
  8
0
 10
-7.07832
 20
196.704
 11
-7.27054
 21
196.344
  0
LINE
  8
0
 10
-7.27054
 20
196.344
 11
-7.52921
 21
196.029
  0
LINE
  8
0
 10
-7.52921
 20
196.029
 11
-7.84441
 21
195.771
  0
LINE
  8
0
 10
-7.84441
 20
195.771
 11
-8.20401
 21
195.578
  0
LINE
  8
0
 10
-8.20401
 20
195.578
 11
-8.59421
 21
195.46
  0
LINE
  8
0
 10
-8.59421
 20
195.46
 11
-9
 21
195.42
  0
LINE
  8
0
 10
-185.406
 20
158.96
 11
-185.796
 21
159.078
  0
LINE
  8
0
 10
-185.796
 20
159.078
 11
-186.156
 21
159.271
  0
LINE
  8
0
 10
-186.156
 20
159.271
 11
-186.471
 21
159.529
  0
LINE
  8
0
 10
-186.471
 20
159.529
 11
-186.729
 21
159.844
  0
LINE
  8
0
 10
-186.729
 20
159.844
 11
-186.922
 21
160.204
  0
LINE
  8
0
 10
-186.922
 20
160.204
 11
-187.04
 21
160.594
  0
LINE
  8
0
 10
-187.04
 20
160.594
 11
-187.08
 21
161
  0
LINE
  8
0
 10
-187.08
 20
161
 11
-187.04
 21
161.406
  0
LINE
  8
0
 10
-187.04
 20
161.406
 11
-186.922
 21
161.796
  0
LINE
  8
0
 10
-186.922
 20
161.796
 11
-186.729
 21
162.156
  0
LINE
  8
0
 10
-186.729
 20
162.156
 11
-186.471
 21
162.471
  0
LINE
  8
0
 10
-186.471
 20
162.471
 11
-186.156
 21
162.729
  0
LINE
  8
0
 10
-186.156
 20
162.729
 11
-185.796
 21
162.922
  0
LINE
  8
0
 10
-185.796
 20
162.922
 11
-185.406
 21
163.04
  0
LINE
  8
0
 10
-185.406
 20
163.04
 11
-185
 21
163.08
  0
LINE
  8
0
 10
-185
 20
163.08
 11
-184.594
 21
163.04
  0
LINE
  8
0
 10
-184.594
 20
163.04
 11
-184.204
 21
162.922
  0
LINE
  8
0
 10
-184.204
 20
162.922
 11
-183.844
 21
162.729
  0
LINE
  8
0
 10
-183.844
 20
162.729
 11
-183.529
 21
162.471
  0
LINE
  8
0
 10
-183.529
 20
162.471
 11
-183.271
 21
162.156
  0
LINE
  8
0
 10
-183.271
 20
162.156
 11
-183.078
 21
161.796
  0
LINE
  8
0
 10
-183.078
 20
161.796
 11
-182.96
 21
161.406
  0
LINE
  8
0
 10
-182.96
 20
161.406
 11
-182.92
 21
161
  0
LINE
  8
0
 10
-182.92
 20
161
 11
-182.96
 21
160.594
  0
LINE
  8
0
 10
-182.96
 20
160.594
 11
-183.078
 21
160.204
  0
LINE
  8
0
 10
-183.078
 20
160.204
 11
-183.271
 21
159.844
  0
LINE
  8
0
 10
-183.271
 20
159.844
 11
-183.529
 21
159.529
  0
LINE
  8
0
 10
-183.529
 20
159.529
 11
-183.844
 21
159.271
  0
LINE
  8
0
 10
-183.844
 20
159.271
 11
-184.204
 21
159.078
  0
LINE
  8
0
 10
-184.204
 20
159.078
 11
-184.594
 21
158.96
  0
LINE
  8
0
 10
-184.594
 20
158.96
 11
-185
 21
158.92
  0
LINE
  8
0
 10
-185
 20
158.92
 11
-185.406
 21
158.96
  0
LINE
  8
0
 10
-35
 20
158.92
 11
-35.4058
 21
158.96
  0
LINE
  8
0
 10
-35.4058
 20
158.96
 11
-35.796
 21
159.078
  0
LINE
  8
0
 10
-35.796
 20
159.078
 11
-36.1556
 21
159.271
  0
LINE
  8
0
 10
-36.1556
 20
159.271
 11
-36.4708
 21
159.529
  0
LINE
  8
0
 10
-36.4708
 20
159.529
 11
-36.7294
 21
159.844
  0
LINE
  8
0
 10
-36.7294
 20
159.844
 11
-36.9217
 21
160.204
  0
LINE
  8
0
 10
-36.9217
 20
160.204
 11
-37.04
 21
160.594
  0
LINE
  8
0
 10
-37.04
 20
160.594
 11
-37.08
 21
161
  0
LINE
  8
0
 10
-37.08
 20
161
 11
-37.04
 21
161.406
  0
LINE
  8
0
 10
-37.04
 20
161.406
 11
-36.9217
 21
161.796
  0
LINE
  8
0
 10
-36.9217
 20
161.796
 11
-36.7294
 21
162.156
  0
LINE
  8
0
 10
-36.7294
 20
162.156
 11
-36.4708
 21
162.471
  0
LINE
  8
0
 10
-36.4708
 20
162.471
 11
-36.1556
 21
162.729
  0
LINE
  8
0
 10
-36.1556
 20
162.729
 11
-35.796
 21
162.922
  0
LINE
  8
0
 10
-35.796
 20
162.922
 11
-35.4058
 21
163.04
  0
LINE
  8
0
 10
-35.4058
 20
163.04
 11
-35
 21
163.08
  0
LINE
  8
0
 10
-35
 20
163.08
 11
-34.5942
 21
163.04
  0
LINE
  8
0
 10
-34.5942
 20
163.04
 11
-34.204
 21
162.922
  0
LINE
  8
0
 10
-34.204
 20
162.922
 11
-33.8444
 21
162.729
  0
LINE
  8
0
 10
-33.8444
 20
162.729
 11
-33.5292
 21
162.471
  0
LINE
  8
0
 10
-33.5292
 20
162.471
 11
-33.2705
 21
162.156
  0
LINE
  8
0
 10
-33.2705
 20
162.156
 11
-33.0783
 21
161.796
  0
LINE
  8
0
 10
-33.0783
 20
161.796
 11
-32.96
 21
161.406
  0
LINE
  8
0
 10
-32.96
 20
161.406
 11
-32.92
 21
161
  0
LINE
  8
0
 10
-32.92
 20
161
 11
-32.96
 21
160.594
  0
LINE
  8
0
 10
-32.96
 20
160.594
 11
-33.0783
 21
160.204
  0
LINE
  8
0
 10
-33.0783
 20
160.204
 11
-33.2705
 21
159.844
  0
LINE
  8
0
 10
-33.2705
 20
159.844
 11
-33.5292
 21
159.529
  0
LINE
  8
0
 10
-33.5292
 20
159.529
 11
-33.8444
 21
159.271
  0
LINE
  8
0
 10
-33.8444
 20
159.271
 11
-34.204
 21
159.078
  0
LINE
  8
0
 10
-34.204
 20
159.078
 11
-34.5942
 21
158.96
  0
LINE
  8
0
 10
-34.5942
 20
158.96
 11
-35
 21
158.92
  0
LINE
  8
0
 10
789
 20
70.42
 11
788.594
 21
70.46
  0
LINE
  8
0
 10
788.594
 20
70.46
 11
788.204
 21
70.5783
  0
LINE
  8
0
 10
788.204
 20
70.5783
 11
787.844
 21
70.7705
  0
LINE
  8
0
 10
787.844
 20
70.7705
 11
787.529
 21
71.0292
  0
LINE
  8
0
 10
787.529
 20
71.0292
 11
787.271
 21
71.3444
  0
LINE
  8
0
 10
787.271
 20
71.3444
 11
787.078
 21
71.704
  0
LINE
  8
0
 10
787.078
 20
71.704
 11
786.96
 21
72.0942
  0
LINE
  8
0
 10
786.96
 20
72.0942
 11
786.92
 21
72.5
  0
LINE
  8
0
 10
786.92
 20
72.5
 11
786.96
 21
72.9058
  0
LINE
  8
0
 10
786.96
 20
72.9058
 11
787.078
 21
73.296
  0
LINE
  8
0
 10
787.078
 20
73.296
 11
787.271
 21
73.6556
  0
LINE
  8
0
 10
787.271
 20
73.6556
 11
787.529
 21
73.9708
  0
LINE
  8
0
 10
787.529
 20
73.9708
 11
787.844
 21
74.2294
  0
LINE
  8
0
 10
787.844
 20
74.2294
 11
788.204
 21
74.4217
  0
LINE
  8
0
 10
788.204
 20
74.4217
 11
788.594
 21
74.54
  0
LINE
  8
0
 10
788.594
 20
74.54
 11
789
 21
74.58
  0
LINE
  8
0
 10
789
 20
74.58
 11
789.406
 21
74.54
  0
LINE
  8
0
 10
789.406
 20
74.54
 11
789.796
 21
74.4217
  0
LINE
  8
0
 10
789.796
 20
74.4217
 11
790.156
 21
74.2294
  0
LINE
  8
0
 10
790.156
 20
74.2294
 11
790.471
 21
73.9708
  0
LINE
  8
0
 10
790.471
 20
73.9708
 11
790.729
 21
73.6556
  0
LINE
  8
0
 10
790.729
 20
73.6556
 11
790.922
 21
73.296
  0
LINE
  8
0
 10
790.922
 20
73.296
 11
791.04
 21
72.9058
  0
LINE
  8
0
 10
791.04
 20
72.9058
 11
791.08
 21
72.5
  0
LINE
  8
0
 10
791.08
 20
72.5
 11
791.04
 21
72.0942
  0
LINE
  8
0
 10
791.04
 20
72.0942
 11
790.922
 21
71.704
  0
LINE
  8
0
 10
790.922
 20
71.704
 11
790.729
 21
71.3444
  0
LINE
  8
0
 10
790.729
 20
71.3444
 11
790.471
 21
71.0292
  0
LINE
  8
0
 10
790.471
 20
71.0292
 11
790.156
 21
70.7705
  0
LINE
  8
0
 10
790.156
 20
70.7705
 11
789.796
 21
70.5783
  0
LINE
  8
0
 10
789.796
 20
70.5783
 11
789.406
 21
70.46
  0
LINE
  8
0
 10
789.406
 20
70.46
 11
789
 21
70.42
  0
LINE
  8
0
 10
-9
 20
70.42
 11
-9.40578
 21
70.46
  0
LINE
  8
0
 10
-9.40578
 20
70.46
 11
-9.79597
 21
70.5783
  0
LINE
  8
0
 10
-9.79597
 20
70.5783
 11
-10.1556
 21
70.7705
  0
LINE
  8
0
 10
-10.1556
 20
70.7705
 11
-10.4708
 21
71.0292
  0
LINE
  8
0
 10
-10.4708
 20
71.0292
 11
-10.7294
 21
71.3444
  0
LINE
  8
0
 10
-10.7294
 20
71.3444
 11
-10.9217
 21
71.704
  0
LINE
  8
0
 10
-10.9217
 20
71.704
 11
-11.04
 21
72.0942
  0
LINE
  8
0
 10
-11.04
 20
72.0942
 11
-11.08
 21
72.5
  0
LINE
  8
0
 10
-11.08
 20
72.5
 11
-11.04
 21
72.9058
  0
LINE
  8
0
 10
-11.04
 20
72.9058
 11
-10.9217
 21
73.296
  0
LINE
  8
0
 10
-10.9217
 20
73.296
 11
-10.7294
 21
73.6556
  0
LINE
  8
0
 10
-10.7294
 20
73.6556
 11
-10.4708
 21
73.9708
  0
LINE
  8
0
 10
-10.4708
 20
73.9708
 11
-10.1556
 21
74.2294
  0
LINE
  8
0
 10
-10.1556
 20
74.2294
 11
-9.79597
 21
74.4217
  0
LINE
  8
0
 10
-9.79597
 20
74.4217
 11
-9.40578
 21
74.54
  0
LINE
  8
0
 10
-9.40578
 20
74.54
 11
-9
 21
74.58
  0
LINE
  8
0
 10
-9
 20
74.58
 11
-8.59421
 21
74.54
  0
LINE
  8
0
 10
-8.59421
 20
74.54
 11
-8.20401
 21
74.4217
  0
LINE
  8
0
 10
-8.20401
 20
74.4217
 11
-7.84441
 21
74.2294
  0
LINE
  8
0
 10
-7.84441
 20
74.2294
 11
-7.52921
 21
73.9708
  0
LINE
  8
0
 10
-7.52921
 20
73.9708
 11
-7.27054
 21
73.6556
  0
LINE
  8
0
 10
-7.27054
 20
73.6556
 11
-7.07832
 21
73.296
  0
LINE
  8
0
 10
-7.07832
 20
73.296
 11
-6.95996
 21
72.9058
  0
LINE
  8
0
 10
-6.95996
 20
72.9058
 11
-6.92
 21
72.5
  0
LINE
  8
0
 10
-6.92
 20
72.5
 11
-6.95996
 21
72.0942
  0
LINE
  8
0
 10
-6.95996
 20
72.0942
 11
-7.07832
 21
71.704
  0
LINE
  8
0
 10
-7.07832
 20
71.704
 11
-7.27054
 21
71.3444
  0
LINE
  8
0
 10
-7.27054
 20
71.3444
 11
-7.52921
 21
71.0292
  0
LINE
  8
0
 10
-7.52921
 20
71.0292
 11
-7.84441
 21
70.7705
  0
LINE
  8
0
 10
-7.84441
 20
70.7705
 11
-8.20401
 21
70.5783
  0
LINE
  8
0
 10
-8.20401
 20
70.5783
 11
-8.59421
 21
70.46
  0
LINE
  8
0
 10
-8.59421
 20
70.46
 11
-9
 21
70.42
  0
LINE
  8
0
 10
789
 20
-74.58
 11
788.594
 21
-74.54
  0
LINE
  8
0
 10
788.594
 20
-74.54
 11
788.204
 21
-74.4217
  0
LINE
  8
0
 10
788.204
 20
-74.4217
 11
787.844
 21
-74.2294
  0
LINE
  8
0
 10
787.844
 20
-74.2294
 11
787.529
 21
-73.9708
  0
LINE
  8
0
 10
787.529
 20
-73.9708
 11
787.271
 21
-73.6556
  0
LINE
  8
0
 10
787.271
 20
-73.6556
 11
787.078
 21
-73.296
  0
LINE
  8
0
 10
787.078
 20
-73.296
 11
786.96
 21
-72.9058
  0
LINE
  8
0
 10
786.96
 20
-72.9058
 11
786.92
 21
-72.5
  0
LINE
  8
0
 10
786.92
 20
-72.5
 11
786.96
 21
-72.0942
  0
LINE
  8
0
 10
786.96
 20
-72.0942
 11
787.078
 21
-71.704
  0
LINE
  8
0
 10
787.078
 20
-71.704
 11
787.271
 21
-71.3444
  0
LINE
  8
0
 10
787.271
 20
-71.3444
 11
787.529
 21
-71.0292
  0
LINE
  8
0
 10
787.529
 20
-71.0292
 11
787.844
 21
-70.7705
  0
LINE
  8
0
 10
787.844
 20
-70.7705
 11
788.204
 21
-70.5783
  0
LINE
  8
0
 10
788.204
 20
-70.5783
 11
788.594
 21
-70.46
  0
LINE
  8
0
 10
788.594
 20
-70.46
 11
789
 21
-70.42
  0
LINE
  8
0
 10
789
 20
-70.42
 11
789.406
 21
-70.46
  0
LINE
  8
0
 10
789.406
 20
-70.46
 11
789.796
 21
-70.5783
  0
LINE
  8
0
 10
789.796
 20
-70.5783
 11
790.156
 21
-70.7705
  0
LINE
  8
0
 10
790.156
 20
-70.7705
 11
790.471
 21
-71.0292
  0
LINE
  8
0
 10
790.471
 20
-71.0292
 11
790.729
 21
-71.3444
  0
LINE
  8
0
 10
790.729
 20
-71.3444
 11
790.922
 21
-71.704
  0
LINE
  8
0
 10
790.922
 20
-71.704
 11
791.04
 21
-72.0942
  0
LINE
  8
0
 10
791.04
 20
-72.0942
 11
791.08
 21
-72.5
  0
LINE
  8
0
 10
791.08
 20
-72.5
 11
791.04
 21
-72.9058
  0
LINE
  8
0
 10
791.04
 20
-72.9058
 11
790.922
 21
-73.296
  0
LINE
  8
0
 10
790.922
 20
-73.296
 11
790.729
 21
-73.6556
  0
LINE
  8
0
 10
790.729
 20
-73.6556
 11
790.471
 21
-73.9708
  0
LINE
  8
0
 10
790.471
 20
-73.9708
 11
790.156
 21
-74.2294
  0
LINE
  8
0
 10
790.156
 20
-74.2294
 11
789.796
 21
-74.4217
  0
LINE
  8
0
 10
789.796
 20
-74.4217
 11
789.406
 21
-74.54
  0
LINE
  8
0
 10
789.406
 20
-74.54
 11
789
 21
-74.58
  0
LINE
  8
0
 10
-8.99998
 20
-74.58
 11
-9.40578
 21
-74.54
  0
LINE
  8
0
 10
-9.40578
 20
-74.54
 11
-9.79597
 21
-74.4217
  0
LINE
  8
0
 10
-9.79597
 20
-74.4217
 11
-10.1556
 21
-74.2294
  0
LINE
  8
0
 10
-10.1556
 20
-74.2294
 11
-10.4708
 21
-73.9708
  0
LINE
  8
0
 10
-10.4708
 20
-73.9708
 11
-10.7294
 21
-73.6556
  0
LINE
  8
0
 10
-10.7294
 20
-73.6556
 11
-10.9217
 21
-73.296
  0
LINE
  8
0
 10
-10.9217
 20
-73.296
 11
-11.04
 21
-72.9058
  0
LINE
  8
0
 10
-11.04
 20
-72.9058
 11
-11.08
 21
-72.5
  0
LINE
  8
0
 10
-11.08
 20
-72.5
 11
-11.04
 21
-72.0942
  0
LINE
  8
0
 10
-11.04
 20
-72.0942
 11
-10.9217
 21
-71.704
  0
LINE
  8
0
 10
-10.9217
 20
-71.704
 11
-10.7294
 21
-71.3444
  0
LINE
  8
0
 10
-10.7294
 20
-71.3444
 11
-10.4708
 21
-71.0292
  0
LINE
  8
0
 10
-10.4708
 20
-71.0292
 11
-10.1556
 21
-70.7705
  0
LINE
  8
0
 10
-10.1556
 20
-70.7705
 11
-9.79597
 21
-70.5783
  0
LINE
  8
0
 10
-9.79597
 20
-70.5783
 11
-9.40578
 21
-70.46
  0
LINE
  8
0
 10
-9.40578
 20
-70.46
 11
-9
 21
-70.42
  0
LINE
  8
0
 10
-9
 20
-70.42
 11
-8.59421
 21
-70.46
  0
LINE
  8
0
 10
-8.59421
 20
-70.46
 11
-8.20401
 21
-70.5783
  0
LINE
  8
0
 10
-8.20401
 20
-70.5783
 11
-7.84441
 21
-70.7705
  0
LINE
  8
0
 10
-7.84441
 20
-70.7705
 11
-7.52921
 21
-71.0292
  0
LINE
  8
0
 10
-7.52921
 20
-71.0292
 11
-7.27054
 21
-71.3444
  0
LINE
  8
0
 10
-7.27054
 20
-71.3444
 11
-7.07832
 21
-71.704
  0
LINE
  8
0
 10
-7.07832
 20
-71.704
 11
-6.95996
 21
-72.0942
  0
LINE
  8
0
 10
-6.95996
 20
-72.0942
 11
-6.92
 21
-72.5
  0
LINE
  8
0
 10
-6.92
 20
-72.5
 11
-6.95996
 21
-72.9058
  0
LINE
  8
0
 10
-6.95996
 20
-72.9058
 11
-7.07832
 21
-73.296
  0
LINE
  8
0
 10
-7.07832
 20
-73.296
 11
-7.27054
 21
-73.6556
  0
LINE
  8
0
 10
-7.27054
 20
-73.6556
 11
-7.52921
 21
-73.9708
  0
LINE
  8
0
 10
-7.52921
 20
-73.9708
 11
-7.84441
 21
-74.2294
  0
LINE
  8
0
 10
-7.84441
 20
-74.2294
 11
-8.20401
 21
-74.4217
  0
LINE
  8
0
 10
-8.20401
 20
-74.4217
 11
-8.59421
 21
-74.54
  0
LINE
  8
0
 10
-8.59421
 20
-74.54
 11
-8.99998
 21
-74.58
  0
LINE
  8
0
 10
-185.406
 20
-163.04
 11
-185.796
 21
-162.922
  0
LINE
  8
0
 10
-185.796
 20
-162.922
 11
-186.156
 21
-162.729
  0
LINE
  8
0
 10
-186.156
 20
-162.729
 11
-186.471
 21
-162.471
  0
LINE
  8
0
 10
-186.471
 20
-162.471
 11
-186.729
 21
-162.156
  0
LINE
  8
0
 10
-186.729
 20
-162.156
 11
-186.922
 21
-161.796
  0
LINE
  8
0
 10
-186.922
 20
-161.796
 11
-187.04
 21
-161.406
  0
LINE
  8
0
 10
-187.04
 20
-161.406
 11
-187.08
 21
-161
  0
LINE
  8
0
 10
-187.08
 20
-161
 11
-187.04
 21
-160.594
  0
LINE
  8
0
 10
-187.04
 20
-160.594
 11
-186.922
 21
-160.204
  0
LINE
  8
0
 10
-186.922
 20
-160.204
 11
-186.729
 21
-159.844
  0
LINE
  8
0
 10
-186.729
 20
-159.844
 11
-186.471
 21
-159.529
  0
LINE
  8
0
 10
-186.471
 20
-159.529
 11
-186.156
 21
-159.271
  0
LINE
  8
0
 10
-186.156
 20
-159.271
 11
-185.796
 21
-159.078
  0
LINE
  8
0
 10
-185.796
 20
-159.078
 11
-185.406
 21
-158.96
  0
LINE
  8
0
 10
-185.406
 20
-158.96
 11
-185
 21
-158.92
  0
LINE
  8
0
 10
-185
 20
-158.92
 11
-184.594
 21
-158.96
  0
LINE
  8
0
 10
-184.594
 20
-158.96
 11
-184.204
 21
-159.078
  0
LINE
  8
0
 10
-184.204
 20
-159.078
 11
-183.844
 21
-159.271
  0
LINE
  8
0
 10
-183.844
 20
-159.271
 11
-183.529
 21
-159.529
  0
LINE
  8
0
 10
-183.529
 20
-159.529
 11
-183.271
 21
-159.844
  0
LINE
  8
0
 10
-183.271
 20
-159.844
 11
-183.078
 21
-160.204
  0
LINE
  8
0
 10
-183.078
 20
-160.204
 11
-182.96
 21
-160.594
  0
LINE
  8
0
 10
-182.96
 20
-160.594
 11
-182.92
 21
-161
  0
LINE
  8
0
 10
-182.92
 20
-161
 11
-182.96
 21
-161.406
  0
LINE
  8
0
 10
-182.96
 20
-161.406
 11
-183.078
 21
-161.796
  0
LINE
  8
0
 10
-183.078
 20
-161.796
 11
-183.271
 21
-162.156
  0
LINE
  8
0
 10
-183.271
 20
-162.156
 11
-183.529
 21
-162.471
  0
LINE
  8
0
 10
-183.529
 20
-162.471
 11
-183.844
 21
-162.729
  0
LINE
  8
0
 10
-183.844
 20
-162.729
 11
-184.204
 21
-162.922
  0
LINE
  8
0
 10
-184.204
 20
-162.922
 11
-184.594
 21
-163.04
  0
LINE
  8
0
 10
-184.594
 20
-163.04
 11
-185
 21
-163.08
  0
LINE
  8
0
 10
-185
 20
-163.08
 11
-185.406
 21
-163.04
  0
LINE
  8
0
 10
-35
 20
-163.08
 11
-35.4058
 21
-163.04
  0
LINE
  8
0
 10
-35.4058
 20
-163.04
 11
-35.796
 21
-162.922
  0
LINE
  8
0
 10
-35.796
 20
-162.922
 11
-36.1556
 21
-162.729
  0
LINE
  8
0
 10
-36.1556
 20
-162.729
 11
-36.4708
 21
-162.471
  0
LINE
  8
0
 10
-36.4708
 20
-162.471
 11
-36.7294
 21
-162.156
  0
LINE
  8
0
 10
-36.7294
 20
-162.156
 11
-36.9217
 21
-161.796
  0
LINE
  8
0
 10
-36.9217
 20
-161.796
 11
-37.04
 21
-161.406
  0
LINE
  8
0
 10
-37.04
 20
-161.406
 11
-37.08
 21
-161
  0
LINE
  8
0
 10
-37.08
 20
-161
 11
-37.04
 21
-160.594
  0
LINE
  8
0
 10
-37.04
 20
-160.594
 11
-36.9217
 21
-160.204
  0
LINE
  8
0
 10
-36.9217
 20
-160.204
 11
-36.7294
 21
-159.844
  0
LINE
  8
0
 10
-36.7294
 20
-159.844
 11
-36.4708
 21
-159.529
  0
LINE
  8
0
 10
-36.4708
 20
-159.529
 11
-36.1556
 21
-159.271
  0
LINE
  8
0
 10
-36.1556
 20
-159.271
 11
-35.796
 21
-159.078
  0
LINE
  8
0
 10
-35.796
 20
-159.078
 11
-35.4058
 21
-158.96
  0
LINE
  8
0
 10
-35.4058
 20
-158.96
 11
-35
 21
-158.92
  0
LINE
  8
0
 10
-35
 20
-158.92
 11
-34.5942
 21
-158.96
  0
LINE
  8
0
 10
-34.5942
 20
-158.96
 11
-34.204
 21
-159.078
  0
LINE
  8
0
 10
-34.204
 20
-159.078
 11
-33.8444
 21
-159.271
  0
LINE
  8
0
 10
-33.8444
 20
-159.271
 11
-33.5292
 21
-159.529
  0
LINE
  8
0
 10
-33.5292
 20
-159.529
 11
-33.2705
 21
-159.844
  0
LINE
  8
0
 10
-33.2705
 20
-159.844
 11
-33.0783
 21
-160.204
  0
LINE
  8
0
 10
-33.0783
 20
-160.204
 11
-32.96
 21
-160.594
  0
LINE
  8
0
 10
-32.96
 20
-160.594
 11
-32.92
 21
-161
  0
LINE
  8
0
 10
-32.92
 20
-161
 11
-32.96
 21
-161.406
  0
LINE
  8
0
 10
-32.96
 20
-161.406
 11
-33.0783
 21
-161.796
  0
LINE
  8
0
 10
-33.0783
 20
-161.796
 11
-33.2705
 21
-162.156
  0
LINE
  8
0
 10
-33.2705
 20
-162.156
 11
-33.5292
 21
-162.471
  0
LINE
  8
0
 10
-33.5292
 20
-162.471
 11
-33.8444
 21
-162.729
  0
LINE
  8
0
 10
-33.8444
 20
-162.729
 11
-34.204
 21
-162.922
  0
LINE
  8
0
 10
-34.204
 20
-162.922
 11
-34.5942
 21
-163.04
  0
LINE
  8
0
 10
-34.5942
 20
-163.04
 11
-35
 21
-163.08
  0
LINE
  8
0
 10
-9
 20
-199.58
 11
-9.40578
 21
-199.54
  0
LINE
  8
0
 10
-9.40578
 20
-199.54
 11
-9.79597
 21
-199.422
  0
LINE
  8
0
 10
-9.79597
 20
-199.422
 11
-10.1556
 21
-199.229
  0
LINE
  8
0
 10
-10.1556
 20
-199.229
 11
-10.4708
 21
-198.971
  0
LINE
  8
0
 10
-10.4708
 20
-198.971
 11
-10.7294
 21
-198.656
  0
LINE
  8
0
 10
-10.7294
 20
-198.656
 11
-10.9217
 21
-198.296
  0
LINE
  8
0
 10
-10.9217
 20
-198.296
 11
-11.04
 21
-197.906
  0
LINE
  8
0
 10
-11.04
 20
-197.906
 11
-11.08
 21
-197.5
  0
LINE
  8
0
 10
-11.08
 20
-197.5
 11
-11.04
 21
-197.094
  0
LINE
  8
0
 10
-11.04
 20
-197.094
 11
-10.9217
 21
-196.704
  0
LINE
  8
0
 10
-10.9217
 20
-196.704
 11
-10.7294
 21
-196.344
  0
LINE
  8
0
 10
-10.7294
 20
-196.344
 11
-10.4708
 21
-196.029
  0
LINE
  8
0
 10
-10.4708
 20
-196.029
 11
-10.1556
 21
-195.771
  0
LINE
  8
0
 10
-10.1556
 20
-195.771
 11
-9.79597
 21
-195.578
  0
LINE
  8
0
 10
-9.79597
 20
-195.578
 11
-9.40578
 21
-195.46
  0
LINE
  8
0
 10
-9.40578
 20
-195.46
 11
-9
 21
-195.42
  0
LINE
  8
0
 10
-9
 20
-195.42
 11
-8.59421
 21
-195.46
  0
LINE
  8
0
 10
-8.59421
 20
-195.46
 11
-8.20401
 21
-195.578
  0
LINE
  8
0
 10
-8.20401
 20
-195.578
 11
-7.84441
 21
-195.771
  0
LINE
  8
0
 10
-7.84441
 20
-195.771
 11
-7.52921
 21
-196.029
  0
LINE
  8
0
 10
-7.52921
 20
-196.029
 11
-7.27054
 21
-196.344
  0
LINE
  8
0
 10
-7.27054
 20
-196.344
 11
-7.07832
 21
-196.704
  0
LINE
  8
0
 10
-7.07832
 20
-196.704
 11
-6.95996
 21
-197.094
  0
LINE
  8
0
 10
-6.95996
 20
-197.094
 11
-6.92
 21
-197.5
  0
LINE
  8
0
 10
-6.92
 20
-197.5
 11
-6.95996
 21
-197.906
  0
LINE
  8
0
 10
-6.95996
 20
-197.906
 11
-7.07832
 21
-198.296
  0
LINE
  8
0
 10
-7.07832
 20
-198.296
 11
-7.27054
 21
-198.656
  0
LINE
  8
0
 10
-7.27054
 20
-198.656
 11
-7.52921
 21
-198.971
  0
LINE
  8
0
 10
-7.52921
 20
-198.971
 11
-7.84441
 21
-199.229
  0
LINE
  8
0
 10
-7.84441
 20
-199.229
 11
-8.20401
 21
-199.422
  0
LINE
  8
0
 10
-8.20401
 20
-199.422
 11
-8.59421
 21
-199.54
  0
LINE
  8
0
 10
-8.59421
 20
-199.54
 11
-9
 21
-199.58
  0
LINE
  8
0
 10
789
 20
-199.58
 11
788.594
 21
-199.54
  0
LINE
  8
0
 10
788.594
 20
-199.54
 11
788.204
 21
-199.422
  0
LINE
  8
0
 10
788.204
 20
-199.422
 11
787.844
 21
-199.229
  0
LINE
  8
0
 10
787.844
 20
-199.229
 11
787.529
 21
-198.971
  0
LINE
  8
0
 10
787.529
 20
-198.971
 11
787.271
 21
-198.656
  0
LINE
  8
0
 10
787.271
 20
-198.656
 11
787.078
 21
-198.296
  0
LINE
  8
0
 10
787.078
 20
-198.296
 11
786.96
 21
-197.906
  0
LINE
  8
0
 10
786.96
 20
-197.906
 11
786.92
 21
-197.5
  0
LINE
  8
0
 10
786.92
 20
-197.5
 11
786.96
 21
-197.094
  0
LINE
  8
0
 10
786.96
 20
-197.094
 11
787.078
 21
-196.704
  0
LINE
  8
0
 10
787.078
 20
-196.704
 11
787.271
 21
-196.344
  0
LINE
  8
0
 10
787.271
 20
-196.344
 11
787.529
 21
-196.029
  0
LINE
  8
0
 10
787.529
 20
-196.029
 11
787.844
 21
-195.771
  0
LINE
  8
0
 10
787.844
 20
-195.771
 11
788.204
 21
-195.578
  0
LINE
  8
0
 10
788.204
 20
-195.578
 11
788.594
 21
-195.46
  0
LINE
  8
0
 10
788.594
 20
-195.46
 11
789
 21
-195.42
  0
LINE
  8
0
 10
789
 20
-195.42
 11
789.406
 21
-195.46
  0
LINE
  8
0
 10
789.406
 20
-195.46
 11
789.796
 21
-195.578
  0
LINE
  8
0
 10
789.796
 20
-195.578
 11
790.156
 21
-195.771
  0
LINE
  8
0
 10
790.156
 20
-195.771
 11
790.471
 21
-196.029
  0
LINE
  8
0
 10
790.471
 20
-196.029
 11
790.729
 21
-196.344
  0
LINE
  8
0
 10
790.729
 20
-196.344
 11
790.922
 21
-196.704
  0
LINE
  8
0
 10
790.922
 20
-196.704
 11
791.04
 21
-197.094
  0
LINE
  8
0
 10
791.04
 20
-197.094
 11
791.08
 21
-197.5
  0
LINE
  8
0
 10
791.08
 20
-197.5
 11
791.04
 21
-197.906
  0
LINE
  8
0
 10
791.04
 20
-197.906
 11
790.922
 21
-198.296
  0
LINE
  8
0
 10
790.922
 20
-198.296
 11
790.729
 21
-198.656
  0
LINE
  8
0
 10
790.729
 20
-198.656
 11
790.471
 21
-198.971
  0
LINE
  8
0
 10
790.471
 20
-198.971
 11
790.156
 21
-199.229
  0
LINE
  8
0
 10
790.156
 20
-199.229
 11
789.796
 21
-199.422
  0
LINE
  8
0
 10
789.796
 20
-199.422
 11
789.406
 21
-199.54
  0
LINE
  8
0
 10
789.406
 20
-199.54
 11
789
 21
-199.58
  0
ENDSEC
  0
SECTION
  2
OBJECTS
  0
DICTIONARY
  0
ENDSEC
  0
EOF
