  0
SECTION
  2
BLOCKS
  0
ENDSEC
  0
SECTION
  2
ENTITIES
  0
LINE
  8
0
 10
270
 20
-10.3463
 11
270
 21
243
  0
LINE
  8
0
 10
270
 20
243
 11
-270
 21
243
  0
LINE
  8
0
 10
-270
 20
243
 11
-270
 21
-10.3463
  0
LINE
  8
0
 10
-270
 20
-10.3463
 11
-144.915
 21
-227
  0
LINE
  8
0
 10
-144.915
 20
-227
 11
144.915
 21
-227
  0
LINE
  8
0
 10
144.915
 20
-227
 11
270
 21
-10.3463
  0
LINE
  8
0
 10
-4.40514
 20
133.854
 11
-8.64099
 21
135.139
  0
LINE
  8
0
 10
-8.64099
 20
135.139
 11
-12.5448
 21
137.225
  0
LINE
  8
0
 10
-12.5448
 20
137.225
 11
-15.9665
 21
140.034
  0
LINE
  8
0
 10
-15.9665
 20
140.034
 11
-18.7746
 21
143.455
  0
LINE
  8
0
 10
-18.7746
 20
143.455
 11
-20.8612
 21
147.359
  0
LINE
  8
0
 10
-20.8612
 20
147.359
 11
-22.1461
 21
151.595
  0
LINE
  8
0
 10
-22.1461
 20
151.595
 11
-22.58
 21
156
  0
LINE
  8
0
 10
-22.58
 20
156
 11
-22.1461
 21
160.405
  0
LINE
  8
0
 10
-22.1461
 20
160.405
 11
-20.8612
 21
164.641
  0
LINE
  8
0
 10
-20.8612
 20
164.641
 11
-18.7746
 21
168.545
  0
LINE
  8
0
 10
-18.7746
 20
168.545
 11
-15.9665
 21
171.966
  0
LINE
  8
0
 10
-15.9665
 20
171.966
 11
-12.5448
 21
174.775
  0
LINE
  8
0
 10
-12.5448
 20
174.775
 11
-8.64099
 21
176.861
  0
LINE
  8
0
 10
-8.64099
 20
176.861
 11
-4.40514
 21
178.146
  0
LINE
  8
0
 10
-4.40514
 20
178.146
 11
0
 21
178.58
  0
LINE
  8
0
 10
0
 20
178.58
 11
4.40514
 21
178.146
  0
LINE
  8
0
 10
4.40514
 20
178.146
 11
8.64099
 21
176.861
  0
LINE
  8
0
 10
8.64099
 20
176.861
 11
12.5448
 21
174.775
  0
LINE
  8
0
 10
12.5448
 20
174.775
 11
15.9665
 21
171.966
  0
LINE
  8
0
 10
15.9665
 20
171.966
 11
18.7746
 21
168.545
  0
LINE
  8
0
 10
18.7746
 20
168.545
 11
20.8612
 21
164.641
  0
LINE
  8
0
 10
20.8612
 20
164.641
 11
22.1461
 21
160.405
  0
LINE
  8
0
 10
22.1461
 20
160.405
 11
22.58
 21
156
  0
LINE
  8
0
 10
22.58
 20
156
 11
22.1461
 21
151.595
  0
LINE
  8
0
 10
22.1461
 20
151.595
 11
20.8612
 21
147.359
  0
LINE
  8
0
 10
20.8612
 20
147.359
 11
18.7746
 21
143.455
  0
LINE
  8
0
 10
18.7746
 20
143.455
 11
15.9665
 21
140.034
  0
LINE
  8
0
 10
15.9665
 20
140.034
 11
12.5448
 21
137.225
  0
LINE
  8
0
 10
12.5448
 20
137.225
 11
8.64099
 21
135.139
  0
LINE
  8
0
 10
8.64099
 20
135.139
 11
4.40514
 21
133.854
  0
LINE
  8
0
 10
4.40514
 20
133.854
 11
0
 21
133.42
  0
LINE
  8
0
 10
0
 20
133.42
 11
-4.40514
 21
133.854
  0
LINE
  8
0
 10
-140.944
 20
-99.8106
 11
-145.087
 21
-98.2514
  0
LINE
  8
0
 10
-145.087
 20
-98.2514
 11
-148.846
 21
-95.9139
  0
LINE
  8
0
 10
-148.846
 20
-95.9139
 11
-152.077
 21
-92.888
  0
LINE
  8
0
 10
-152.077
 20
-92.888
 11
-154.655
 21
-89.29
  0
LINE
  8
0
 10
-154.655
 20
-89.29
 11
-156.482
 21
-85.2581
  0
LINE
  8
0
 10
-156.482
 20
-85.2581
 11
-157.487
 21
-80.9473
  0
LINE
  8
0
 10
-157.487
 20
-80.9473
 11
-157.632
 21
-76.5232
  0
LINE
  8
0
 10
-157.632
 20
-76.5232
 11
-156.911
 21
-72.1559
  0
LINE
  8
0
 10
-156.911
 20
-72.1559
 11
-155.351
 21
-68.0131
  0
LINE
  8
0
 10
-155.351
 20
-68.0131
 11
-153.014
 21
-64.2542
  0
LINE
  8
0
 10
-153.014
 20
-64.2542
 11
-149.988
 21
-61.0235
  0
LINE
  8
0
 10
-149.988
 20
-61.0235
 11
-146.39
 21
-58.4451
  0
LINE
  8
0
 10
-146.39
 20
-58.4451
 11
-142.358
 21
-56.6183
  0
LINE
  8
0
 10
-142.358
 20
-56.6183
 11
-138.047
 21
-55.6132
  0
LINE
  8
0
 10
-138.047
 20
-55.6132
 11
-133.623
 21
-55.4683
  0
LINE
  8
0
 10
-133.623
 20
-55.4683
 11
-129.256
 21
-56.1894
  0
LINE
  8
0
 10
-129.256
 20
-56.1894
 11
-125.113
 21
-57.7486
  0
LINE
  8
0
 10
-125.113
 20
-57.7486
 11
-121.354
 21
-60.0861
  0
LINE
  8
0
 10
-121.354
 20
-60.0861
 11
-118.123
 21
-63.112
  0
LINE
  8
0
 10
-118.123
 20
-63.112
 11
-115.545
 21
-66.71
  0
LINE
  8
0
 10
-115.545
 20
-66.71
 11
-113.718
 21
-70.7419
  0
LINE
  8
0
 10
-113.718
 20
-70.7419
 11
-112.713
 21
-75.0527
  0
LINE
  8
0
 10
-112.713
 20
-75.0527
 11
-112.568
 21
-79.4768
  0
LINE
  8
0
 10
-112.568
 20
-79.4768
 11
-113.289
 21
-83.8441
  0
LINE
  8
0
 10
-113.289
 20
-83.8441
 11
-114.849
 21
-87.9869
  0
LINE
  8
0
 10
-114.849
 20
-87.9869
 11
-117.186
 21
-91.7458
  0
LINE
  8
0
 10
-117.186
 20
-91.7458
 11
-120.212
 21
-94.9765
  0
LINE
  8
0
 10
-120.212
 20
-94.9765
 11
-123.81
 21
-97.5549
  0
LINE
  8
0
 10
-123.81
 20
-97.5549
 11
-127.842
 21
-99.3817
  0
LINE
  8
0
 10
-127.842
 20
-99.3817
 11
-132.153
 21
-100.387
  0
LINE
  8
0
 10
-132.153
 20
-100.387
 11
-136.577
 21
-100.532
  0
LINE
  8
0
 10
-136.577
 20
-100.532
 11
-140.944
 21
-99.8106
  0
LINE
  8
0
 10
132.153
 20
-100.387
 11
127.842
 21
-99.3817
  0
LINE
  8
0
 10
127.842
 20
-99.3817
 11
123.81
 21
-97.5549
  0
LINE
  8
0
 10
123.81
 20
-97.5549
 11
120.212
 21
-94.9765
  0
LINE
  8
0
 10
120.212
 20
-94.9765
 11
117.186
 21
-91.7458
  0
LINE
  8
0
 10
117.186
 20
-91.7458
 11
114.849
 21
-87.9869
  0
LINE
  8
0
 10
114.849
 20
-87.9869
 11
113.289
 21
-83.8441
  0
LINE
  8
0
 10
113.289
 20
-83.8441
 11
112.568
 21
-79.4768
  0
LINE
  8
0
 10
112.568
 20
-79.4768
 11
112.713
 21
-75.0527
  0
LINE
  8
0
 10
112.713
 20
-75.0527
 11
113.718
 21
-70.7419
  0
LINE
  8
0
 10
113.718
 20
-70.7419
 11
115.545
 21
-66.71
  0
LINE
  8
0
 10
115.545
 20
-66.71
 11
118.123
 21
-63.112
  0
LINE
  8
0
 10
118.123
 20
-63.112
 11
121.354
 21
-60.0861
  0
LINE
  8
0
 10
121.354
 20
-60.0861
 11
125.113
 21
-57.7486
  0
LINE
  8
0
 10
125.113
 20
-57.7486
 11
129.256
 21
-56.1894
  0
LINE
  8
0
 10
129.256
 20
-56.1894
 11
133.623
 21
-55.4683
  0
LINE
  8
0
 10
133.623
 20
-55.4683
 11
138.047
 21
-55.6132
  0
LINE
  8
0
 10
138.047
 20
-55.6132
 11
142.358
 21
-56.6183
  0
LINE
  8
0
 10
142.358
 20
-56.6183
 11
146.39
 21
-58.4451
  0
LINE
  8
0
 10
146.39
 20
-58.4451
 11
149.988
 21
-61.0235
  0
LINE
  8
0
 10
149.988
 20
-61.0235
 11
153.014
 21
-64.2542
  0
LINE
  8
0
 10
153.014
 20
-64.2542
 11
155.351
 21
-68.0131
  0
LINE
  8
0
 10
155.351
 20
-68.0131
 11
156.911
 21
-72.1559
  0
LINE
  8
0
 10
156.911
 20
-72.1559
 11
157.632
 21
-76.5232
  0
LINE
  8
0
 10
157.632
 20
-76.5232
 11
157.487
 21
-80.9473
  0
LINE
  8
0
 10
157.487
 20
-80.9473
 11
156.482
 21
-85.2581
  0
LINE
  8
0
 10
156.482
 20
-85.2581
 11
154.655
 21
-89.29
  0
LINE
  8
0
 10
154.655
 20
-89.29
 11
152.077
 21
-92.888
  0
LINE
  8
0
 10
152.077
 20
-92.888
 11
148.846
 21
-95.9139
  0
LINE
  8
0
 10
148.846
 20
-95.9139
 11
145.087
 21
-98.2514
  0
LINE
  8
0
 10
145.087
 20
-98.2514
 11
140.944
 21
-99.8106
  0
LINE
  8
0
 10
140.944
 20
-99.8106
 11
136.577
 21
-100.532
  0
LINE
  8
0
 10
136.577
 20
-100.532
 11
132.153
 21
-100.387
  0
ENDSEC
  0
SECTION
  2
OBJECTS
  0
DICTIONARY
  0
ENDSEC
  0
EOF
