  0
SECTION
  2
BLOCKS
  0
ENDSEC
  0
SECTION
  2
ENTITIES
  0
LINE
  8
0
 10
858
 20
129.619
 11
798
 21
129.619
  0
LINE
  8
0
 10
798
 20
129.619
 11
798
 21
-129.619
  0
LINE
  8
0
 10
798
 20
-129.619
 11
858
 21
-129.619
  0
LINE
  8
0
 10
858
 20
-129.619
 11
858
 21
129.619
  0
LINE
  8
0
 10
260
 20
129.619
 11
0
 21
129.619
  0
LINE
  8
0
 10
0
 20
129.619
 11
0
 21
-129.619
  0
LINE
  8
0
 10
0
 20
-129.619
 11
260
 21
-129.619
  0
LINE
  8
0
 10
260
 20
-129.619
 11
260
 21
129.619
  0
LINE
  8
0
 10
780
 20
129.619
 11
265
 21
129.619
  0
LINE
  8
0
 10
265
 20
129.619
 11
265
 21
-129.619
  0
LINE
  8
0
 10
265
 20
-129.619
 11
780
 21
-129.619
  0
LINE
  8
0
 10
780
 20
-129.619
 11
780
 21
129.619
  0
LINE
  8
0
 10
582.181
 20
-24.3099
 11
574.662
 21
-22.0291
  0
LINE
  8
0
 10
574.662
 20
-22.0291
 11
567.733
 21
-18.3253
  0
LINE
  8
0
 10
567.733
 20
-18.3253
 11
561.659
 21
-13.3408
  0
LINE
  8
0
 10
561.659
 20
-13.3408
 11
556.675
 21
-7.26724
  0
LINE
  8
0
 10
556.675
 20
-7.26724
 11
552.971
 21
-0.337952
  0
LINE
  8
0
 10
552.971
 20
-0.337952
 11
550.69
 21
7.18077
  0
LINE
  8
0
 10
550.69
 20
7.18077
 11
549.92
 21
15
  0
LINE
  8
0
 10
549.92
 20
15
 11
550.69
 21
22.8192
  0
LINE
  8
0
 10
550.69
 20
22.8192
 11
552.971
 21
30.338
  0
LINE
  8
0
 10
552.971
 20
30.338
 11
556.675
 21
37.2672
  0
LINE
  8
0
 10
556.675
 20
37.2672
 11
561.659
 21
43.3408
  0
LINE
  8
0
 10
561.659
 20
43.3408
 11
567.733
 21
48.3253
  0
LINE
  8
0
 10
567.733
 20
48.3253
 11
574.662
 21
52.0291
  0
LINE
  8
0
 10
574.662
 20
52.0291
 11
582.181
 21
54.3099
  0
LINE
  8
0
 10
582.181
 20
54.3099
 11
590
 21
55.08
  0
LINE
  8
0
 10
590
 20
55.08
 11
597.819
 21
54.3099
  0
LINE
  8
0
 10
597.819
 20
54.3099
 11
605.338
 21
52.0291
  0
LINE
  8
0
 10
605.338
 20
52.0291
 11
612.267
 21
48.3253
  0
LINE
  8
0
 10
612.267
 20
48.3253
 11
618.341
 21
43.3408
  0
LINE
  8
0
 10
618.341
 20
43.3408
 11
623.325
 21
37.2672
  0
LINE
  8
0
 10
623.325
 20
37.2672
 11
627.029
 21
30.338
  0
LINE
  8
0
 10
627.029
 20
30.338
 11
629.31
 21
22.8192
  0
LINE
  8
0
 10
629.31
 20
22.8192
 11
630.08
 21
15
  0
LINE
  8
0
 10
630.08
 20
15
 11
629.31
 21
7.18077
  0
LINE
  8
0
 10
629.31
 20
7.18077
 11
627.029
 21
-0.337952
  0
LINE
  8
0
 10
627.029
 20
-0.337952
 11
623.325
 21
-7.26724
  0
LINE
  8
0
 10
623.325
 20
-7.26724
 11
618.341
 21
-13.3408
  0
LINE
  8
0
 10
618.341
 20
-13.3408
 11
612.267
 21
-18.3253
  0
LINE
  8
0
 10
612.267
 20
-18.3253
 11
605.338
 21
-22.0291
  0
LINE
  8
0
 10
605.338
 20
-22.0291
 11
597.819
 21
-24.3099
  0
LINE
  8
0
 10
597.819
 20
-24.3099
 11
590
 21
-25.08
  0
LINE
  8
0
 10
590
 20
-25.08
 11
582.181
 21
-24.3099
  0
LINE
  8
0
 10
554.25
 20
48.67
 11
553.844
 21
48.71
  0
LINE
  8
0
 10
553.844
 20
48.71
 11
553.454
 21
48.8283
  0
LINE
  8
0
 10
553.454
 20
48.8283
 11
553.094
 21
49.0205
  0
LINE
  8
0
 10
553.094
 20
49.0205
 11
552.779
 21
49.2792
  0
LINE
  8
0
 10
552.779
 20
49.2792
 11
552.521
 21
49.5944
  0
LINE
  8
0
 10
552.521
 20
49.5944
 11
552.328
 21
49.954
  0
LINE
  8
0
 10
552.328
 20
49.954
 11
552.21
 21
50.3442
  0
LINE
  8
0
 10
552.21
 20
50.3442
 11
552.17
 21
50.75
  0
LINE
  8
0
 10
552.17
 20
50.75
 11
552.21
 21
51.1558
  0
LINE
  8
0
 10
552.21
 20
51.1558
 11
552.328
 21
51.546
  0
LINE
  8
0
 10
552.328
 20
51.546
 11
552.521
 21
51.9056
  0
LINE
  8
0
 10
552.521
 20
51.9056
 11
552.779
 21
52.2208
  0
LINE
  8
0
 10
552.779
 20
52.2208
 11
553.094
 21
52.4794
  0
LINE
  8
0
 10
553.094
 20
52.4794
 11
553.454
 21
52.6717
  0
LINE
  8
0
 10
553.454
 20
52.6717
 11
553.844
 21
52.79
  0
LINE
  8
0
 10
553.844
 20
52.79
 11
554.25
 21
52.83
  0
LINE
  8
0
 10
554.25
 20
52.83
 11
554.656
 21
52.79
  0
LINE
  8
0
 10
554.656
 20
52.79
 11
555.046
 21
52.6717
  0
LINE
  8
0
 10
555.046
 20
52.6717
 11
555.406
 21
52.4794
  0
LINE
  8
0
 10
555.406
 20
52.4794
 11
555.721
 21
52.2208
  0
LINE
  8
0
 10
555.721
 20
52.2208
 11
555.979
 21
51.9056
  0
LINE
  8
0
 10
555.979
 20
51.9056
 11
556.172
 21
51.546
  0
LINE
  8
0
 10
556.172
 20
51.546
 11
556.29
 21
51.1558
  0
LINE
  8
0
 10
556.29
 20
51.1558
 11
556.33
 21
50.75
  0
LINE
  8
0
 10
556.33
 20
50.75
 11
556.29
 21
50.3442
  0
LINE
  8
0
 10
556.29
 20
50.3442
 11
556.172
 21
49.954
  0
LINE
  8
0
 10
556.172
 20
49.954
 11
555.979
 21
49.5944
  0
LINE
  8
0
 10
555.979
 20
49.5944
 11
555.721
 21
49.2792
  0
LINE
  8
0
 10
555.721
 20
49.2792
 11
555.406
 21
49.0205
  0
LINE
  8
0
 10
555.406
 20
49.0205
 11
555.046
 21
48.8283
  0
LINE
  8
0
 10
555.046
 20
48.8283
 11
554.656
 21
48.71
  0
LINE
  8
0
 10
554.656
 20
48.71
 11
554.25
 21
48.67
  0
LINE
  8
0
 10
625.75
 20
48.67
 11
625.344
 21
48.71
  0
LINE
  8
0
 10
625.344
 20
48.71
 11
624.954
 21
48.8283
  0
LINE
  8
0
 10
624.954
 20
48.8283
 11
624.594
 21
49.0205
  0
LINE
  8
0
 10
624.594
 20
49.0205
 11
624.279
 21
49.2792
  0
LINE
  8
0
 10
624.279
 20
49.2792
 11
624.021
 21
49.5944
  0
LINE
  8
0
 10
624.021
 20
49.5944
 11
623.828
 21
49.954
  0
LINE
  8
0
 10
623.828
 20
49.954
 11
623.71
 21
50.3442
  0
LINE
  8
0
 10
623.71
 20
50.3442
 11
623.67
 21
50.75
  0
LINE
  8
0
 10
623.67
 20
50.75
 11
623.71
 21
51.1558
  0
LINE
  8
0
 10
623.71
 20
51.1558
 11
623.828
 21
51.546
  0
LINE
  8
0
 10
623.828
 20
51.546
 11
624.021
 21
51.9056
  0
LINE
  8
0
 10
624.021
 20
51.9056
 11
624.279
 21
52.2208
  0
LINE
  8
0
 10
624.279
 20
52.2208
 11
624.594
 21
52.4794
  0
LINE
  8
0
 10
624.594
 20
52.4794
 11
624.954
 21
52.6717
  0
LINE
  8
0
 10
624.954
 20
52.6717
 11
625.344
 21
52.79
  0
LINE
  8
0
 10
625.344
 20
52.79
 11
625.75
 21
52.83
  0
LINE
  8
0
 10
625.75
 20
52.83
 11
626.156
 21
52.79
  0
LINE
  8
0
 10
626.156
 20
52.79
 11
626.546
 21
52.6717
  0
LINE
  8
0
 10
626.546
 20
52.6717
 11
626.906
 21
52.4794
  0
LINE
  8
0
 10
626.906
 20
52.4794
 11
627.221
 21
52.2208
  0
LINE
  8
0
 10
627.221
 20
52.2208
 11
627.479
 21
51.9056
  0
LINE
  8
0
 10
627.479
 20
51.9056
 11
627.672
 21
51.546
  0
LINE
  8
0
 10
627.672
 20
51.546
 11
627.79
 21
51.1558
  0
LINE
  8
0
 10
627.79
 20
51.1558
 11
627.83
 21
50.75
  0
LINE
  8
0
 10
627.83
 20
50.75
 11
627.79
 21
50.3442
  0
LINE
  8
0
 10
627.79
 20
50.3442
 11
627.672
 21
49.954
  0
LINE
  8
0
 10
627.672
 20
49.954
 11
627.479
 21
49.5944
  0
LINE
  8
0
 10
627.479
 20
49.5944
 11
627.221
 21
49.2792
  0
LINE
  8
0
 10
627.221
 20
49.2792
 11
626.906
 21
49.0205
  0
LINE
  8
0
 10
626.906
 20
49.0205
 11
626.546
 21
48.8283
  0
LINE
  8
0
 10
626.546
 20
48.8283
 11
626.156
 21
48.71
  0
LINE
  8
0
 10
626.156
 20
48.71
 11
625.75
 21
48.67
  0
LINE
  8
0
 10
625.75
 20
-22.83
 11
625.344
 21
-22.79
  0
LINE
  8
0
 10
625.344
 20
-22.79
 11
624.954
 21
-22.6717
  0
LINE
  8
0
 10
624.954
 20
-22.6717
 11
624.594
 21
-22.4794
  0
LINE
  8
0
 10
624.594
 20
-22.4794
 11
624.279
 21
-22.2208
  0
LINE
  8
0
 10
624.279
 20
-22.2208
 11
624.021
 21
-21.9056
  0
LINE
  8
0
 10
624.021
 20
-21.9056
 11
623.828
 21
-21.546
  0
LINE
  8
0
 10
623.828
 20
-21.546
 11
623.71
 21
-21.1558
  0
LINE
  8
0
 10
623.71
 20
-21.1558
 11
623.67
 21
-20.75
  0
LINE
  8
0
 10
623.67
 20
-20.75
 11
623.71
 21
-20.3442
  0
LINE
  8
0
 10
623.71
 20
-20.3442
 11
623.828
 21
-19.954
  0
LINE
  8
0
 10
623.828
 20
-19.954
 11
624.021
 21
-19.5944
  0
LINE
  8
0
 10
624.021
 20
-19.5944
 11
624.279
 21
-19.2792
  0
LINE
  8
0
 10
624.279
 20
-19.2792
 11
624.594
 21
-19.0205
  0
LINE
  8
0
 10
624.594
 20
-19.0205
 11
624.954
 21
-18.8283
  0
LINE
  8
0
 10
624.954
 20
-18.8283
 11
625.344
 21
-18.71
  0
LINE
  8
0
 10
625.344
 20
-18.71
 11
625.75
 21
-18.67
  0
LINE
  8
0
 10
625.75
 20
-18.67
 11
626.156
 21
-18.71
  0
LINE
  8
0
 10
626.156
 20
-18.71
 11
626.546
 21
-18.8283
  0
LINE
  8
0
 10
626.546
 20
-18.8283
 11
626.906
 21
-19.0205
  0
LINE
  8
0
 10
626.906
 20
-19.0205
 11
627.221
 21
-19.2792
  0
LINE
  8
0
 10
627.221
 20
-19.2792
 11
627.479
 21
-19.5944
  0
LINE
  8
0
 10
627.479
 20
-19.5944
 11
627.672
 21
-19.954
  0
LINE
  8
0
 10
627.672
 20
-19.954
 11
627.79
 21
-20.3442
  0
LINE
  8
0
 10
627.79
 20
-20.3442
 11
627.83
 21
-20.75
  0
LINE
  8
0
 10
627.83
 20
-20.75
 11
627.79
 21
-21.1558
  0
LINE
  8
0
 10
627.79
 20
-21.1558
 11
627.672
 21
-21.546
  0
LINE
  8
0
 10
627.672
 20
-21.546
 11
627.479
 21
-21.9056
  0
LINE
  8
0
 10
627.479
 20
-21.9056
 11
627.221
 21
-22.2208
  0
LINE
  8
0
 10
627.221
 20
-22.2208
 11
626.906
 21
-22.4794
  0
LINE
  8
0
 10
626.906
 20
-22.4794
 11
626.546
 21
-22.6717
  0
LINE
  8
0
 10
626.546
 20
-22.6717
 11
626.156
 21
-22.79
  0
LINE
  8
0
 10
626.156
 20
-22.79
 11
625.75
 21
-22.83
  0
LINE
  8
0
 10
554.25
 20
-22.83
 11
553.844
 21
-22.79
  0
LINE
  8
0
 10
553.844
 20
-22.79
 11
553.454
 21
-22.6717
  0
LINE
  8
0
 10
553.454
 20
-22.6717
 11
553.094
 21
-22.4794
  0
LINE
  8
0
 10
553.094
 20
-22.4794
 11
552.779
 21
-22.2208
  0
LINE
  8
0
 10
552.779
 20
-22.2208
 11
552.521
 21
-21.9056
  0
LINE
  8
0
 10
552.521
 20
-21.9056
 11
552.328
 21
-21.546
  0
LINE
  8
0
 10
552.328
 20
-21.546
 11
552.21
 21
-21.1558
  0
LINE
  8
0
 10
552.21
 20
-21.1558
 11
552.17
 21
-20.75
  0
LINE
  8
0
 10
552.17
 20
-20.75
 11
552.21
 21
-20.3442
  0
LINE
  8
0
 10
552.21
 20
-20.3442
 11
552.328
 21
-19.954
  0
LINE
  8
0
 10
552.328
 20
-19.954
 11
552.521
 21
-19.5944
  0
LINE
  8
0
 10
552.521
 20
-19.5944
 11
552.779
 21
-19.2792
  0
LINE
  8
0
 10
552.779
 20
-19.2792
 11
553.094
 21
-19.0205
  0
LINE
  8
0
 10
553.094
 20
-19.0205
 11
553.454
 21
-18.8283
  0
LINE
  8
0
 10
553.454
 20
-18.8283
 11
553.844
 21
-18.71
  0
LINE
  8
0
 10
553.844
 20
-18.71
 11
554.25
 21
-18.67
  0
LINE
  8
0
 10
554.25
 20
-18.67
 11
554.656
 21
-18.71
  0
LINE
  8
0
 10
554.656
 20
-18.71
 11
555.046
 21
-18.8283
  0
LINE
  8
0
 10
555.046
 20
-18.8283
 11
555.406
 21
-19.0205
  0
LINE
  8
0
 10
555.406
 20
-19.0205
 11
555.721
 21
-19.2792
  0
LINE
  8
0
 10
555.721
 20
-19.2792
 11
555.979
 21
-19.5944
  0
LINE
  8
0
 10
555.979
 20
-19.5944
 11
556.172
 21
-19.954
  0
LINE
  8
0
 10
556.172
 20
-19.954
 11
556.29
 21
-20.3442
  0
LINE
  8
0
 10
556.29
 20
-20.3442
 11
556.33
 21
-20.75
  0
LINE
  8
0
 10
556.33
 20
-20.75
 11
556.29
 21
-21.1558
  0
LINE
  8
0
 10
556.29
 20
-21.1558
 11
556.172
 21
-21.546
  0
LINE
  8
0
 10
556.172
 20
-21.546
 11
555.979
 21
-21.9056
  0
LINE
  8
0
 10
555.979
 20
-21.9056
 11
555.721
 21
-22.2208
  0
LINE
  8
0
 10
555.721
 20
-22.2208
 11
555.406
 21
-22.4794
  0
LINE
  8
0
 10
555.406
 20
-22.4794
 11
555.046
 21
-22.6717
  0
LINE
  8
0
 10
555.046
 20
-22.6717
 11
554.656
 21
-22.79
  0
LINE
  8
0
 10
554.656
 20
-22.79
 11
554.25
 21
-22.83
  0
ENDSEC
  0
SECTION
  2
OBJECTS
  0
DICTIONARY
  0
ENDSEC
  0
EOF
