  0
SECTION
  2
BLOCKS
  0
ENDSEC
  0
SECTION
  2
ENTITIES
  0
LINE
  8
0
 10
780
 20
133.507
 11
0
 21
133.507
  0
LINE
  8
0
 10
0
 20
133.507
 11
0
 21
-133.507
  0
LINE
  8
0
 10
0
 20
-133.507
 11
780
 21
-133.507
  0
LINE
  8
0
 10
780
 20
-133.507
 11
780
 21
133.507
  0
LINE
  8
0
 10
718.351
 20
44.5748
 11
711.958
 21
46.5142
  0
LINE
  8
0
 10
711.958
 20
46.5142
 11
706.066
 21
49.6635
  0
LINE
  8
0
 10
706.066
 20
49.6635
 11
700.902
 21
53.9018
  0
LINE
  8
0
 10
700.902
 20
53.9018
 11
696.664
 21
59.0662
  0
LINE
  8
0
 10
696.664
 20
59.0662
 11
693.514
 21
64.9581
  0
LINE
  8
0
 10
693.514
 20
64.9581
 11
691.575
 21
71.3513
  0
LINE
  8
0
 10
691.575
 20
71.3513
 11
690.92
 21
78
  0
LINE
  8
0
 10
690.92
 20
78
 11
691.575
 21
84.6487
  0
LINE
  8
0
 10
691.575
 20
84.6487
 11
693.514
 21
91.0419
  0
LINE
  8
0
 10
693.514
 20
91.0419
 11
696.664
 21
96.9338
  0
LINE
  8
0
 10
696.664
 20
96.9338
 11
700.902
 21
102.098
  0
LINE
  8
0
 10
700.902
 20
102.098
 11
706.066
 21
106.336
  0
LINE
  8
0
 10
706.066
 20
106.336
 11
711.958
 21
109.486
  0
LINE
  8
0
 10
711.958
 20
109.486
 11
718.351
 21
111.425
  0
LINE
  8
0
 10
718.351
 20
111.425
 11
725
 21
112.08
  0
LINE
  8
0
 10
725
 20
112.08
 11
731.649
 21
111.425
  0
LINE
  8
0
 10
731.649
 20
111.425
 11
738.042
 21
109.486
  0
LINE
  8
0
 10
738.042
 20
109.486
 11
743.934
 21
106.336
  0
LINE
  8
0
 10
743.934
 20
106.336
 11
749.098
 21
102.098
  0
LINE
  8
0
 10
749.098
 20
102.098
 11
753.336
 21
96.9338
  0
LINE
  8
0
 10
753.336
 20
96.9338
 11
756.486
 21
91.0419
  0
LINE
  8
0
 10
756.486
 20
91.0419
 11
758.425
 21
84.6487
  0
LINE
  8
0
 10
758.425
 20
84.6487
 11
759.08
 21
78
  0
LINE
  8
0
 10
759.08
 20
78
 11
758.425
 21
71.3513
  0
LINE
  8
0
 10
758.425
 20
71.3513
 11
756.486
 21
64.9581
  0
LINE
  8
0
 10
756.486
 20
64.9581
 11
753.336
 21
59.0662
  0
LINE
  8
0
 10
753.336
 20
59.0662
 11
749.098
 21
53.9018
  0
LINE
  8
0
 10
749.098
 20
53.9018
 11
743.934
 21
49.6635
  0
LINE
  8
0
 10
743.934
 20
49.6635
 11
738.042
 21
46.5142
  0
LINE
  8
0
 10
738.042
 20
46.5142
 11
731.649
 21
44.5748
  0
LINE
  8
0
 10
731.649
 20
44.5748
 11
725
 21
43.92
  0
LINE
  8
0
 10
725
 20
43.92
 11
718.351
 21
44.5748
  0
LINE
  8
0
 10
612.92
 20
78
 11
613.575
 21
84.6487
  0
LINE
  8
0
 10
613.575
 20
84.6487
 11
615.514
 21
91.0419
  0
LINE
  8
0
 10
615.514
 20
91.0419
 11
618.664
 21
96.9338
  0
LINE
  8
0
 10
618.664
 20
96.9338
 11
622.902
 21
102.098
  0
LINE
  8
0
 10
622.902
 20
102.098
 11
628.066
 21
106.336
  0
LINE
  8
0
 10
628.066
 20
106.336
 11
633.958
 21
109.486
  0
LINE
  8
0
 10
633.958
 20
109.486
 11
640.351
 21
111.425
  0
LINE
  8
0
 10
640.351
 20
111.425
 11
647
 21
112.08
  0
LINE
  8
0
 10
647
 20
112.08
 11
653.649
 21
111.425
  0
LINE
  8
0
 10
653.649
 20
111.425
 11
660.042
 21
109.486
  0
LINE
  8
0
 10
660.042
 20
109.486
 11
665.934
 21
106.336
  0
LINE
  8
0
 10
665.934
 20
106.336
 11
671.098
 21
102.098
  0
LINE
  8
0
 10
671.098
 20
102.098
 11
675.336
 21
96.9338
  0
LINE
  8
0
 10
675.336
 20
96.9338
 11
678.486
 21
91.0419
  0
LINE
  8
0
 10
678.486
 20
91.0419
 11
680.425
 21
84.6487
  0
LINE
  8
0
 10
680.425
 20
84.6487
 11
681.08
 21
78
  0
LINE
  8
0
 10
681.08
 20
78
 11
680.425
 21
71.3513
  0
LINE
  8
0
 10
680.425
 20
71.3513
 11
678.486
 21
64.9581
  0
LINE
  8
0
 10
678.486
 20
64.9581
 11
675.336
 21
59.0662
  0
LINE
  8
0
 10
675.336
 20
59.0662
 11
671.098
 21
53.9018
  0
LINE
  8
0
 10
671.098
 20
53.9018
 11
665.934
 21
49.6635
  0
LINE
  8
0
 10
665.934
 20
49.6635
 11
660.042
 21
46.5142
  0
LINE
  8
0
 10
660.042
 20
46.5142
 11
653.649
 21
44.5748
  0
LINE
  8
0
 10
653.649
 20
44.5748
 11
647
 21
43.92
  0
LINE
  8
0
 10
647
 20
43.92
 11
640.351
 21
44.5748
  0
LINE
  8
0
 10
640.351
 20
44.5748
 11
633.958
 21
46.5142
  0
LINE
  8
0
 10
633.958
 20
46.5142
 11
628.066
 21
49.6635
  0
LINE
  8
0
 10
628.066
 20
49.6635
 11
622.902
 21
53.9018
  0
LINE
  8
0
 10
622.902
 20
53.9018
 11
618.664
 21
59.0662
  0
LINE
  8
0
 10
618.664
 20
59.0662
 11
615.514
 21
64.9581
  0
LINE
  8
0
 10
615.514
 20
64.9581
 11
613.575
 21
71.3513
  0
LINE
  8
0
 10
613.575
 20
71.3513
 11
612.92
 21
78
  0
LINE
  8
0
 10
484.351
 20
44.5748
 11
477.958
 21
46.5142
  0
LINE
  8
0
 10
477.958
 20
46.5142
 11
472.066
 21
49.6635
  0
LINE
  8
0
 10
472.066
 20
49.6635
 11
466.902
 21
53.9018
  0
LINE
  8
0
 10
466.902
 20
53.9018
 11
462.664
 21
59.0662
  0
LINE
  8
0
 10
462.664
 20
59.0662
 11
459.514
 21
64.9581
  0
LINE
  8
0
 10
459.514
 20
64.9581
 11
457.575
 21
71.3513
  0
LINE
  8
0
 10
457.575
 20
71.3513
 11
456.92
 21
78
  0
LINE
  8
0
 10
456.92
 20
78
 11
457.575
 21
84.6487
  0
LINE
  8
0
 10
457.575
 20
84.6487
 11
459.514
 21
91.0419
  0
LINE
  8
0
 10
459.514
 20
91.0419
 11
462.664
 21
96.9338
  0
LINE
  8
0
 10
462.664
 20
96.9338
 11
466.902
 21
102.098
  0
LINE
  8
0
 10
466.902
 20
102.098
 11
472.066
 21
106.336
  0
LINE
  8
0
 10
472.066
 20
106.336
 11
477.958
 21
109.486
  0
LINE
  8
0
 10
477.958
 20
109.486
 11
484.351
 21
111.425
  0
LINE
  8
0
 10
484.351
 20
111.425
 11
491
 21
112.08
  0
LINE
  8
0
 10
491
 20
112.08
 11
497.649
 21
111.425
  0
LINE
  8
0
 10
497.649
 20
111.425
 11
504.042
 21
109.486
  0
LINE
  8
0
 10
504.042
 20
109.486
 11
509.934
 21
106.336
  0
LINE
  8
0
 10
509.934
 20
106.336
 11
515.098
 21
102.098
  0
LINE
  8
0
 10
515.098
 20
102.098
 11
519.336
 21
96.9338
  0
LINE
  8
0
 10
519.336
 20
96.9338
 11
522.486
 21
91.0419
  0
LINE
  8
0
 10
522.486
 20
91.0419
 11
524.425
 21
84.6487
  0
LINE
  8
0
 10
524.425
 20
84.6487
 11
525.08
 21
78
  0
LINE
  8
0
 10
525.08
 20
78
 11
524.425
 21
71.3513
  0
LINE
  8
0
 10
524.425
 20
71.3513
 11
522.486
 21
64.9581
  0
LINE
  8
0
 10
522.486
 20
64.9581
 11
519.336
 21
59.0662
  0
LINE
  8
0
 10
519.336
 20
59.0662
 11
515.098
 21
53.9018
  0
LINE
  8
0
 10
515.098
 20
53.9018
 11
509.934
 21
49.6635
  0
LINE
  8
0
 10
509.934
 20
49.6635
 11
504.042
 21
46.5142
  0
LINE
  8
0
 10
504.042
 20
46.5142
 11
497.649
 21
44.5748
  0
LINE
  8
0
 10
497.649
 20
44.5748
 11
491
 21
43.92
  0
LINE
  8
0
 10
491
 20
43.92
 11
484.351
 21
44.5748
  0
LINE
  8
0
 10
382.181
 20
-14.3099
 11
374.662
 21
-12.0291
  0
LINE
  8
0
 10
374.662
 20
-12.0291
 11
367.733
 21
-8.32529
  0
LINE
  8
0
 10
367.733
 20
-8.32529
 11
361.659
 21
-3.34084
  0
LINE
  8
0
 10
361.659
 20
-3.34084
 11
356.675
 21
2.73274
  0
LINE
  8
0
 10
356.675
 20
2.73274
 11
352.971
 21
9.66205
  0
LINE
  8
0
 10
352.971
 20
9.66205
 11
350.69
 21
17.1808
  0
LINE
  8
0
 10
350.69
 20
17.1808
 11
349.92
 21
25
  0
LINE
  8
0
 10
349.92
 20
25
 11
350.69
 21
32.8192
  0
LINE
  8
0
 10
350.69
 20
32.8192
 11
352.971
 21
40.338
  0
LINE
  8
0
 10
352.971
 20
40.338
 11
356.675
 21
47.2672
  0
LINE
  8
0
 10
356.675
 20
47.2672
 11
361.659
 21
53.3408
  0
LINE
  8
0
 10
361.659
 20
53.3408
 11
367.733
 21
58.3253
  0
LINE
  8
0
 10
367.733
 20
58.3253
 11
374.662
 21
62.0291
  0
LINE
  8
0
 10
374.662
 20
62.0291
 11
382.181
 21
64.3099
  0
LINE
  8
0
 10
382.181
 20
64.3099
 11
390
 21
65.08
  0
LINE
  8
0
 10
390
 20
65.08
 11
397.819
 21
64.3099
  0
LINE
  8
0
 10
397.819
 20
64.3099
 11
405.338
 21
62.0291
  0
LINE
  8
0
 10
405.338
 20
62.0291
 11
412.267
 21
58.3253
  0
LINE
  8
0
 10
412.267
 20
58.3253
 11
418.341
 21
53.3408
  0
LINE
  8
0
 10
418.341
 20
53.3408
 11
423.325
 21
47.2672
  0
LINE
  8
0
 10
423.325
 20
47.2672
 11
427.029
 21
40.338
  0
LINE
  8
0
 10
427.029
 20
40.338
 11
429.31
 21
32.8192
  0
LINE
  8
0
 10
429.31
 20
32.8192
 11
430.08
 21
25
  0
LINE
  8
0
 10
430.08
 20
25
 11
429.31
 21
17.1808
  0
LINE
  8
0
 10
429.31
 20
17.1808
 11
427.029
 21
9.66205
  0
LINE
  8
0
 10
427.029
 20
9.66205
 11
423.325
 21
2.73274
  0
LINE
  8
0
 10
423.325
 20
2.73274
 11
418.341
 21
-3.34084
  0
LINE
  8
0
 10
418.341
 20
-3.34084
 11
412.267
 21
-8.32529
  0
LINE
  8
0
 10
412.267
 20
-8.32529
 11
405.338
 21
-12.0291
  0
LINE
  8
0
 10
405.338
 20
-12.0291
 11
397.819
 21
-14.3099
  0
LINE
  8
0
 10
397.819
 20
-14.3099
 11
390
 21
-15.08
  0
LINE
  8
0
 10
390
 20
-15.08
 11
382.181
 21
-14.3099
  0
LINE
  8
0
 10
354.25
 20
58.67
 11
353.844
 21
58.71
  0
LINE
  8
0
 10
353.844
 20
58.71
 11
353.454
 21
58.8283
  0
LINE
  8
0
 10
353.454
 20
58.8283
 11
353.094
 21
59.0205
  0
LINE
  8
0
 10
353.094
 20
59.0205
 11
352.779
 21
59.2792
  0
LINE
  8
0
 10
352.779
 20
59.2792
 11
352.521
 21
59.5944
  0
LINE
  8
0
 10
352.521
 20
59.5944
 11
352.328
 21
59.954
  0
LINE
  8
0
 10
352.328
 20
59.954
 11
352.21
 21
60.3442
  0
LINE
  8
0
 10
352.21
 20
60.3442
 11
352.17
 21
60.75
  0
LINE
  8
0
 10
352.17
 20
60.75
 11
352.21
 21
61.1558
  0
LINE
  8
0
 10
352.21
 20
61.1558
 11
352.328
 21
61.546
  0
LINE
  8
0
 10
352.328
 20
61.546
 11
352.521
 21
61.9056
  0
LINE
  8
0
 10
352.521
 20
61.9056
 11
352.779
 21
62.2208
  0
LINE
  8
0
 10
352.779
 20
62.2208
 11
353.094
 21
62.4794
  0
LINE
  8
0
 10
353.094
 20
62.4794
 11
353.454
 21
62.6717
  0
LINE
  8
0
 10
353.454
 20
62.6717
 11
353.844
 21
62.79
  0
LINE
  8
0
 10
353.844
 20
62.79
 11
354.25
 21
62.83
  0
LINE
  8
0
 10
354.25
 20
62.83
 11
354.656
 21
62.79
  0
LINE
  8
0
 10
354.656
 20
62.79
 11
355.046
 21
62.6717
  0
LINE
  8
0
 10
355.046
 20
62.6717
 11
355.406
 21
62.4794
  0
LINE
  8
0
 10
355.406
 20
62.4794
 11
355.721
 21
62.2208
  0
LINE
  8
0
 10
355.721
 20
62.2208
 11
355.979
 21
61.9056
  0
LINE
  8
0
 10
355.979
 20
61.9056
 11
356.172
 21
61.546
  0
LINE
  8
0
 10
356.172
 20
61.546
 11
356.29
 21
61.1558
  0
LINE
  8
0
 10
356.29
 20
61.1558
 11
356.33
 21
60.75
  0
LINE
  8
0
 10
356.33
 20
60.75
 11
356.29
 21
60.3442
  0
LINE
  8
0
 10
356.29
 20
60.3442
 11
356.172
 21
59.954
  0
LINE
  8
0
 10
356.172
 20
59.954
 11
355.979
 21
59.5944
  0
LINE
  8
0
 10
355.979
 20
59.5944
 11
355.721
 21
59.2792
  0
LINE
  8
0
 10
355.721
 20
59.2792
 11
355.406
 21
59.0205
  0
LINE
  8
0
 10
355.406
 20
59.0205
 11
355.046
 21
58.8283
  0
LINE
  8
0
 10
355.046
 20
58.8283
 11
354.656
 21
58.71
  0
LINE
  8
0
 10
354.656
 20
58.71
 11
354.25
 21
58.67
  0
LINE
  8
0
 10
425.75
 20
58.67
 11
425.344
 21
58.71
  0
LINE
  8
0
 10
425.344
 20
58.71
 11
424.954
 21
58.8283
  0
LINE
  8
0
 10
424.954
 20
58.8283
 11
424.594
 21
59.0205
  0
LINE
  8
0
 10
424.594
 20
59.0205
 11
424.279
 21
59.2792
  0
LINE
  8
0
 10
424.279
 20
59.2792
 11
424.021
 21
59.5944
  0
LINE
  8
0
 10
424.021
 20
59.5944
 11
423.828
 21
59.954
  0
LINE
  8
0
 10
423.828
 20
59.954
 11
423.71
 21
60.3442
  0
LINE
  8
0
 10
423.71
 20
60.3442
 11
423.67
 21
60.75
  0
LINE
  8
0
 10
423.67
 20
60.75
 11
423.71
 21
61.1558
  0
LINE
  8
0
 10
423.71
 20
61.1558
 11
423.828
 21
61.546
  0
LINE
  8
0
 10
423.828
 20
61.546
 11
424.021
 21
61.9056
  0
LINE
  8
0
 10
424.021
 20
61.9056
 11
424.279
 21
62.2208
  0
LINE
  8
0
 10
424.279
 20
62.2208
 11
424.594
 21
62.4794
  0
LINE
  8
0
 10
424.594
 20
62.4794
 11
424.954
 21
62.6717
  0
LINE
  8
0
 10
424.954
 20
62.6717
 11
425.344
 21
62.79
  0
LINE
  8
0
 10
425.344
 20
62.79
 11
425.75
 21
62.83
  0
LINE
  8
0
 10
425.75
 20
62.83
 11
426.156
 21
62.79
  0
LINE
  8
0
 10
426.156
 20
62.79
 11
426.546
 21
62.6717
  0
LINE
  8
0
 10
426.546
 20
62.6717
 11
426.906
 21
62.4794
  0
LINE
  8
0
 10
426.906
 20
62.4794
 11
427.221
 21
62.2208
  0
LINE
  8
0
 10
427.221
 20
62.2208
 11
427.479
 21
61.9056
  0
LINE
  8
0
 10
427.479
 20
61.9056
 11
427.672
 21
61.546
  0
LINE
  8
0
 10
427.672
 20
61.546
 11
427.79
 21
61.1558
  0
LINE
  8
0
 10
427.79
 20
61.1558
 11
427.83
 21
60.75
  0
LINE
  8
0
 10
427.83
 20
60.75
 11
427.79
 21
60.3442
  0
LINE
  8
0
 10
427.79
 20
60.3442
 11
427.672
 21
59.954
  0
LINE
  8
0
 10
427.672
 20
59.954
 11
427.479
 21
59.5944
  0
LINE
  8
0
 10
427.479
 20
59.5944
 11
427.221
 21
59.2792
  0
LINE
  8
0
 10
427.221
 20
59.2792
 11
426.906
 21
59.0205
  0
LINE
  8
0
 10
426.906
 20
59.0205
 11
426.546
 21
58.8283
  0
LINE
  8
0
 10
426.546
 20
58.8283
 11
426.156
 21
58.71
  0
LINE
  8
0
 10
426.156
 20
58.71
 11
425.75
 21
58.67
  0
LINE
  8
0
 10
530
 20
36.92
 11
529.594
 21
36.96
  0
LINE
  8
0
 10
529.594
 20
36.96
 11
529.204
 21
37.0783
  0
LINE
  8
0
 10
529.204
 20
37.0783
 11
528.844
 21
37.2705
  0
LINE
  8
0
 10
528.844
 20
37.2705
 11
528.529
 21
37.5292
  0
LINE
  8
0
 10
528.529
 20
37.5292
 11
528.271
 21
37.8444
  0
LINE
  8
0
 10
528.271
 20
37.8444
 11
528.078
 21
38.204
  0
LINE
  8
0
 10
528.078
 20
38.204
 11
527.96
 21
38.5942
  0
LINE
  8
0
 10
527.96
 20
38.5942
 11
527.92
 21
39
  0
LINE
  8
0
 10
527.92
 20
39
 11
527.96
 21
39.4058
  0
LINE
  8
0
 10
527.96
 20
39.4058
 11
528.078
 21
39.796
  0
LINE
  8
0
 10
528.078
 20
39.796
 11
528.271
 21
40.1556
  0
LINE
  8
0
 10
528.271
 20
40.1556
 11
528.529
 21
40.4708
  0
LINE
  8
0
 10
528.529
 20
40.4708
 11
528.844
 21
40.7294
  0
LINE
  8
0
 10
528.844
 20
40.7294
 11
529.204
 21
40.9217
  0
LINE
  8
0
 10
529.204
 20
40.9217
 11
529.594
 21
41.04
  0
LINE
  8
0
 10
529.594
 20
41.04
 11
530
 21
41.08
  0
LINE
  8
0
 10
530
 20
41.08
 11
530.406
 21
41.04
  0
LINE
  8
0
 10
530.406
 20
41.04
 11
530.796
 21
40.9217
  0
LINE
  8
0
 10
530.796
 20
40.9217
 11
531.156
 21
40.7294
  0
LINE
  8
0
 10
531.156
 20
40.7294
 11
531.471
 21
40.4708
  0
LINE
  8
0
 10
531.471
 20
40.4708
 11
531.729
 21
40.1556
  0
LINE
  8
0
 10
531.729
 20
40.1556
 11
531.922
 21
39.796
  0
LINE
  8
0
 10
531.922
 20
39.796
 11
532.04
 21
39.4058
  0
LINE
  8
0
 10
532.04
 20
39.4058
 11
532.08
 21
39
  0
LINE
  8
0
 10
532.08
 20
39
 11
532.04
 21
38.5942
  0
LINE
  8
0
 10
532.04
 20
38.5942
 11
531.922
 21
38.204
  0
LINE
  8
0
 10
531.922
 20
38.204
 11
531.729
 21
37.8444
  0
LINE
  8
0
 10
531.729
 20
37.8444
 11
531.471
 21
37.5292
  0
LINE
  8
0
 10
531.471
 20
37.5292
 11
531.156
 21
37.2705
  0
LINE
  8
0
 10
531.156
 20
37.2705
 11
530.796
 21
37.0783
  0
LINE
  8
0
 10
530.796
 20
37.0783
 11
530.406
 21
36.96
  0
LINE
  8
0
 10
530.406
 20
36.96
 11
530
 21
36.92
  0
LINE
  8
0
 10
686
 20
36.92
 11
685.594
 21
36.96
  0
LINE
  8
0
 10
685.594
 20
36.96
 11
685.204
 21
37.0783
  0
LINE
  8
0
 10
685.204
 20
37.0783
 11
684.844
 21
37.2705
  0
LINE
  8
0
 10
684.844
 20
37.2705
 11
684.529
 21
37.5292
  0
LINE
  8
0
 10
684.529
 20
37.5292
 11
684.271
 21
37.8444
  0
LINE
  8
0
 10
684.271
 20
37.8444
 11
684.078
 21
38.204
  0
LINE
  8
0
 10
684.078
 20
38.204
 11
683.96
 21
38.5942
  0
LINE
  8
0
 10
683.96
 20
38.5942
 11
683.92
 21
39
  0
LINE
  8
0
 10
683.92
 20
39
 11
683.96
 21
39.4058
  0
LINE
  8
0
 10
683.96
 20
39.4058
 11
684.078
 21
39.796
  0
LINE
  8
0
 10
684.078
 20
39.796
 11
684.271
 21
40.1556
  0
LINE
  8
0
 10
684.271
 20
40.1556
 11
684.529
 21
40.4708
  0
LINE
  8
0
 10
684.529
 20
40.4708
 11
684.844
 21
40.7294
  0
LINE
  8
0
 10
684.844
 20
40.7294
 11
685.204
 21
40.9217
  0
LINE
  8
0
 10
685.204
 20
40.9217
 11
685.594
 21
41.04
  0
LINE
  8
0
 10
685.594
 20
41.04
 11
686
 21
41.08
  0
LINE
  8
0
 10
686
 20
41.08
 11
686.406
 21
41.04
  0
LINE
  8
0
 10
686.406
 20
41.04
 11
686.796
 21
40.9217
  0
LINE
  8
0
 10
686.796
 20
40.9217
 11
687.156
 21
40.7294
  0
LINE
  8
0
 10
687.156
 20
40.7294
 11
687.471
 21
40.4708
  0
LINE
  8
0
 10
687.471
 20
40.4708
 11
687.729
 21
40.1556
  0
LINE
  8
0
 10
687.729
 20
40.1556
 11
687.922
 21
39.796
  0
LINE
  8
0
 10
687.922
 20
39.796
 11
688.04
 21
39.4058
  0
LINE
  8
0
 10
688.04
 20
39.4058
 11
688.08
 21
39
  0
LINE
  8
0
 10
688.08
 20
39
 11
688.04
 21
38.5942
  0
LINE
  8
0
 10
688.04
 20
38.5942
 11
687.922
 21
38.204
  0
LINE
  8
0
 10
687.922
 20
38.204
 11
687.729
 21
37.8444
  0
LINE
  8
0
 10
687.729
 20
37.8444
 11
687.471
 21
37.5292
  0
LINE
  8
0
 10
687.471
 20
37.5292
 11
687.156
 21
37.2705
  0
LINE
  8
0
 10
687.156
 20
37.2705
 11
686.796
 21
37.0783
  0
LINE
  8
0
 10
686.796
 20
37.0783
 11
686.406
 21
36.96
  0
LINE
  8
0
 10
686.406
 20
36.96
 11
686
 21
36.92
  0
LINE
  8
0
 10
562.351
 20
-33.4252
 11
555.958
 21
-31.4858
  0
LINE
  8
0
 10
555.958
 20
-31.4858
 11
550.066
 21
-28.3365
  0
LINE
  8
0
 10
550.066
 20
-28.3365
 11
544.902
 21
-24.0982
  0
LINE
  8
0
 10
544.902
 20
-24.0982
 11
540.664
 21
-18.9338
  0
LINE
  8
0
 10
540.664
 20
-18.9338
 11
537.514
 21
-13.0418
  0
LINE
  8
0
 10
537.514
 20
-13.0418
 11
535.575
 21
-6.64867
  0
LINE
  8
0
 10
535.575
 20
-6.64867
 11
534.92
 21
0
  0
LINE
  8
0
 10
534.92
 20
0
 11
535.575
 21
6.64867
  0
LINE
  8
0
 10
535.575
 20
6.64867
 11
537.514
 21
13.0418
  0
LINE
  8
0
 10
537.514
 20
13.0418
 11
540.664
 21
18.9338
  0
LINE
  8
0
 10
540.664
 20
18.9338
 11
544.902
 21
24.0982
  0
LINE
  8
0
 10
544.902
 20
24.0982
 11
550.066
 21
28.3365
  0
LINE
  8
0
 10
550.066
 20
28.3365
 11
555.958
 21
31.4858
  0
LINE
  8
0
 10
555.958
 20
31.4858
 11
562.351
 21
33.4252
  0
LINE
  8
0
 10
562.351
 20
33.4252
 11
569
 21
34.08
  0
LINE
  8
0
 10
569
 20
34.08
 11
575.649
 21
33.4252
  0
LINE
  8
0
 10
575.649
 20
33.4252
 11
582.042
 21
31.4858
  0
LINE
  8
0
 10
582.042
 20
31.4858
 11
587.934
 21
28.3365
  0
LINE
  8
0
 10
587.934
 20
28.3365
 11
593.098
 21
24.0982
  0
LINE
  8
0
 10
593.098
 20
24.0982
 11
597.336
 21
18.9338
  0
LINE
  8
0
 10
597.336
 20
18.9338
 11
600.486
 21
13.0418
  0
LINE
  8
0
 10
600.486
 20
13.0418
 11
602.425
 21
6.64867
  0
LINE
  8
0
 10
602.425
 20
6.64867
 11
603.08
 21
0
  0
LINE
  8
0
 10
603.08
 20
0
 11
602.425
 21
-6.64867
  0
LINE
  8
0
 10
602.425
 20
-6.64867
 11
600.486
 21
-13.0418
  0
LINE
  8
0
 10
600.486
 20
-13.0418
 11
597.336
 21
-18.9338
  0
LINE
  8
0
 10
597.336
 20
-18.9338
 11
593.098
 21
-24.0982
  0
LINE
  8
0
 10
593.098
 20
-24.0982
 11
587.934
 21
-28.3365
  0
LINE
  8
0
 10
587.934
 20
-28.3365
 11
582.042
 21
-31.4858
  0
LINE
  8
0
 10
582.042
 20
-31.4858
 11
575.649
 21
-33.4252
  0
LINE
  8
0
 10
575.649
 20
-33.4252
 11
569
 21
-34.08
  0
LINE
  8
0
 10
569
 20
-34.08
 11
562.351
 21
-33.4252
  0
LINE
  8
0
 10
693.514
 20
13.0418
 11
696.664
 21
18.9338
  0
LINE
  8
0
 10
696.664
 20
18.9338
 11
700.902
 21
24.0982
  0
LINE
  8
0
 10
700.902
 20
24.0982
 11
706.066
 21
28.3365
  0
LINE
  8
0
 10
706.066
 20
28.3365
 11
711.958
 21
31.4858
  0
LINE
  8
0
 10
711.958
 20
31.4858
 11
718.351
 21
33.4252
  0
LINE
  8
0
 10
718.351
 20
33.4252
 11
725
 21
34.08
  0
LINE
  8
0
 10
725
 20
34.08
 11
731.649
 21
33.4252
  0
LINE
  8
0
 10
731.649
 20
33.4252
 11
738.042
 21
31.4858
  0
LINE
  8
0
 10
738.042
 20
31.4858
 11
743.934
 21
28.3365
  0
LINE
  8
0
 10
743.934
 20
28.3365
 11
749.098
 21
24.0982
  0
LINE
  8
0
 10
749.098
 20
24.0982
 11
753.336
 21
18.9338
  0
LINE
  8
0
 10
753.336
 20
18.9338
 11
756.486
 21
13.0418
  0
LINE
  8
0
 10
756.486
 20
13.0418
 11
758.425
 21
6.64867
  0
LINE
  8
0
 10
758.425
 20
6.64867
 11
759.08
 21
0
  0
LINE
  8
0
 10
759.08
 20
0
 11
758.425
 21
-6.64867
  0
LINE
  8
0
 10
758.425
 20
-6.64867
 11
756.486
 21
-13.0418
  0
LINE
  8
0
 10
756.486
 20
-13.0418
 11
753.336
 21
-18.9338
  0
LINE
  8
0
 10
753.336
 20
-18.9338
 11
749.098
 21
-24.0982
  0
LINE
  8
0
 10
749.098
 20
-24.0982
 11
743.934
 21
-28.3365
  0
LINE
  8
0
 10
743.934
 20
-28.3365
 11
738.042
 21
-31.4858
  0
LINE
  8
0
 10
738.042
 20
-31.4858
 11
731.649
 21
-33.4252
  0
LINE
  8
0
 10
731.649
 20
-33.4252
 11
725
 21
-34.08
  0
LINE
  8
0
 10
725
 20
-34.08
 11
718.351
 21
-33.4252
  0
LINE
  8
0
 10
718.351
 20
-33.4252
 11
711.958
 21
-31.4858
  0
LINE
  8
0
 10
711.958
 20
-31.4858
 11
706.066
 21
-28.3365
  0
LINE
  8
0
 10
706.066
 20
-28.3365
 11
700.902
 21
-24.0982
  0
LINE
  8
0
 10
700.902
 20
-24.0982
 11
696.664
 21
-18.9338
  0
LINE
  8
0
 10
696.664
 20
-18.9338
 11
693.514
 21
-13.0418
  0
LINE
  8
0
 10
693.514
 20
-13.0418
 11
691.575
 21
-6.64867
  0
LINE
  8
0
 10
691.575
 20
-6.64867
 11
690.92
 21
0
  0
LINE
  8
0
 10
690.92
 20
0
 11
691.575
 21
6.64867
  0
LINE
  8
0
 10
691.575
 20
6.64867
 11
693.514
 21
13.0418
  0
LINE
  8
0
 10
484.351
 20
-33.4252
 11
477.958
 21
-31.4858
  0
LINE
  8
0
 10
477.958
 20
-31.4858
 11
472.066
 21
-28.3365
  0
LINE
  8
0
 10
472.066
 20
-28.3365
 11
466.902
 21
-24.0982
  0
LINE
  8
0
 10
466.902
 20
-24.0982
 11
462.664
 21
-18.9338
  0
LINE
  8
0
 10
462.664
 20
-18.9338
 11
459.514
 21
-13.0418
  0
LINE
  8
0
 10
459.514
 20
-13.0418
 11
457.575
 21
-6.64867
  0
LINE
  8
0
 10
457.575
 20
-6.64867
 11
456.92
 21
0
  0
LINE
  8
0
 10
456.92
 20
0
 11
457.575
 21
6.64867
  0
LINE
  8
0
 10
457.575
 20
6.64867
 11
459.514
 21
13.0418
  0
LINE
  8
0
 10
459.514
 20
13.0418
 11
462.664
 21
18.9338
  0
LINE
  8
0
 10
462.664
 20
18.9338
 11
466.902
 21
24.0982
  0
LINE
  8
0
 10
466.902
 20
24.0982
 11
472.066
 21
28.3365
  0
LINE
  8
0
 10
472.066
 20
28.3365
 11
477.958
 21
31.4858
  0
LINE
  8
0
 10
477.958
 20
31.4858
 11
484.351
 21
33.4252
  0
LINE
  8
0
 10
484.351
 20
33.4252
 11
491
 21
34.08
  0
LINE
  8
0
 10
491
 20
34.08
 11
497.649
 21
33.4252
  0
LINE
  8
0
 10
497.649
 20
33.4252
 11
504.042
 21
31.4858
  0
LINE
  8
0
 10
504.042
 20
31.4858
 11
509.934
 21
28.3365
  0
LINE
  8
0
 10
509.934
 20
28.3365
 11
515.098
 21
24.0982
  0
LINE
  8
0
 10
515.098
 20
24.0982
 11
519.336
 21
18.9338
  0
LINE
  8
0
 10
519.336
 20
18.9338
 11
522.486
 21
13.0418
  0
LINE
  8
0
 10
522.486
 20
13.0418
 11
524.425
 21
6.64867
  0
LINE
  8
0
 10
524.425
 20
6.64867
 11
525.08
 21
0
  0
LINE
  8
0
 10
525.08
 20
0
 11
524.425
 21
-6.64867
  0
LINE
  8
0
 10
524.425
 20
-6.64867
 11
522.486
 21
-13.0418
  0
LINE
  8
0
 10
522.486
 20
-13.0418
 11
519.336
 21
-18.9338
  0
LINE
  8
0
 10
519.336
 20
-18.9338
 11
515.098
 21
-24.0982
  0
LINE
  8
0
 10
515.098
 20
-24.0982
 11
509.934
 21
-28.3365
  0
LINE
  8
0
 10
509.934
 20
-28.3365
 11
504.042
 21
-31.4858
  0
LINE
  8
0
 10
504.042
 20
-31.4858
 11
497.649
 21
-33.4252
  0
LINE
  8
0
 10
497.649
 20
-33.4252
 11
491
 21
-34.08
  0
LINE
  8
0
 10
491
 20
-34.08
 11
484.351
 21
-33.4252
  0
LINE
  8
0
 10
425.75
 20
-12.83
 11
425.344
 21
-12.79
  0
LINE
  8
0
 10
425.344
 20
-12.79
 11
424.954
 21
-12.6717
  0
LINE
  8
0
 10
424.954
 20
-12.6717
 11
424.594
 21
-12.4794
  0
LINE
  8
0
 10
424.594
 20
-12.4794
 11
424.279
 21
-12.2208
  0
LINE
  8
0
 10
424.279
 20
-12.2208
 11
424.021
 21
-11.9056
  0
LINE
  8
0
 10
424.021
 20
-11.9056
 11
423.828
 21
-11.546
  0
LINE
  8
0
 10
423.828
 20
-11.546
 11
423.71
 21
-11.1558
  0
LINE
  8
0
 10
423.71
 20
-11.1558
 11
423.67
 21
-10.75
  0
LINE
  8
0
 10
423.67
 20
-10.75
 11
423.71
 21
-10.3442
  0
LINE
  8
0
 10
423.71
 20
-10.3442
 11
423.828
 21
-9.95401
  0
LINE
  8
0
 10
423.828
 20
-9.95401
 11
424.021
 21
-9.59441
  0
LINE
  8
0
 10
424.021
 20
-9.59441
 11
424.279
 21
-9.27921
  0
LINE
  8
0
 10
424.279
 20
-9.27921
 11
424.594
 21
-9.02054
  0
LINE
  8
0
 10
424.594
 20
-9.02054
 11
424.954
 21
-8.82832
  0
LINE
  8
0
 10
424.954
 20
-8.82832
 11
425.344
 21
-8.70996
  0
LINE
  8
0
 10
425.344
 20
-8.70996
 11
425.75
 21
-8.67
  0
LINE
  8
0
 10
425.75
 20
-8.67
 11
426.156
 21
-8.70996
  0
LINE
  8
0
 10
426.156
 20
-8.70996
 11
426.546
 21
-8.82832
  0
LINE
  8
0
 10
426.546
 20
-8.82832
 11
426.906
 21
-9.02054
  0
LINE
  8
0
 10
426.906
 20
-9.02054
 11
427.221
 21
-9.27921
  0
LINE
  8
0
 10
427.221
 20
-9.27921
 11
427.479
 21
-9.59441
  0
LINE
  8
0
 10
427.479
 20
-9.59441
 11
427.672
 21
-9.95401
  0
LINE
  8
0
 10
427.672
 20
-9.95401
 11
427.79
 21
-10.3442
  0
LINE
  8
0
 10
427.79
 20
-10.3442
 11
427.83
 21
-10.75
  0
LINE
  8
0
 10
427.83
 20
-10.75
 11
427.79
 21
-11.1558
  0
LINE
  8
0
 10
427.79
 20
-11.1558
 11
427.672
 21
-11.546
  0
LINE
  8
0
 10
427.672
 20
-11.546
 11
427.479
 21
-11.9056
  0
LINE
  8
0
 10
427.479
 20
-11.9056
 11
427.221
 21
-12.2208
  0
LINE
  8
0
 10
427.221
 20
-12.2208
 11
426.906
 21
-12.4794
  0
LINE
  8
0
 10
426.906
 20
-12.4794
 11
426.546
 21
-12.6717
  0
LINE
  8
0
 10
426.546
 20
-12.6717
 11
426.156
 21
-12.79
  0
LINE
  8
0
 10
426.156
 20
-12.79
 11
425.75
 21
-12.83
  0
LINE
  8
0
 10
354.25
 20
-12.83
 11
353.844
 21
-12.79
  0
LINE
  8
0
 10
353.844
 20
-12.79
 11
353.454
 21
-12.6717
  0
LINE
  8
0
 10
353.454
 20
-12.6717
 11
353.094
 21
-12.4794
  0
LINE
  8
0
 10
353.094
 20
-12.4794
 11
352.779
 21
-12.2208
  0
LINE
  8
0
 10
352.779
 20
-12.2208
 11
352.521
 21
-11.9056
  0
LINE
  8
0
 10
352.521
 20
-11.9056
 11
352.328
 21
-11.546
  0
LINE
  8
0
 10
352.328
 20
-11.546
 11
352.21
 21
-11.1558
  0
LINE
  8
0
 10
352.21
 20
-11.1558
 11
352.17
 21
-10.75
  0
LINE
  8
0
 10
352.17
 20
-10.75
 11
352.21
 21
-10.3442
  0
LINE
  8
0
 10
352.21
 20
-10.3442
 11
352.328
 21
-9.95401
  0
LINE
  8
0
 10
352.328
 20
-9.95401
 11
352.521
 21
-9.59441
  0
LINE
  8
0
 10
352.521
 20
-9.59441
 11
352.779
 21
-9.27921
  0
LINE
  8
0
 10
352.779
 20
-9.27921
 11
353.094
 21
-9.02054
  0
LINE
  8
0
 10
353.094
 20
-9.02054
 11
353.454
 21
-8.82832
  0
LINE
  8
0
 10
353.454
 20
-8.82832
 11
353.844
 21
-8.70996
  0
LINE
  8
0
 10
353.844
 20
-8.70996
 11
354.25
 21
-8.67
  0
LINE
  8
0
 10
354.25
 20
-8.67
 11
354.656
 21
-8.70996
  0
LINE
  8
0
 10
354.656
 20
-8.70996
 11
355.046
 21
-8.82832
  0
LINE
  8
0
 10
355.046
 20
-8.82832
 11
355.406
 21
-9.02054
  0
LINE
  8
0
 10
355.406
 20
-9.02054
 11
355.721
 21
-9.27921
  0
LINE
  8
0
 10
355.721
 20
-9.27921
 11
355.979
 21
-9.59441
  0
LINE
  8
0
 10
355.979
 20
-9.59441
 11
356.172
 21
-9.95401
  0
LINE
  8
0
 10
356.172
 20
-9.95401
 11
356.29
 21
-10.3442
  0
LINE
  8
0
 10
356.29
 20
-10.3442
 11
356.33
 21
-10.75
  0
LINE
  8
0
 10
356.33
 20
-10.75
 11
356.29
 21
-11.1558
  0
LINE
  8
0
 10
356.29
 20
-11.1558
 11
356.172
 21
-11.546
  0
LINE
  8
0
 10
356.172
 20
-11.546
 11
355.979
 21
-11.9056
  0
LINE
  8
0
 10
355.979
 20
-11.9056
 11
355.721
 21
-12.2208
  0
LINE
  8
0
 10
355.721
 20
-12.2208
 11
355.406
 21
-12.4794
  0
LINE
  8
0
 10
355.406
 20
-12.4794
 11
355.046
 21
-12.6717
  0
LINE
  8
0
 10
355.046
 20
-12.6717
 11
354.656
 21
-12.79
  0
LINE
  8
0
 10
354.656
 20
-12.79
 11
354.25
 21
-12.83
  0
LINE
  8
0
 10
686
 20
-41.08
 11
685.594
 21
-41.04
  0
LINE
  8
0
 10
685.594
 20
-41.04
 11
685.204
 21
-40.9217
  0
LINE
  8
0
 10
685.204
 20
-40.9217
 11
684.844
 21
-40.7294
  0
LINE
  8
0
 10
684.844
 20
-40.7294
 11
684.529
 21
-40.4708
  0
LINE
  8
0
 10
684.529
 20
-40.4708
 11
684.271
 21
-40.1556
  0
LINE
  8
0
 10
684.271
 20
-40.1556
 11
684.078
 21
-39.796
  0
LINE
  8
0
 10
684.078
 20
-39.796
 11
683.96
 21
-39.4058
  0
LINE
  8
0
 10
683.96
 20
-39.4058
 11
683.92
 21
-39
  0
LINE
  8
0
 10
683.92
 20
-39
 11
683.96
 21
-38.5942
  0
LINE
  8
0
 10
683.96
 20
-38.5942
 11
684.078
 21
-38.204
  0
LINE
  8
0
 10
684.078
 20
-38.204
 11
684.271
 21
-37.8444
  0
LINE
  8
0
 10
684.271
 20
-37.8444
 11
684.529
 21
-37.5292
  0
LINE
  8
0
 10
684.529
 20
-37.5292
 11
684.844
 21
-37.2705
  0
LINE
  8
0
 10
684.844
 20
-37.2705
 11
685.204
 21
-37.0783
  0
LINE
  8
0
 10
685.204
 20
-37.0783
 11
685.594
 21
-36.96
  0
LINE
  8
0
 10
685.594
 20
-36.96
 11
686
 21
-36.92
  0
LINE
  8
0
 10
686
 20
-36.92
 11
686.406
 21
-36.96
  0
LINE
  8
0
 10
686.406
 20
-36.96
 11
686.796
 21
-37.0783
  0
LINE
  8
0
 10
686.796
 20
-37.0783
 11
687.156
 21
-37.2705
  0
LINE
  8
0
 10
687.156
 20
-37.2705
 11
687.471
 21
-37.5292
  0
LINE
  8
0
 10
687.471
 20
-37.5292
 11
687.729
 21
-37.8444
  0
LINE
  8
0
 10
687.729
 20
-37.8444
 11
687.922
 21
-38.204
  0
LINE
  8
0
 10
687.922
 20
-38.204
 11
688.04
 21
-38.5942
  0
LINE
  8
0
 10
688.04
 20
-38.5942
 11
688.08
 21
-39
  0
LINE
  8
0
 10
688.08
 20
-39
 11
688.04
 21
-39.4058
  0
LINE
  8
0
 10
688.04
 20
-39.4058
 11
687.922
 21
-39.796
  0
LINE
  8
0
 10
687.922
 20
-39.796
 11
687.729
 21
-40.1556
  0
LINE
  8
0
 10
687.729
 20
-40.1556
 11
687.471
 21
-40.4708
  0
LINE
  8
0
 10
687.471
 20
-40.4708
 11
687.156
 21
-40.7294
  0
LINE
  8
0
 10
687.156
 20
-40.7294
 11
686.796
 21
-40.9217
  0
LINE
  8
0
 10
686.796
 20
-40.9217
 11
686.406
 21
-41.04
  0
LINE
  8
0
 10
686.406
 20
-41.04
 11
686
 21
-41.08
  0
LINE
  8
0
 10
530
 20
-41.08
 11
529.594
 21
-41.04
  0
LINE
  8
0
 10
529.594
 20
-41.04
 11
529.204
 21
-40.9217
  0
LINE
  8
0
 10
529.204
 20
-40.9217
 11
528.844
 21
-40.7294
  0
LINE
  8
0
 10
528.844
 20
-40.7294
 11
528.529
 21
-40.4708
  0
LINE
  8
0
 10
528.529
 20
-40.4708
 11
528.271
 21
-40.1556
  0
LINE
  8
0
 10
528.271
 20
-40.1556
 11
528.078
 21
-39.796
  0
LINE
  8
0
 10
528.078
 20
-39.796
 11
527.96
 21
-39.4058
  0
LINE
  8
0
 10
527.96
 20
-39.4058
 11
527.92
 21
-39
  0
LINE
  8
0
 10
527.92
 20
-39
 11
527.96
 21
-38.5942
  0
LINE
  8
0
 10
527.96
 20
-38.5942
 11
528.078
 21
-38.204
  0
LINE
  8
0
 10
528.078
 20
-38.204
 11
528.271
 21
-37.8444
  0
LINE
  8
0
 10
528.271
 20
-37.8444
 11
528.529
 21
-37.5292
  0
LINE
  8
0
 10
528.529
 20
-37.5292
 11
528.844
 21
-37.2705
  0
LINE
  8
0
 10
528.844
 20
-37.2705
 11
529.204
 21
-37.0783
  0
LINE
  8
0
 10
529.204
 20
-37.0783
 11
529.594
 21
-36.96
  0
LINE
  8
0
 10
529.594
 20
-36.96
 11
530
 21
-36.92
  0
LINE
  8
0
 10
530
 20
-36.92
 11
530.406
 21
-36.96
  0
LINE
  8
0
 10
530.406
 20
-36.96
 11
530.796
 21
-37.0783
  0
LINE
  8
0
 10
530.796
 20
-37.0783
 11
531.156
 21
-37.2705
  0
LINE
  8
0
 10
531.156
 20
-37.2705
 11
531.471
 21
-37.5292
  0
LINE
  8
0
 10
531.471
 20
-37.5292
 11
531.729
 21
-37.8444
  0
LINE
  8
0
 10
531.729
 20
-37.8444
 11
531.922
 21
-38.204
  0
LINE
  8
0
 10
531.922
 20
-38.204
 11
532.04
 21
-38.5942
  0
LINE
  8
0
 10
532.04
 20
-38.5942
 11
532.08
 21
-39
  0
LINE
  8
0
 10
532.08
 20
-39
 11
532.04
 21
-39.4058
  0
LINE
  8
0
 10
532.04
 20
-39.4058
 11
531.922
 21
-39.796
  0
LINE
  8
0
 10
531.922
 20
-39.796
 11
531.729
 21
-40.1556
  0
LINE
  8
0
 10
531.729
 20
-40.1556
 11
531.471
 21
-40.4708
  0
LINE
  8
0
 10
531.471
 20
-40.4708
 11
531.156
 21
-40.7294
  0
LINE
  8
0
 10
531.156
 20
-40.7294
 11
530.796
 21
-40.9217
  0
LINE
  8
0
 10
530.796
 20
-40.9217
 11
530.406
 21
-41.04
  0
LINE
  8
0
 10
530.406
 20
-41.04
 11
530
 21
-41.08
  0
LINE
  8
0
 10
718.351
 20
-111.425
 11
711.958
 21
-109.486
  0
LINE
  8
0
 10
711.958
 20
-109.486
 11
706.066
 21
-106.336
  0
LINE
  8
0
 10
706.066
 20
-106.336
 11
700.902
 21
-102.098
  0
LINE
  8
0
 10
700.902
 20
-102.098
 11
696.664
 21
-96.9338
  0
LINE
  8
0
 10
696.664
 20
-96.9338
 11
693.514
 21
-91.0419
  0
LINE
  8
0
 10
693.514
 20
-91.0419
 11
691.575
 21
-84.6487
  0
LINE
  8
0
 10
691.575
 20
-84.6487
 11
690.92
 21
-78
  0
LINE
  8
0
 10
690.92
 20
-78
 11
691.575
 21
-71.3513
  0
LINE
  8
0
 10
691.575
 20
-71.3513
 11
693.514
 21
-64.9581
  0
LINE
  8
0
 10
693.514
 20
-64.9581
 11
696.664
 21
-59.0662
  0
LINE
  8
0
 10
696.664
 20
-59.0662
 11
700.902
 21
-53.9018
  0
LINE
  8
0
 10
700.902
 20
-53.9018
 11
706.066
 21
-49.6635
  0
LINE
  8
0
 10
706.066
 20
-49.6635
 11
711.958
 21
-46.5142
  0
LINE
  8
0
 10
711.958
 20
-46.5142
 11
718.351
 21
-44.5748
  0
LINE
  8
0
 10
718.351
 20
-44.5748
 11
725
 21
-43.92
  0
LINE
  8
0
 10
725
 20
-43.92
 11
731.649
 21
-44.5748
  0
LINE
  8
0
 10
731.649
 20
-44.5748
 11
738.042
 21
-46.5142
  0
LINE
  8
0
 10
738.042
 20
-46.5142
 11
743.934
 21
-49.6635
  0
LINE
  8
0
 10
743.934
 20
-49.6635
 11
749.098
 21
-53.9018
  0
LINE
  8
0
 10
749.098
 20
-53.9018
 11
753.336
 21
-59.0662
  0
LINE
  8
0
 10
753.336
 20
-59.0662
 11
756.486
 21
-64.9581
  0
LINE
  8
0
 10
756.486
 20
-64.9581
 11
758.425
 21
-71.3513
  0
LINE
  8
0
 10
758.425
 20
-71.3513
 11
759.08
 21
-78
  0
LINE
  8
0
 10
759.08
 20
-78
 11
758.425
 21
-84.6487
  0
LINE
  8
0
 10
758.425
 20
-84.6487
 11
756.486
 21
-91.0419
  0
LINE
  8
0
 10
756.486
 20
-91.0419
 11
753.336
 21
-96.9338
  0
LINE
  8
0
 10
753.336
 20
-96.9338
 11
749.098
 21
-102.098
  0
LINE
  8
0
 10
749.098
 20
-102.098
 11
743.934
 21
-106.336
  0
LINE
  8
0
 10
743.934
 20
-106.336
 11
738.042
 21
-109.486
  0
LINE
  8
0
 10
738.042
 20
-109.486
 11
731.649
 21
-111.425
  0
LINE
  8
0
 10
731.649
 20
-111.425
 11
725
 21
-112.08
  0
LINE
  8
0
 10
725
 20
-112.08
 11
718.351
 21
-111.425
  0
LINE
  8
0
 10
640.351
 20
-111.425
 11
633.958
 21
-109.486
  0
LINE
  8
0
 10
633.958
 20
-109.486
 11
628.066
 21
-106.336
  0
LINE
  8
0
 10
628.066
 20
-106.336
 11
622.902
 21
-102.098
  0
LINE
  8
0
 10
622.902
 20
-102.098
 11
618.664
 21
-96.9338
  0
LINE
  8
0
 10
618.664
 20
-96.9338
 11
615.514
 21
-91.0419
  0
LINE
  8
0
 10
615.514
 20
-91.0419
 11
613.575
 21
-84.6487
  0
LINE
  8
0
 10
613.575
 20
-84.6487
 11
612.92
 21
-78
  0
LINE
  8
0
 10
612.92
 20
-78
 11
613.575
 21
-71.3513
  0
LINE
  8
0
 10
613.575
 20
-71.3513
 11
615.514
 21
-64.9581
  0
LINE
  8
0
 10
615.514
 20
-64.9581
 11
618.664
 21
-59.0662
  0
LINE
  8
0
 10
618.664
 20
-59.0662
 11
622.902
 21
-53.9018
  0
LINE
  8
0
 10
622.902
 20
-53.9018
 11
628.066
 21
-49.6635
  0
LINE
  8
0
 10
628.066
 20
-49.6635
 11
633.958
 21
-46.5142
  0
LINE
  8
0
 10
633.958
 20
-46.5142
 11
640.351
 21
-44.5748
  0
LINE
  8
0
 10
640.351
 20
-44.5748
 11
647
 21
-43.92
  0
LINE
  8
0
 10
647
 20
-43.92
 11
653.649
 21
-44.5748
  0
LINE
  8
0
 10
653.649
 20
-44.5748
 11
660.042
 21
-46.5142
  0
LINE
  8
0
 10
660.042
 20
-46.5142
 11
665.934
 21
-49.6635
  0
LINE
  8
0
 10
665.934
 20
-49.6635
 11
671.098
 21
-53.9018
  0
LINE
  8
0
 10
671.098
 20
-53.9018
 11
675.336
 21
-59.0662
  0
LINE
  8
0
 10
675.336
 20
-59.0662
 11
678.486
 21
-64.9581
  0
LINE
  8
0
 10
678.486
 20
-64.9581
 11
680.425
 21
-71.3513
  0
LINE
  8
0
 10
680.425
 20
-71.3513
 11
681.08
 21
-78
  0
LINE
  8
0
 10
681.08
 20
-78
 11
680.425
 21
-84.6487
  0
LINE
  8
0
 10
680.425
 20
-84.6487
 11
678.486
 21
-91.0419
  0
LINE
  8
0
 10
678.486
 20
-91.0419
 11
675.336
 21
-96.9338
  0
LINE
  8
0
 10
675.336
 20
-96.9338
 11
671.098
 21
-102.098
  0
LINE
  8
0
 10
671.098
 20
-102.098
 11
665.934
 21
-106.336
  0
LINE
  8
0
 10
665.934
 20
-106.336
 11
660.042
 21
-109.486
  0
LINE
  8
0
 10
660.042
 20
-109.486
 11
653.649
 21
-111.425
  0
LINE
  8
0
 10
653.649
 20
-111.425
 11
647
 21
-112.08
  0
LINE
  8
0
 10
647
 20
-112.08
 11
640.351
 21
-111.425
  0
LINE
  8
0
 10
562.351
 20
-111.425
 11
555.958
 21
-109.486
  0
LINE
  8
0
 10
555.958
 20
-109.486
 11
550.066
 21
-106.336
  0
LINE
  8
0
 10
550.066
 20
-106.336
 11
544.902
 21
-102.098
  0
LINE
  8
0
 10
544.902
 20
-102.098
 11
540.664
 21
-96.9338
  0
LINE
  8
0
 10
540.664
 20
-96.9338
 11
537.514
 21
-91.0419
  0
LINE
  8
0
 10
537.514
 20
-91.0419
 11
535.575
 21
-84.6487
  0
LINE
  8
0
 10
535.575
 20
-84.6487
 11
534.92
 21
-78
  0
LINE
  8
0
 10
534.92
 20
-78
 11
535.575
 21
-71.3513
  0
LINE
  8
0
 10
535.575
 20
-71.3513
 11
537.514
 21
-64.9581
  0
LINE
  8
0
 10
537.514
 20
-64.9581
 11
540.664
 21
-59.0662
  0
LINE
  8
0
 10
540.664
 20
-59.0662
 11
544.902
 21
-53.9018
  0
LINE
  8
0
 10
544.902
 20
-53.9018
 11
550.066
 21
-49.6635
  0
LINE
  8
0
 10
550.066
 20
-49.6635
 11
555.958
 21
-46.5142
  0
LINE
  8
0
 10
555.958
 20
-46.5142
 11
562.351
 21
-44.5748
  0
LINE
  8
0
 10
562.351
 20
-44.5748
 11
569
 21
-43.92
  0
LINE
  8
0
 10
569
 20
-43.92
 11
575.649
 21
-44.5748
  0
LINE
  8
0
 10
575.649
 20
-44.5748
 11
582.042
 21
-46.5142
  0
LINE
  8
0
 10
582.042
 20
-46.5142
 11
587.934
 21
-49.6635
  0
LINE
  8
0
 10
587.934
 20
-49.6635
 11
593.098
 21
-53.9018
  0
LINE
  8
0
 10
593.098
 20
-53.9018
 11
597.336
 21
-59.0662
  0
LINE
  8
0
 10
597.336
 20
-59.0662
 11
600.486
 21
-64.9581
  0
LINE
  8
0
 10
600.486
 20
-64.9581
 11
602.425
 21
-71.3513
  0
LINE
  8
0
 10
602.425
 20
-71.3513
 11
603.08
 21
-78
  0
LINE
  8
0
 10
603.08
 20
-78
 11
602.425
 21
-84.6487
  0
LINE
  8
0
 10
602.425
 20
-84.6487
 11
600.486
 21
-91.0419
  0
LINE
  8
0
 10
600.486
 20
-91.0419
 11
597.336
 21
-96.9338
  0
LINE
  8
0
 10
597.336
 20
-96.9338
 11
593.098
 21
-102.098
  0
LINE
  8
0
 10
593.098
 20
-102.098
 11
587.934
 21
-106.336
  0
LINE
  8
0
 10
587.934
 20
-106.336
 11
582.042
 21
-109.486
  0
LINE
  8
0
 10
582.042
 20
-109.486
 11
575.649
 21
-111.425
  0
LINE
  8
0
 10
575.649
 20
-111.425
 11
569
 21
-112.08
  0
LINE
  8
0
 10
569
 20
-112.08
 11
562.351
 21
-111.425
  0
LINE
  8
0
 10
484.351
 20
-111.425
 11
477.958
 21
-109.486
  0
LINE
  8
0
 10
477.958
 20
-109.486
 11
472.066
 21
-106.336
  0
LINE
  8
0
 10
472.066
 20
-106.336
 11
466.902
 21
-102.098
  0
LINE
  8
0
 10
466.902
 20
-102.098
 11
462.664
 21
-96.9338
  0
LINE
  8
0
 10
462.664
 20
-96.9338
 11
459.514
 21
-91.0419
  0
LINE
  8
0
 10
459.514
 20
-91.0419
 11
457.575
 21
-84.6487
  0
LINE
  8
0
 10
457.575
 20
-84.6487
 11
456.92
 21
-78
  0
LINE
  8
0
 10
456.92
 20
-78
 11
457.575
 21
-71.3513
  0
LINE
  8
0
 10
457.575
 20
-71.3513
 11
459.514
 21
-64.9581
  0
LINE
  8
0
 10
459.514
 20
-64.9581
 11
462.664
 21
-59.0662
  0
LINE
  8
0
 10
462.664
 20
-59.0662
 11
466.902
 21
-53.9018
  0
LINE
  8
0
 10
466.902
 20
-53.9018
 11
472.066
 21
-49.6635
  0
LINE
  8
0
 10
472.066
 20
-49.6635
 11
477.958
 21
-46.5142
  0
LINE
  8
0
 10
477.958
 20
-46.5142
 11
484.351
 21
-44.5748
  0
LINE
  8
0
 10
484.351
 20
-44.5748
 11
491
 21
-43.92
  0
LINE
  8
0
 10
491
 20
-43.92
 11
497.649
 21
-44.5748
  0
LINE
  8
0
 10
497.649
 20
-44.5748
 11
504.042
 21
-46.5142
  0
LINE
  8
0
 10
504.042
 20
-46.5142
 11
509.934
 21
-49.6635
  0
LINE
  8
0
 10
509.934
 20
-49.6635
 11
515.098
 21
-53.9018
  0
LINE
  8
0
 10
515.098
 20
-53.9018
 11
519.336
 21
-59.0662
  0
LINE
  8
0
 10
519.336
 20
-59.0662
 11
522.486
 21
-64.9581
  0
LINE
  8
0
 10
522.486
 20
-64.9581
 11
524.425
 21
-71.3513
  0
LINE
  8
0
 10
524.425
 20
-71.3513
 11
525.08
 21
-78
  0
LINE
  8
0
 10
525.08
 20
-78
 11
524.425
 21
-84.6487
  0
LINE
  8
0
 10
524.425
 20
-84.6487
 11
522.486
 21
-91.0419
  0
LINE
  8
0
 10
522.486
 20
-91.0419
 11
519.336
 21
-96.9338
  0
LINE
  8
0
 10
519.336
 20
-96.9338
 11
515.098
 21
-102.098
  0
LINE
  8
0
 10
515.098
 20
-102.098
 11
509.934
 21
-106.336
  0
LINE
  8
0
 10
509.934
 20
-106.336
 11
504.042
 21
-109.486
  0
LINE
  8
0
 10
504.042
 20
-109.486
 11
497.649
 21
-111.425
  0
LINE
  8
0
 10
497.649
 20
-111.425
 11
491
 21
-112.08
  0
LINE
  8
0
 10
491
 20
-112.08
 11
484.351
 21
-111.425
  0
LINE
  8
0
 10
593.098
 20
53.9018
 11
587.934
 21
49.6635
  0
LINE
  8
0
 10
587.934
 20
49.6635
 11
582.042
 21
46.5142
  0
LINE
  8
0
 10
582.042
 20
46.5142
 11
575.649
 21
44.5748
  0
LINE
  8
0
 10
575.649
 20
44.5748
 11
569
 21
43.92
  0
LINE
  8
0
 10
569
 20
43.92
 11
562.351
 21
44.5748
  0
LINE
  8
0
 10
562.351
 20
44.5748
 11
555.958
 21
46.5142
  0
LINE
  8
0
 10
555.958
 20
46.5142
 11
550.066
 21
49.6635
  0
LINE
  8
0
 10
550.066
 20
49.6635
 11
544.902
 21
53.9018
  0
LINE
  8
0
 10
544.902
 20
53.9018
 11
540.664
 21
59.0662
  0
LINE
  8
0
 10
540.664
 20
59.0662
 11
537.514
 21
64.9581
  0
LINE
  8
0
 10
537.514
 20
64.9581
 11
535.575
 21
71.3513
  0
LINE
  8
0
 10
535.575
 20
71.3513
 11
534.92
 21
78
  0
LINE
  8
0
 10
534.92
 20
78
 11
535.575
 21
84.6487
  0
LINE
  8
0
 10
535.575
 20
84.6487
 11
537.514
 21
91.0419
  0
LINE
  8
0
 10
537.514
 20
91.0419
 11
540.664
 21
96.9338
  0
LINE
  8
0
 10
540.664
 20
96.9338
 11
544.902
 21
102.098
  0
LINE
  8
0
 10
544.902
 20
102.098
 11
550.066
 21
106.336
  0
LINE
  8
0
 10
550.066
 20
106.336
 11
555.958
 21
109.486
  0
LINE
  8
0
 10
555.958
 20
109.486
 11
562.351
 21
111.425
  0
LINE
  8
0
 10
562.351
 20
111.425
 11
569
 21
112.08
  0
LINE
  8
0
 10
569
 20
112.08
 11
575.649
 21
111.425
  0
LINE
  8
0
 10
575.649
 20
111.425
 11
582.042
 21
109.486
  0
LINE
  8
0
 10
582.042
 20
109.486
 11
587.934
 21
106.336
  0
LINE
  8
0
 10
587.934
 20
106.336
 11
593.098
 21
102.098
  0
LINE
  8
0
 10
593.098
 20
102.098
 11
597.336
 21
96.9338
  0
LINE
  8
0
 10
597.336
 20
96.9338
 11
600.486
 21
91.0419
  0
LINE
  8
0
 10
600.486
 20
91.0419
 11
602.425
 21
84.6487
  0
LINE
  8
0
 10
602.425
 20
84.6487
 11
603.08
 21
78
  0
LINE
  8
0
 10
603.08
 20
78
 11
602.425
 21
71.3513
  0
LINE
  8
0
 10
602.425
 20
71.3513
 11
600.486
 21
64.9581
  0
LINE
  8
0
 10
600.486
 20
64.9581
 11
597.336
 21
59.0662
  0
LINE
  8
0
 10
597.336
 20
59.0662
 11
593.098
 21
53.9018
  0
LINE
  8
0
 10
678.486
 20
-13.0418
 11
675.336
 21
-18.9338
  0
LINE
  8
0
 10
675.336
 20
-18.9338
 11
671.098
 21
-24.0982
  0
LINE
  8
0
 10
671.098
 20
-24.0982
 11
665.934
 21
-28.3365
  0
LINE
  8
0
 10
665.934
 20
-28.3365
 11
660.042
 21
-31.4858
  0
LINE
  8
0
 10
660.042
 20
-31.4858
 11
653.649
 21
-33.4252
  0
LINE
  8
0
 10
653.649
 20
-33.4252
 11
647
 21
-34.08
  0
LINE
  8
0
 10
647
 20
-34.08
 11
640.351
 21
-33.4252
  0
LINE
  8
0
 10
640.351
 20
-33.4252
 11
633.958
 21
-31.4858
  0
LINE
  8
0
 10
633.958
 20
-31.4858
 11
628.066
 21
-28.3365
  0
LINE
  8
0
 10
628.066
 20
-28.3365
 11
622.902
 21
-24.0982
  0
LINE
  8
0
 10
622.902
 20
-24.0982
 11
618.664
 21
-18.9338
  0
LINE
  8
0
 10
618.664
 20
-18.9338
 11
615.514
 21
-13.0418
  0
LINE
  8
0
 10
615.514
 20
-13.0418
 11
613.575
 21
-6.64867
  0
LINE
  8
0
 10
613.575
 20
-6.64867
 11
612.92
 21
0
  0
LINE
  8
0
 10
612.92
 20
0
 11
613.575
 21
6.64867
  0
LINE
  8
0
 10
613.575
 20
6.64867
 11
615.514
 21
13.0418
  0
LINE
  8
0
 10
615.514
 20
13.0418
 11
618.664
 21
18.9338
  0
LINE
  8
0
 10
618.664
 20
18.9338
 11
622.902
 21
24.0982
  0
LINE
  8
0
 10
622.902
 20
24.0982
 11
628.066
 21
28.3365
  0
LINE
  8
0
 10
628.066
 20
28.3365
 11
633.958
 21
31.4858
  0
LINE
  8
0
 10
633.958
 20
31.4858
 11
640.351
 21
33.4252
  0
LINE
  8
0
 10
640.351
 20
33.4252
 11
647
 21
34.08
  0
LINE
  8
0
 10
647
 20
34.08
 11
653.649
 21
33.4252
  0
LINE
  8
0
 10
653.649
 20
33.4252
 11
660.042
 21
31.4858
  0
LINE
  8
0
 10
660.042
 20
31.4858
 11
665.934
 21
28.3365
  0
LINE
  8
0
 10
665.934
 20
28.3365
 11
671.098
 21
24.0982
  0
LINE
  8
0
 10
671.098
 20
24.0982
 11
675.336
 21
18.9338
  0
LINE
  8
0
 10
675.336
 20
18.9338
 11
678.486
 21
13.0418
  0
LINE
  8
0
 10
678.486
 20
13.0418
 11
680.425
 21
6.64867
  0
LINE
  8
0
 10
680.425
 20
6.64867
 11
681.08
 21
0
  0
LINE
  8
0
 10
681.08
 20
0
 11
680.425
 21
-6.64867
  0
LINE
  8
0
 10
680.425
 20
-6.64867
 11
678.486
 21
-13.0418
  0
ENDSEC
  0
SECTION
  2
OBJECTS
  0
DICTIONARY
  0
ENDSEC
  0
EOF
