  0
SECTION
  2
BLOCKS
  0
ENDSEC
  0
SECTION
  2
ENTITIES
  0
LINE
  8
0
 10
270
 20
243
 11
-270
 21
243
  0
LINE
  8
0
 10
-270
 20
243
 11
-270
 21
-227
  0
LINE
  8
0
 10
-270
 20
-227
 11
270
 21
-227
  0
LINE
  8
0
 10
270
 20
-227
 11
270
 21
243
  0
LINE
  8
0
 10
-217.906
 20
227.96
 11
-218.296
 21
228.078
  0
LINE
  8
0
 10
-218.296
 20
228.078
 11
-218.656
 21
228.271
  0
LINE
  8
0
 10
-218.656
 20
228.271
 11
-218.971
 21
228.529
  0
LINE
  8
0
 10
-218.971
 20
228.529
 11
-219.229
 21
228.844
  0
LINE
  8
0
 10
-219.229
 20
228.844
 11
-219.422
 21
229.204
  0
LINE
  8
0
 10
-219.422
 20
229.204
 11
-219.54
 21
229.594
  0
LINE
  8
0
 10
-219.54
 20
229.594
 11
-219.58
 21
230
  0
LINE
  8
0
 10
-219.58
 20
230
 11
-219.54
 21
230.406
  0
LINE
  8
0
 10
-219.54
 20
230.406
 11
-219.422
 21
230.796
  0
LINE
  8
0
 10
-219.422
 20
230.796
 11
-219.229
 21
231.156
  0
LINE
  8
0
 10
-219.229
 20
231.156
 11
-218.971
 21
231.471
  0
LINE
  8
0
 10
-218.971
 20
231.471
 11
-218.656
 21
231.729
  0
LINE
  8
0
 10
-218.656
 20
231.729
 11
-218.296
 21
231.922
  0
LINE
  8
0
 10
-218.296
 20
231.922
 11
-217.906
 21
232.04
  0
LINE
  8
0
 10
-217.906
 20
232.04
 11
-217.5
 21
232.08
  0
LINE
  8
0
 10
-217.5
 20
232.08
 11
-217.094
 21
232.04
  0
LINE
  8
0
 10
-217.094
 20
232.04
 11
-216.704
 21
231.922
  0
LINE
  8
0
 10
-216.704
 20
231.922
 11
-216.344
 21
231.729
  0
LINE
  8
0
 10
-216.344
 20
231.729
 11
-216.029
 21
231.471
  0
LINE
  8
0
 10
-216.029
 20
231.471
 11
-215.771
 21
231.156
  0
LINE
  8
0
 10
-215.771
 20
231.156
 11
-215.578
 21
230.796
  0
LINE
  8
0
 10
-215.578
 20
230.796
 11
-215.46
 21
230.406
  0
LINE
  8
0
 10
-215.46
 20
230.406
 11
-215.42
 21
230
  0
LINE
  8
0
 10
-215.42
 20
230
 11
-215.46
 21
229.594
  0
LINE
  8
0
 10
-215.46
 20
229.594
 11
-215.578
 21
229.204
  0
LINE
  8
0
 10
-215.578
 20
229.204
 11
-215.771
 21
228.844
  0
LINE
  8
0
 10
-215.771
 20
228.844
 11
-216.029
 21
228.529
  0
LINE
  8
0
 10
-216.029
 20
228.529
 11
-216.344
 21
228.271
  0
LINE
  8
0
 10
-216.344
 20
228.271
 11
-216.704
 21
228.078
  0
LINE
  8
0
 10
-216.704
 20
228.078
 11
-217.094
 21
227.96
  0
LINE
  8
0
 10
-217.094
 20
227.96
 11
-217.5
 21
227.92
  0
LINE
  8
0
 10
-217.5
 20
227.92
 11
-217.906
 21
227.96
  0
LINE
  8
0
 10
-72.9058
 20
227.96
 11
-73.296
 21
228.078
  0
LINE
  8
0
 10
-73.296
 20
228.078
 11
-73.6556
 21
228.271
  0
LINE
  8
0
 10
-73.6556
 20
228.271
 11
-73.9708
 21
228.529
  0
LINE
  8
0
 10
-73.9708
 20
228.529
 11
-74.2294
 21
228.844
  0
LINE
  8
0
 10
-74.2294
 20
228.844
 11
-74.4217
 21
229.204
  0
LINE
  8
0
 10
-74.4217
 20
229.204
 11
-74.54
 21
229.594
  0
LINE
  8
0
 10
-74.54
 20
229.594
 11
-74.58
 21
230
  0
LINE
  8
0
 10
-74.58
 20
230
 11
-74.54
 21
230.406
  0
LINE
  8
0
 10
-74.54
 20
230.406
 11
-74.4217
 21
230.796
  0
LINE
  8
0
 10
-74.4217
 20
230.796
 11
-74.2294
 21
231.156
  0
LINE
  8
0
 10
-74.2294
 20
231.156
 11
-73.9708
 21
231.471
  0
LINE
  8
0
 10
-73.9708
 20
231.471
 11
-73.6556
 21
231.729
  0
LINE
  8
0
 10
-73.6556
 20
231.729
 11
-73.296
 21
231.922
  0
LINE
  8
0
 10
-73.296
 20
231.922
 11
-72.9058
 21
232.04
  0
LINE
  8
0
 10
-72.9058
 20
232.04
 11
-72.5
 21
232.08
  0
LINE
  8
0
 10
-72.5
 20
232.08
 11
-72.0942
 21
232.04
  0
LINE
  8
0
 10
-72.0942
 20
232.04
 11
-71.704
 21
231.922
  0
LINE
  8
0
 10
-71.704
 20
231.922
 11
-71.3444
 21
231.729
  0
LINE
  8
0
 10
-71.3444
 20
231.729
 11
-71.0292
 21
231.471
  0
LINE
  8
0
 10
-71.0292
 20
231.471
 11
-70.7705
 21
231.156
  0
LINE
  8
0
 10
-70.7705
 20
231.156
 11
-70.5783
 21
230.796
  0
LINE
  8
0
 10
-70.5783
 20
230.796
 11
-70.46
 21
230.406
  0
LINE
  8
0
 10
-70.46
 20
230.406
 11
-70.42
 21
230
  0
LINE
  8
0
 10
-70.42
 20
230
 11
-70.46
 21
229.594
  0
LINE
  8
0
 10
-70.46
 20
229.594
 11
-70.5783
 21
229.204
  0
LINE
  8
0
 10
-70.5783
 20
229.204
 11
-70.7705
 21
228.844
  0
LINE
  8
0
 10
-70.7705
 20
228.844
 11
-71.0292
 21
228.529
  0
LINE
  8
0
 10
-71.0292
 20
228.529
 11
-71.3444
 21
228.271
  0
LINE
  8
0
 10
-71.3444
 20
228.271
 11
-71.704
 21
228.078
  0
LINE
  8
0
 10
-71.704
 20
228.078
 11
-72.0942
 21
227.96
  0
LINE
  8
0
 10
-72.0942
 20
227.96
 11
-72.5
 21
227.92
  0
LINE
  8
0
 10
-72.5
 20
227.92
 11
-72.9058
 21
227.96
  0
LINE
  8
0
 10
73.296
 20
231.922
 11
73.6556
 21
231.729
  0
LINE
  8
0
 10
73.6556
 20
231.729
 11
73.9708
 21
231.471
  0
LINE
  8
0
 10
73.9708
 20
231.471
 11
74.2294
 21
231.156
  0
LINE
  8
0
 10
74.2294
 20
231.156
 11
74.4217
 21
230.796
  0
LINE
  8
0
 10
74.4217
 20
230.796
 11
74.54
 21
230.406
  0
LINE
  8
0
 10
74.54
 20
230.406
 11
74.58
 21
230
  0
LINE
  8
0
 10
74.58
 20
230
 11
74.54
 21
229.594
  0
LINE
  8
0
 10
74.54
 20
229.594
 11
74.4217
 21
229.204
  0
LINE
  8
0
 10
74.4217
 20
229.204
 11
74.2294
 21
228.844
  0
LINE
  8
0
 10
74.2294
 20
228.844
 11
73.9708
 21
228.529
  0
LINE
  8
0
 10
73.9708
 20
228.529
 11
73.6556
 21
228.271
  0
LINE
  8
0
 10
73.6556
 20
228.271
 11
73.296
 21
228.078
  0
LINE
  8
0
 10
73.296
 20
228.078
 11
72.9058
 21
227.96
  0
LINE
  8
0
 10
72.9058
 20
227.96
 11
72.5
 21
227.92
  0
LINE
  8
0
 10
72.5
 20
227.92
 11
72.0942
 21
227.96
  0
LINE
  8
0
 10
72.0942
 20
227.96
 11
71.704
 21
228.078
  0
LINE
  8
0
 10
71.704
 20
228.078
 11
71.3444
 21
228.271
  0
LINE
  8
0
 10
71.3444
 20
228.271
 11
71.0292
 21
228.529
  0
LINE
  8
0
 10
71.0292
 20
228.529
 11
70.7705
 21
228.844
  0
LINE
  8
0
 10
70.7705
 20
228.844
 11
70.5783
 21
229.204
  0
LINE
  8
0
 10
70.5783
 20
229.204
 11
70.46
 21
229.594
  0
LINE
  8
0
 10
70.46
 20
229.594
 11
70.42
 21
230
  0
LINE
  8
0
 10
70.42
 20
230
 11
70.46
 21
230.406
  0
LINE
  8
0
 10
70.46
 20
230.406
 11
70.5783
 21
230.796
  0
LINE
  8
0
 10
70.5783
 20
230.796
 11
70.7705
 21
231.156
  0
LINE
  8
0
 10
70.7705
 20
231.156
 11
71.0292
 21
231.471
  0
LINE
  8
0
 10
71.0292
 20
231.471
 11
71.3444
 21
231.729
  0
LINE
  8
0
 10
71.3444
 20
231.729
 11
71.704
 21
231.922
  0
LINE
  8
0
 10
71.704
 20
231.922
 11
72.0942
 21
232.04
  0
LINE
  8
0
 10
72.0942
 20
232.04
 11
72.5
 21
232.08
  0
LINE
  8
0
 10
72.5
 20
232.08
 11
72.9058
 21
232.04
  0
LINE
  8
0
 10
72.9058
 20
232.04
 11
73.296
 21
231.922
  0
LINE
  8
0
 10
217.094
 20
227.96
 11
216.704
 21
228.078
  0
LINE
  8
0
 10
216.704
 20
228.078
 11
216.344
 21
228.271
  0
LINE
  8
0
 10
216.344
 20
228.271
 11
216.029
 21
228.529
  0
LINE
  8
0
 10
216.029
 20
228.529
 11
215.771
 21
228.844
  0
LINE
  8
0
 10
215.771
 20
228.844
 11
215.578
 21
229.204
  0
LINE
  8
0
 10
215.578
 20
229.204
 11
215.46
 21
229.594
  0
LINE
  8
0
 10
215.46
 20
229.594
 11
215.42
 21
230
  0
LINE
  8
0
 10
215.42
 20
230
 11
215.46
 21
230.406
  0
LINE
  8
0
 10
215.46
 20
230.406
 11
215.578
 21
230.796
  0
LINE
  8
0
 10
215.578
 20
230.796
 11
215.771
 21
231.156
  0
LINE
  8
0
 10
215.771
 20
231.156
 11
216.029
 21
231.471
  0
LINE
  8
0
 10
216.029
 20
231.471
 11
216.344
 21
231.729
  0
LINE
  8
0
 10
216.344
 20
231.729
 11
216.704
 21
231.922
  0
LINE
  8
0
 10
216.704
 20
231.922
 11
217.094
 21
232.04
  0
LINE
  8
0
 10
217.094
 20
232.04
 11
217.5
 21
232.08
  0
LINE
  8
0
 10
217.5
 20
232.08
 11
217.906
 21
232.04
  0
LINE
  8
0
 10
217.906
 20
232.04
 11
218.296
 21
231.922
  0
LINE
  8
0
 10
218.296
 20
231.922
 11
218.656
 21
231.729
  0
LINE
  8
0
 10
218.656
 20
231.729
 11
218.971
 21
231.471
  0
LINE
  8
0
 10
218.971
 20
231.471
 11
219.229
 21
231.156
  0
LINE
  8
0
 10
219.229
 20
231.156
 11
219.422
 21
230.796
  0
LINE
  8
0
 10
219.422
 20
230.796
 11
219.54
 21
230.406
  0
LINE
  8
0
 10
219.54
 20
230.406
 11
219.58
 21
230
  0
LINE
  8
0
 10
219.58
 20
230
 11
219.54
 21
229.594
  0
LINE
  8
0
 10
219.54
 20
229.594
 11
219.422
 21
229.204
  0
LINE
  8
0
 10
219.422
 20
229.204
 11
219.229
 21
228.844
  0
LINE
  8
0
 10
219.229
 20
228.844
 11
218.971
 21
228.529
  0
LINE
  8
0
 10
218.971
 20
228.529
 11
218.656
 21
228.271
  0
LINE
  8
0
 10
218.656
 20
228.271
 11
218.296
 21
228.078
  0
LINE
  8
0
 10
218.296
 20
228.078
 11
217.906
 21
227.96
  0
LINE
  8
0
 10
217.906
 20
227.96
 11
217.5
 21
227.92
  0
LINE
  8
0
 10
217.5
 20
227.92
 11
217.094
 21
227.96
  0
LINE
  8
0
 10
-161.406
 20
162.96
 11
-161.796
 21
163.078
  0
LINE
  8
0
 10
-161.796
 20
163.078
 11
-162.156
 21
163.271
  0
LINE
  8
0
 10
-162.156
 20
163.271
 11
-162.471
 21
163.529
  0
LINE
  8
0
 10
-162.471
 20
163.529
 11
-162.729
 21
163.844
  0
LINE
  8
0
 10
-162.729
 20
163.844
 11
-162.922
 21
164.204
  0
LINE
  8
0
 10
-162.922
 20
164.204
 11
-163.04
 21
164.594
  0
LINE
  8
0
 10
-163.04
 20
164.594
 11
-163.08
 21
165
  0
LINE
  8
0
 10
-163.08
 20
165
 11
-163.04
 21
165.406
  0
LINE
  8
0
 10
-163.04
 20
165.406
 11
-162.922
 21
165.796
  0
LINE
  8
0
 10
-162.922
 20
165.796
 11
-162.729
 21
166.156
  0
LINE
  8
0
 10
-162.729
 20
166.156
 11
-162.471
 21
166.471
  0
LINE
  8
0
 10
-162.471
 20
166.471
 11
-162.156
 21
166.729
  0
LINE
  8
0
 10
-162.156
 20
166.729
 11
-161.796
 21
166.922
  0
LINE
  8
0
 10
-161.796
 20
166.922
 11
-161.406
 21
167.04
  0
LINE
  8
0
 10
-161.406
 20
167.04
 11
-161
 21
167.08
  0
LINE
  8
0
 10
-161
 20
167.08
 11
-160.594
 21
167.04
  0
LINE
  8
0
 10
-160.594
 20
167.04
 11
-160.204
 21
166.922
  0
LINE
  8
0
 10
-160.204
 20
166.922
 11
-159.844
 21
166.729
  0
LINE
  8
0
 10
-159.844
 20
166.729
 11
-159.529
 21
166.471
  0
LINE
  8
0
 10
-159.529
 20
166.471
 11
-159.271
 21
166.156
  0
LINE
  8
0
 10
-159.271
 20
166.156
 11
-159.078
 21
165.796
  0
LINE
  8
0
 10
-159.078
 20
165.796
 11
-158.96
 21
165.406
  0
LINE
  8
0
 10
-158.96
 20
165.406
 11
-158.92
 21
165
  0
LINE
  8
0
 10
-158.92
 20
165
 11
-158.96
 21
164.594
  0
LINE
  8
0
 10
-158.96
 20
164.594
 11
-159.078
 21
164.204
  0
LINE
  8
0
 10
-159.078
 20
164.204
 11
-159.271
 21
163.844
  0
LINE
  8
0
 10
-159.271
 20
163.844
 11
-159.529
 21
163.529
  0
LINE
  8
0
 10
-159.529
 20
163.529
 11
-159.844
 21
163.271
  0
LINE
  8
0
 10
-159.844
 20
163.271
 11
-160.204
 21
163.078
  0
LINE
  8
0
 10
-160.204
 20
163.078
 11
-160.594
 21
162.96
  0
LINE
  8
0
 10
-160.594
 20
162.96
 11
-161
 21
162.92
  0
LINE
  8
0
 10
-161
 20
162.92
 11
-161.406
 21
162.96
  0
LINE
  8
0
 10
160.594
 20
162.96
 11
160.204
 21
163.078
  0
LINE
  8
0
 10
160.204
 20
163.078
 11
159.844
 21
163.271
  0
LINE
  8
0
 10
159.844
 20
163.271
 11
159.529
 21
163.529
  0
LINE
  8
0
 10
159.529
 20
163.529
 11
159.271
 21
163.844
  0
LINE
  8
0
 10
159.271
 20
163.844
 11
159.078
 21
164.204
  0
LINE
  8
0
 10
159.078
 20
164.204
 11
158.96
 21
164.594
  0
LINE
  8
0
 10
158.96
 20
164.594
 11
158.92
 21
165
  0
LINE
  8
0
 10
158.92
 20
165
 11
158.96
 21
165.406
  0
LINE
  8
0
 10
158.96
 20
165.406
 11
159.078
 21
165.796
  0
LINE
  8
0
 10
159.078
 20
165.796
 11
159.271
 21
166.156
  0
LINE
  8
0
 10
159.271
 20
166.156
 11
159.529
 21
166.471
  0
LINE
  8
0
 10
159.529
 20
166.471
 11
159.844
 21
166.729
  0
LINE
  8
0
 10
159.844
 20
166.729
 11
160.204
 21
166.922
  0
LINE
  8
0
 10
160.204
 20
166.922
 11
160.594
 21
167.04
  0
LINE
  8
0
 10
160.594
 20
167.04
 11
161
 21
167.08
  0
LINE
  8
0
 10
161
 20
167.08
 11
161.406
 21
167.04
  0
LINE
  8
0
 10
161.406
 20
167.04
 11
161.796
 21
166.922
  0
LINE
  8
0
 10
161.796
 20
166.922
 11
162.156
 21
166.729
  0
LINE
  8
0
 10
162.156
 20
166.729
 11
162.471
 21
166.471
  0
LINE
  8
0
 10
162.471
 20
166.471
 11
162.729
 21
166.156
  0
LINE
  8
0
 10
162.729
 20
166.156
 11
162.922
 21
165.796
  0
LINE
  8
0
 10
162.922
 20
165.796
 11
163.04
 21
165.406
  0
LINE
  8
0
 10
163.04
 20
165.406
 11
163.08
 21
165
  0
LINE
  8
0
 10
163.08
 20
165
 11
163.04
 21
164.594
  0
LINE
  8
0
 10
163.04
 20
164.594
 11
162.922
 21
164.204
  0
LINE
  8
0
 10
162.922
 20
164.204
 11
162.729
 21
163.844
  0
LINE
  8
0
 10
162.729
 20
163.844
 11
162.471
 21
163.529
  0
LINE
  8
0
 10
162.471
 20
163.529
 11
162.156
 21
163.271
  0
LINE
  8
0
 10
162.156
 20
163.271
 11
161.796
 21
163.078
  0
LINE
  8
0
 10
161.796
 20
163.078
 11
161.406
 21
162.96
  0
LINE
  8
0
 10
161.406
 20
162.96
 11
161
 21
162.92
  0
LINE
  8
0
 10
161
 20
162.92
 11
160.594
 21
162.96
  0
LINE
  8
0
 10
160.594
 20
52.96
 11
160.204
 21
53.0783
  0
LINE
  8
0
 10
160.204
 20
53.0783
 11
159.844
 21
53.2705
  0
LINE
  8
0
 10
159.844
 20
53.2705
 11
159.529
 21
53.5292
  0
LINE
  8
0
 10
159.529
 20
53.5292
 11
159.271
 21
53.8444
  0
LINE
  8
0
 10
159.271
 20
53.8444
 11
159.078
 21
54.204
  0
LINE
  8
0
 10
159.078
 20
54.204
 11
158.96
 21
54.5942
  0
LINE
  8
0
 10
158.96
 20
54.5942
 11
158.92
 21
55
  0
LINE
  8
0
 10
158.92
 20
55
 11
158.96
 21
55.4058
  0
LINE
  8
0
 10
158.96
 20
55.4058
 11
159.078
 21
55.796
  0
LINE
  8
0
 10
159.078
 20
55.796
 11
159.271
 21
56.1556
  0
LINE
  8
0
 10
159.271
 20
56.1556
 11
159.529
 21
56.4708
  0
LINE
  8
0
 10
159.529
 20
56.4708
 11
159.844
 21
56.7294
  0
LINE
  8
0
 10
159.844
 20
56.7294
 11
160.204
 21
56.9217
  0
LINE
  8
0
 10
160.204
 20
56.9217
 11
160.594
 21
57.04
  0
LINE
  8
0
 10
160.594
 20
57.04
 11
161
 21
57.08
  0
LINE
  8
0
 10
161
 20
57.08
 11
161.406
 21
57.04
  0
LINE
  8
0
 10
161.406
 20
57.04
 11
161.796
 21
56.9217
  0
LINE
  8
0
 10
161.796
 20
56.9217
 11
162.156
 21
56.7294
  0
LINE
  8
0
 10
162.156
 20
56.7294
 11
162.471
 21
56.4708
  0
LINE
  8
0
 10
162.471
 20
56.4708
 11
162.729
 21
56.1556
  0
LINE
  8
0
 10
162.729
 20
56.1556
 11
162.922
 21
55.796
  0
LINE
  8
0
 10
162.922
 20
55.796
 11
163.04
 21
55.4058
  0
LINE
  8
0
 10
163.04
 20
55.4058
 11
163.08
 21
55
  0
LINE
  8
0
 10
163.08
 20
55
 11
163.04
 21
54.5942
  0
LINE
  8
0
 10
163.04
 20
54.5942
 11
162.922
 21
54.204
  0
LINE
  8
0
 10
162.922
 20
54.204
 11
162.729
 21
53.8444
  0
LINE
  8
0
 10
162.729
 20
53.8444
 11
162.471
 21
53.5292
  0
LINE
  8
0
 10
162.471
 20
53.5292
 11
162.156
 21
53.2705
  0
LINE
  8
0
 10
162.156
 20
53.2705
 11
161.796
 21
53.0783
  0
LINE
  8
0
 10
161.796
 20
53.0783
 11
161.406
 21
52.96
  0
LINE
  8
0
 10
161.406
 20
52.96
 11
161
 21
52.92
  0
LINE
  8
0
 10
161
 20
52.92
 11
160.594
 21
52.96
  0
LINE
  8
0
 10
-161.406
 20
52.96
 11
-161.796
 21
53.0783
  0
LINE
  8
0
 10
-161.796
 20
53.0783
 11
-162.156
 21
53.2705
  0
LINE
  8
0
 10
-162.156
 20
53.2705
 11
-162.471
 21
53.5292
  0
LINE
  8
0
 10
-162.471
 20
53.5292
 11
-162.729
 21
53.8444
  0
LINE
  8
0
 10
-162.729
 20
53.8444
 11
-162.922
 21
54.204
  0
LINE
  8
0
 10
-162.922
 20
54.204
 11
-163.04
 21
54.5942
  0
LINE
  8
0
 10
-163.04
 20
54.5942
 11
-163.08
 21
55
  0
LINE
  8
0
 10
-163.08
 20
55
 11
-163.04
 21
55.4058
  0
LINE
  8
0
 10
-163.04
 20
55.4058
 11
-162.922
 21
55.796
  0
LINE
  8
0
 10
-162.922
 20
55.796
 11
-162.729
 21
56.1556
  0
LINE
  8
0
 10
-162.729
 20
56.1556
 11
-162.471
 21
56.4708
  0
LINE
  8
0
 10
-162.471
 20
56.4708
 11
-162.156
 21
56.7294
  0
LINE
  8
0
 10
-162.156
 20
56.7294
 11
-161.796
 21
56.9217
  0
LINE
  8
0
 10
-161.796
 20
56.9217
 11
-161.406
 21
57.04
  0
LINE
  8
0
 10
-161.406
 20
57.04
 11
-161
 21
57.08
  0
LINE
  8
0
 10
-161
 20
57.08
 11
-160.594
 21
57.04
  0
LINE
  8
0
 10
-160.594
 20
57.04
 11
-160.204
 21
56.9217
  0
LINE
  8
0
 10
-160.204
 20
56.9217
 11
-159.844
 21
56.7294
  0
LINE
  8
0
 10
-159.844
 20
56.7294
 11
-159.529
 21
56.4708
  0
LINE
  8
0
 10
-159.529
 20
56.4708
 11
-159.271
 21
56.1556
  0
LINE
  8
0
 10
-159.271
 20
56.1556
 11
-159.078
 21
55.796
  0
LINE
  8
0
 10
-159.078
 20
55.796
 11
-158.96
 21
55.4058
  0
LINE
  8
0
 10
-158.96
 20
55.4058
 11
-158.92
 21
55
  0
LINE
  8
0
 10
-158.92
 20
55
 11
-158.96
 21
54.5942
  0
LINE
  8
0
 10
-158.96
 20
54.5942
 11
-159.078
 21
54.204
  0
LINE
  8
0
 10
-159.078
 20
54.204
 11
-159.271
 21
53.8444
  0
LINE
  8
0
 10
-159.271
 20
53.8444
 11
-159.529
 21
53.5292
  0
LINE
  8
0
 10
-159.529
 20
53.5292
 11
-159.844
 21
53.2705
  0
LINE
  8
0
 10
-159.844
 20
53.2705
 11
-160.204
 21
53.0783
  0
LINE
  8
0
 10
-160.204
 20
53.0783
 11
-160.594
 21
52.96
  0
LINE
  8
0
 10
-160.594
 20
52.96
 11
-161
 21
52.92
  0
LINE
  8
0
 10
-161
 20
52.92
 11
-161.406
 21
52.96
  0
LINE
  8
0
 10
-185.406
 20
-20.04
 11
-185.796
 21
-19.9217
  0
LINE
  8
0
 10
-185.796
 20
-19.9217
 11
-186.156
 21
-19.7294
  0
LINE
  8
0
 10
-186.156
 20
-19.7294
 11
-186.471
 21
-19.4708
  0
LINE
  8
0
 10
-186.471
 20
-19.4708
 11
-186.729
 21
-19.1556
  0
LINE
  8
0
 10
-186.729
 20
-19.1556
 11
-186.922
 21
-18.796
  0
LINE
  8
0
 10
-186.922
 20
-18.796
 11
-187.04
 21
-18.4058
  0
LINE
  8
0
 10
-187.04
 20
-18.4058
 11
-187.08
 21
-18
  0
LINE
  8
0
 10
-187.08
 20
-18
 11
-187.04
 21
-17.5942
  0
LINE
  8
0
 10
-187.04
 20
-17.5942
 11
-186.922
 21
-17.204
  0
LINE
  8
0
 10
-186.922
 20
-17.204
 11
-186.729
 21
-16.8444
  0
LINE
  8
0
 10
-186.729
 20
-16.8444
 11
-186.471
 21
-16.5292
  0
LINE
  8
0
 10
-186.471
 20
-16.5292
 11
-186.156
 21
-16.2705
  0
LINE
  8
0
 10
-186.156
 20
-16.2705
 11
-185.796
 21
-16.0783
  0
LINE
  8
0
 10
-185.796
 20
-16.0783
 11
-185.406
 21
-15.96
  0
LINE
  8
0
 10
-185.406
 20
-15.96
 11
-185
 21
-15.92
  0
LINE
  8
0
 10
-185
 20
-15.92
 11
-184.594
 21
-15.96
  0
LINE
  8
0
 10
-184.594
 20
-15.96
 11
-184.204
 21
-16.0783
  0
LINE
  8
0
 10
-184.204
 20
-16.0783
 11
-183.844
 21
-16.2705
  0
LINE
  8
0
 10
-183.844
 20
-16.2705
 11
-183.529
 21
-16.5292
  0
LINE
  8
0
 10
-183.529
 20
-16.5292
 11
-183.271
 21
-16.8444
  0
LINE
  8
0
 10
-183.271
 20
-16.8444
 11
-183.078
 21
-17.204
  0
LINE
  8
0
 10
-183.078
 20
-17.204
 11
-182.96
 21
-17.5942
  0
LINE
  8
0
 10
-182.96
 20
-17.5942
 11
-182.92
 21
-18
  0
LINE
  8
0
 10
-182.92
 20
-18
 11
-182.96
 21
-18.4058
  0
LINE
  8
0
 10
-182.96
 20
-18.4058
 11
-183.078
 21
-18.796
  0
LINE
  8
0
 10
-183.078
 20
-18.796
 11
-183.271
 21
-19.1556
  0
LINE
  8
0
 10
-183.271
 20
-19.1556
 11
-183.529
 21
-19.4708
  0
LINE
  8
0
 10
-183.529
 20
-19.4708
 11
-183.844
 21
-19.7294
  0
LINE
  8
0
 10
-183.844
 20
-19.7294
 11
-184.204
 21
-19.9217
  0
LINE
  8
0
 10
-184.204
 20
-19.9217
 11
-184.594
 21
-20.04
  0
LINE
  8
0
 10
-184.594
 20
-20.04
 11
-185
 21
-20.08
  0
LINE
  8
0
 10
-185
 20
-20.08
 11
-185.406
 21
-20.04
  0
LINE
  8
0
 10
184.594
 20
-20.04
 11
184.204
 21
-19.9217
  0
LINE
  8
0
 10
184.204
 20
-19.9217
 11
183.844
 21
-19.7294
  0
LINE
  8
0
 10
183.844
 20
-19.7294
 11
183.529
 21
-19.4708
  0
LINE
  8
0
 10
183.529
 20
-19.4708
 11
183.271
 21
-19.1556
  0
LINE
  8
0
 10
183.271
 20
-19.1556
 11
183.078
 21
-18.796
  0
LINE
  8
0
 10
183.078
 20
-18.796
 11
182.96
 21
-18.4058
  0
LINE
  8
0
 10
182.96
 20
-18.4058
 11
182.92
 21
-18
  0
LINE
  8
0
 10
182.92
 20
-18
 11
182.96
 21
-17.5942
  0
LINE
  8
0
 10
182.96
 20
-17.5942
 11
183.078
 21
-17.204
  0
LINE
  8
0
 10
183.078
 20
-17.204
 11
183.271
 21
-16.8444
  0
LINE
  8
0
 10
183.271
 20
-16.8444
 11
183.529
 21
-16.5292
  0
LINE
  8
0
 10
183.529
 20
-16.5292
 11
183.844
 21
-16.2705
  0
LINE
  8
0
 10
183.844
 20
-16.2705
 11
184.204
 21
-16.0783
  0
LINE
  8
0
 10
184.204
 20
-16.0783
 11
184.594
 21
-15.96
  0
LINE
  8
0
 10
184.594
 20
-15.96
 11
185
 21
-15.92
  0
LINE
  8
0
 10
185
 20
-15.92
 11
185.406
 21
-15.96
  0
LINE
  8
0
 10
185.406
 20
-15.96
 11
185.796
 21
-16.0783
  0
LINE
  8
0
 10
185.796
 20
-16.0783
 11
186.156
 21
-16.2705
  0
LINE
  8
0
 10
186.156
 20
-16.2705
 11
186.471
 21
-16.5292
  0
LINE
  8
0
 10
186.471
 20
-16.5292
 11
186.729
 21
-16.8444
  0
LINE
  8
0
 10
186.729
 20
-16.8444
 11
186.922
 21
-17.204
  0
LINE
  8
0
 10
186.922
 20
-17.204
 11
187.04
 21
-17.5942
  0
LINE
  8
0
 10
187.04
 20
-17.5942
 11
187.08
 21
-18
  0
LINE
  8
0
 10
187.08
 20
-18
 11
187.04
 21
-18.4058
  0
LINE
  8
0
 10
187.04
 20
-18.4058
 11
186.922
 21
-18.796
  0
LINE
  8
0
 10
186.922
 20
-18.796
 11
186.729
 21
-19.1556
  0
LINE
  8
0
 10
186.729
 20
-19.1556
 11
186.471
 21
-19.4708
  0
LINE
  8
0
 10
186.471
 20
-19.4708
 11
186.156
 21
-19.7294
  0
LINE
  8
0
 10
186.156
 20
-19.7294
 11
185.796
 21
-19.9217
  0
LINE
  8
0
 10
185.796
 20
-19.9217
 11
185.406
 21
-20.04
  0
LINE
  8
0
 10
185.406
 20
-20.04
 11
185
 21
-20.08
  0
LINE
  8
0
 10
185
 20
-20.08
 11
184.594
 21
-20.04
  0
LINE
  8
0
 10
234.594
 20
-20.04
 11
234.204
 21
-19.9217
  0
LINE
  8
0
 10
234.204
 20
-19.9217
 11
233.844
 21
-19.7294
  0
LINE
  8
0
 10
233.844
 20
-19.7294
 11
233.529
 21
-19.4708
  0
LINE
  8
0
 10
233.529
 20
-19.4708
 11
233.271
 21
-19.1556
  0
LINE
  8
0
 10
233.271
 20
-19.1556
 11
233.078
 21
-18.796
  0
LINE
  8
0
 10
233.078
 20
-18.796
 11
232.96
 21
-18.4058
  0
LINE
  8
0
 10
232.96
 20
-18.4058
 11
232.92
 21
-18
  0
LINE
  8
0
 10
232.92
 20
-18
 11
232.96
 21
-17.5942
  0
LINE
  8
0
 10
232.96
 20
-17.5942
 11
233.078
 21
-17.204
  0
LINE
  8
0
 10
233.078
 20
-17.204
 11
233.271
 21
-16.8444
  0
LINE
  8
0
 10
233.271
 20
-16.8444
 11
233.529
 21
-16.5292
  0
LINE
  8
0
 10
233.529
 20
-16.5292
 11
233.844
 21
-16.2705
  0
LINE
  8
0
 10
233.844
 20
-16.2705
 11
234.204
 21
-16.0783
  0
LINE
  8
0
 10
234.204
 20
-16.0783
 11
234.594
 21
-15.96
  0
LINE
  8
0
 10
234.594
 20
-15.96
 11
235
 21
-15.92
  0
LINE
  8
0
 10
235
 20
-15.92
 11
235.406
 21
-15.96
  0
LINE
  8
0
 10
235.406
 20
-15.96
 11
235.796
 21
-16.0783
  0
LINE
  8
0
 10
235.796
 20
-16.0783
 11
236.156
 21
-16.2705
  0
LINE
  8
0
 10
236.156
 20
-16.2705
 11
236.471
 21
-16.5292
  0
LINE
  8
0
 10
236.471
 20
-16.5292
 11
236.729
 21
-16.8444
  0
LINE
  8
0
 10
236.729
 20
-16.8444
 11
236.922
 21
-17.204
  0
LINE
  8
0
 10
236.922
 20
-17.204
 11
237.04
 21
-17.5942
  0
LINE
  8
0
 10
237.04
 20
-17.5942
 11
237.08
 21
-18
  0
LINE
  8
0
 10
237.08
 20
-18
 11
237.04
 21
-18.4058
  0
LINE
  8
0
 10
237.04
 20
-18.4058
 11
236.922
 21
-18.796
  0
LINE
  8
0
 10
236.922
 20
-18.796
 11
236.729
 21
-19.1556
  0
LINE
  8
0
 10
236.729
 20
-19.1556
 11
236.471
 21
-19.4708
  0
LINE
  8
0
 10
236.471
 20
-19.4708
 11
236.156
 21
-19.7294
  0
LINE
  8
0
 10
236.156
 20
-19.7294
 11
235.796
 21
-19.9217
  0
LINE
  8
0
 10
235.796
 20
-19.9217
 11
235.406
 21
-20.04
  0
LINE
  8
0
 10
235.406
 20
-20.04
 11
235
 21
-20.08
  0
LINE
  8
0
 10
235
 20
-20.08
 11
234.594
 21
-20.04
  0
LINE
  8
0
 10
-235.406
 20
-20.04
 11
-235.796
 21
-19.9217
  0
LINE
  8
0
 10
-235.796
 20
-19.9217
 11
-236.156
 21
-19.7294
  0
LINE
  8
0
 10
-236.156
 20
-19.7294
 11
-236.471
 21
-19.4708
  0
LINE
  8
0
 10
-236.471
 20
-19.4708
 11
-236.729
 21
-19.1556
  0
LINE
  8
0
 10
-236.729
 20
-19.1556
 11
-236.922
 21
-18.796
  0
LINE
  8
0
 10
-236.922
 20
-18.796
 11
-237.04
 21
-18.4058
  0
LINE
  8
0
 10
-237.04
 20
-18.4058
 11
-237.08
 21
-18
  0
LINE
  8
0
 10
-237.08
 20
-18
 11
-237.04
 21
-17.5942
  0
LINE
  8
0
 10
-237.04
 20
-17.5942
 11
-236.922
 21
-17.204
  0
LINE
  8
0
 10
-236.922
 20
-17.204
 11
-236.729
 21
-16.8444
  0
LINE
  8
0
 10
-236.729
 20
-16.8444
 11
-236.471
 21
-16.5292
  0
LINE
  8
0
 10
-236.471
 20
-16.5292
 11
-236.156
 21
-16.2705
  0
LINE
  8
0
 10
-236.156
 20
-16.2705
 11
-235.796
 21
-16.0783
  0
LINE
  8
0
 10
-235.796
 20
-16.0783
 11
-235.406
 21
-15.96
  0
LINE
  8
0
 10
-235.406
 20
-15.96
 11
-235
 21
-15.92
  0
LINE
  8
0
 10
-235
 20
-15.92
 11
-234.594
 21
-15.96
  0
LINE
  8
0
 10
-234.594
 20
-15.96
 11
-234.204
 21
-16.0783
  0
LINE
  8
0
 10
-234.204
 20
-16.0783
 11
-233.844
 21
-16.2705
  0
LINE
  8
0
 10
-233.844
 20
-16.2705
 11
-233.529
 21
-16.5292
  0
LINE
  8
0
 10
-233.529
 20
-16.5292
 11
-233.271
 21
-16.8444
  0
LINE
  8
0
 10
-233.271
 20
-16.8444
 11
-233.078
 21
-17.204
  0
LINE
  8
0
 10
-233.078
 20
-17.204
 11
-232.96
 21
-17.5942
  0
LINE
  8
0
 10
-232.96
 20
-17.5942
 11
-232.92
 21
-18
  0
LINE
  8
0
 10
-232.92
 20
-18
 11
-232.96
 21
-18.4058
  0
LINE
  8
0
 10
-232.96
 20
-18.4058
 11
-233.078
 21
-18.796
  0
LINE
  8
0
 10
-233.078
 20
-18.796
 11
-233.271
 21
-19.1556
  0
LINE
  8
0
 10
-233.271
 20
-19.1556
 11
-233.529
 21
-19.4708
  0
LINE
  8
0
 10
-233.529
 20
-19.4708
 11
-233.844
 21
-19.7294
  0
LINE
  8
0
 10
-233.844
 20
-19.7294
 11
-234.204
 21
-19.9217
  0
LINE
  8
0
 10
-234.204
 20
-19.9217
 11
-234.594
 21
-20.04
  0
LINE
  8
0
 10
-234.594
 20
-20.04
 11
-235
 21
-20.08
  0
LINE
  8
0
 10
-235
 20
-20.08
 11
-235.406
 21
-20.04
  0
LINE
  8
0
 10
-161.406
 20
-57.04
 11
-161.796
 21
-56.9217
  0
LINE
  8
0
 10
-161.796
 20
-56.9217
 11
-162.156
 21
-56.7294
  0
LINE
  8
0
 10
-162.156
 20
-56.7294
 11
-162.471
 21
-56.4708
  0
LINE
  8
0
 10
-162.471
 20
-56.4708
 11
-162.729
 21
-56.1556
  0
LINE
  8
0
 10
-162.729
 20
-56.1556
 11
-162.922
 21
-55.796
  0
LINE
  8
0
 10
-162.922
 20
-55.796
 11
-163.04
 21
-55.4058
  0
LINE
  8
0
 10
-163.04
 20
-55.4058
 11
-163.08
 21
-55
  0
LINE
  8
0
 10
-163.08
 20
-55
 11
-163.04
 21
-54.5942
  0
LINE
  8
0
 10
-163.04
 20
-54.5942
 11
-162.922
 21
-54.204
  0
LINE
  8
0
 10
-162.922
 20
-54.204
 11
-162.729
 21
-53.8444
  0
LINE
  8
0
 10
-162.729
 20
-53.8444
 11
-162.471
 21
-53.5292
  0
LINE
  8
0
 10
-162.471
 20
-53.5292
 11
-162.156
 21
-53.2705
  0
LINE
  8
0
 10
-162.156
 20
-53.2705
 11
-161.796
 21
-53.0783
  0
LINE
  8
0
 10
-161.796
 20
-53.0783
 11
-161.406
 21
-52.96
  0
LINE
  8
0
 10
-161.406
 20
-52.96
 11
-161
 21
-52.92
  0
LINE
  8
0
 10
-161
 20
-52.92
 11
-160.594
 21
-52.96
  0
LINE
  8
0
 10
-160.594
 20
-52.96
 11
-160.204
 21
-53.0783
  0
LINE
  8
0
 10
-160.204
 20
-53.0783
 11
-159.844
 21
-53.2705
  0
LINE
  8
0
 10
-159.844
 20
-53.2705
 11
-159.529
 21
-53.5292
  0
LINE
  8
0
 10
-159.529
 20
-53.5292
 11
-159.271
 21
-53.8444
  0
LINE
  8
0
 10
-159.271
 20
-53.8444
 11
-159.078
 21
-54.204
  0
LINE
  8
0
 10
-159.078
 20
-54.204
 11
-158.96
 21
-54.5942
  0
LINE
  8
0
 10
-158.96
 20
-54.5942
 11
-158.92
 21
-55
  0
LINE
  8
0
 10
-158.92
 20
-55
 11
-158.96
 21
-55.4058
  0
LINE
  8
0
 10
-158.96
 20
-55.4058
 11
-159.078
 21
-55.796
  0
LINE
  8
0
 10
-159.078
 20
-55.796
 11
-159.271
 21
-56.1556
  0
LINE
  8
0
 10
-159.271
 20
-56.1556
 11
-159.529
 21
-56.4708
  0
LINE
  8
0
 10
-159.529
 20
-56.4708
 11
-159.844
 21
-56.7294
  0
LINE
  8
0
 10
-159.844
 20
-56.7294
 11
-160.204
 21
-56.9217
  0
LINE
  8
0
 10
-160.204
 20
-56.9217
 11
-160.594
 21
-57.04
  0
LINE
  8
0
 10
-160.594
 20
-57.04
 11
-161
 21
-57.08
  0
LINE
  8
0
 10
-161
 20
-57.08
 11
-161.406
 21
-57.04
  0
LINE
  8
0
 10
160.594
 20
-57.04
 11
160.204
 21
-56.9217
  0
LINE
  8
0
 10
160.204
 20
-56.9217
 11
159.844
 21
-56.7294
  0
LINE
  8
0
 10
159.844
 20
-56.7294
 11
159.529
 21
-56.4708
  0
LINE
  8
0
 10
159.529
 20
-56.4708
 11
159.271
 21
-56.1556
  0
LINE
  8
0
 10
159.271
 20
-56.1556
 11
159.078
 21
-55.796
  0
LINE
  8
0
 10
159.078
 20
-55.796
 11
158.96
 21
-55.4058
  0
LINE
  8
0
 10
158.96
 20
-55.4058
 11
158.92
 21
-55
  0
LINE
  8
0
 10
158.92
 20
-55
 11
158.96
 21
-54.5942
  0
LINE
  8
0
 10
158.96
 20
-54.5942
 11
159.078
 21
-54.204
  0
LINE
  8
0
 10
159.078
 20
-54.204
 11
159.271
 21
-53.8444
  0
LINE
  8
0
 10
159.271
 20
-53.8444
 11
159.529
 21
-53.5292
  0
LINE
  8
0
 10
159.529
 20
-53.5292
 11
159.844
 21
-53.2705
  0
LINE
  8
0
 10
159.844
 20
-53.2705
 11
160.204
 21
-53.0783
  0
LINE
  8
0
 10
160.204
 20
-53.0783
 11
160.594
 21
-52.96
  0
LINE
  8
0
 10
160.594
 20
-52.96
 11
161
 21
-52.92
  0
LINE
  8
0
 10
161
 20
-52.92
 11
161.406
 21
-52.96
  0
LINE
  8
0
 10
161.406
 20
-52.96
 11
161.796
 21
-53.0783
  0
LINE
  8
0
 10
161.796
 20
-53.0783
 11
162.156
 21
-53.2705
  0
LINE
  8
0
 10
162.156
 20
-53.2705
 11
162.471
 21
-53.5292
  0
LINE
  8
0
 10
162.471
 20
-53.5292
 11
162.729
 21
-53.8444
  0
LINE
  8
0
 10
162.729
 20
-53.8444
 11
162.922
 21
-54.204
  0
LINE
  8
0
 10
162.922
 20
-54.204
 11
163.04
 21
-54.5942
  0
LINE
  8
0
 10
163.04
 20
-54.5942
 11
163.08
 21
-55
  0
LINE
  8
0
 10
163.08
 20
-55
 11
163.04
 21
-55.4058
  0
LINE
  8
0
 10
163.04
 20
-55.4058
 11
162.922
 21
-55.796
  0
LINE
  8
0
 10
162.922
 20
-55.796
 11
162.729
 21
-56.1556
  0
LINE
  8
0
 10
162.729
 20
-56.1556
 11
162.471
 21
-56.4708
  0
LINE
  8
0
 10
162.471
 20
-56.4708
 11
162.156
 21
-56.7294
  0
LINE
  8
0
 10
162.156
 20
-56.7294
 11
161.796
 21
-56.9217
  0
LINE
  8
0
 10
161.796
 20
-56.9217
 11
161.406
 21
-57.04
  0
LINE
  8
0
 10
161.406
 20
-57.04
 11
161
 21
-57.08
  0
LINE
  8
0
 10
161
 20
-57.08
 11
160.594
 21
-57.04
  0
LINE
  8
0
 10
-161.406
 20
-167.04
 11
-161.796
 21
-166.922
  0
LINE
  8
0
 10
-161.796
 20
-166.922
 11
-162.156
 21
-166.729
  0
LINE
  8
0
 10
-162.156
 20
-166.729
 11
-162.471
 21
-166.471
  0
LINE
  8
0
 10
-162.471
 20
-166.471
 11
-162.729
 21
-166.156
  0
LINE
  8
0
 10
-162.729
 20
-166.156
 11
-162.922
 21
-165.796
  0
LINE
  8
0
 10
-162.922
 20
-165.796
 11
-163.04
 21
-165.406
  0
LINE
  8
0
 10
-163.04
 20
-165.406
 11
-163.08
 21
-165
  0
LINE
  8
0
 10
-163.08
 20
-165
 11
-163.04
 21
-164.594
  0
LINE
  8
0
 10
-163.04
 20
-164.594
 11
-162.922
 21
-164.204
  0
LINE
  8
0
 10
-162.922
 20
-164.204
 11
-162.729
 21
-163.844
  0
LINE
  8
0
 10
-162.729
 20
-163.844
 11
-162.471
 21
-163.529
  0
LINE
  8
0
 10
-162.471
 20
-163.529
 11
-162.156
 21
-163.271
  0
LINE
  8
0
 10
-162.156
 20
-163.271
 11
-161.796
 21
-163.078
  0
LINE
  8
0
 10
-161.796
 20
-163.078
 11
-161.406
 21
-162.96
  0
LINE
  8
0
 10
-161.406
 20
-162.96
 11
-161
 21
-162.92
  0
LINE
  8
0
 10
-161
 20
-162.92
 11
-160.594
 21
-162.96
  0
LINE
  8
0
 10
-160.594
 20
-162.96
 11
-160.204
 21
-163.078
  0
LINE
  8
0
 10
-160.204
 20
-163.078
 11
-159.844
 21
-163.271
  0
LINE
  8
0
 10
-159.844
 20
-163.271
 11
-159.529
 21
-163.529
  0
LINE
  8
0
 10
-159.529
 20
-163.529
 11
-159.271
 21
-163.844
  0
LINE
  8
0
 10
-159.271
 20
-163.844
 11
-159.078
 21
-164.204
  0
LINE
  8
0
 10
-159.078
 20
-164.204
 11
-158.96
 21
-164.594
  0
LINE
  8
0
 10
-158.96
 20
-164.594
 11
-158.92
 21
-165
  0
LINE
  8
0
 10
-158.92
 20
-165
 11
-158.96
 21
-165.406
  0
LINE
  8
0
 10
-158.96
 20
-165.406
 11
-159.078
 21
-165.796
  0
LINE
  8
0
 10
-159.078
 20
-165.796
 11
-159.271
 21
-166.156
  0
LINE
  8
0
 10
-159.271
 20
-166.156
 11
-159.529
 21
-166.471
  0
LINE
  8
0
 10
-159.529
 20
-166.471
 11
-159.844
 21
-166.729
  0
LINE
  8
0
 10
-159.844
 20
-166.729
 11
-160.204
 21
-166.922
  0
LINE
  8
0
 10
-160.204
 20
-166.922
 11
-160.594
 21
-167.04
  0
LINE
  8
0
 10
-160.594
 20
-167.04
 11
-161
 21
-167.08
  0
LINE
  8
0
 10
-161
 20
-167.08
 11
-161.406
 21
-167.04
  0
LINE
  8
0
 10
160.594
 20
-167.04
 11
160.204
 21
-166.922
  0
LINE
  8
0
 10
160.204
 20
-166.922
 11
159.844
 21
-166.729
  0
LINE
  8
0
 10
159.844
 20
-166.729
 11
159.529
 21
-166.471
  0
LINE
  8
0
 10
159.529
 20
-166.471
 11
159.271
 21
-166.156
  0
LINE
  8
0
 10
159.271
 20
-166.156
 11
159.078
 21
-165.796
  0
LINE
  8
0
 10
159.078
 20
-165.796
 11
158.96
 21
-165.406
  0
LINE
  8
0
 10
158.96
 20
-165.406
 11
158.92
 21
-165
  0
LINE
  8
0
 10
158.92
 20
-165
 11
158.96
 21
-164.594
  0
LINE
  8
0
 10
158.96
 20
-164.594
 11
159.078
 21
-164.204
  0
LINE
  8
0
 10
159.078
 20
-164.204
 11
159.271
 21
-163.844
  0
LINE
  8
0
 10
159.271
 20
-163.844
 11
159.529
 21
-163.529
  0
LINE
  8
0
 10
159.529
 20
-163.529
 11
159.844
 21
-163.271
  0
LINE
  8
0
 10
159.844
 20
-163.271
 11
160.204
 21
-163.078
  0
LINE
  8
0
 10
160.204
 20
-163.078
 11
160.594
 21
-162.96
  0
LINE
  8
0
 10
160.594
 20
-162.96
 11
161
 21
-162.92
  0
LINE
  8
0
 10
161
 20
-162.92
 11
161.406
 21
-162.96
  0
LINE
  8
0
 10
161.406
 20
-162.96
 11
161.796
 21
-163.078
  0
LINE
  8
0
 10
161.796
 20
-163.078
 11
162.156
 21
-163.271
  0
LINE
  8
0
 10
162.156
 20
-163.271
 11
162.471
 21
-163.529
  0
LINE
  8
0
 10
162.471
 20
-163.529
 11
162.729
 21
-163.844
  0
LINE
  8
0
 10
162.729
 20
-163.844
 11
162.922
 21
-164.204
  0
LINE
  8
0
 10
162.922
 20
-164.204
 11
163.04
 21
-164.594
  0
LINE
  8
0
 10
163.04
 20
-164.594
 11
163.08
 21
-165
  0
LINE
  8
0
 10
163.08
 20
-165
 11
163.04
 21
-165.406
  0
LINE
  8
0
 10
163.04
 20
-165.406
 11
162.922
 21
-165.796
  0
LINE
  8
0
 10
162.922
 20
-165.796
 11
162.729
 21
-166.156
  0
LINE
  8
0
 10
162.729
 20
-166.156
 11
162.471
 21
-166.471
  0
LINE
  8
0
 10
162.471
 20
-166.471
 11
162.156
 21
-166.729
  0
LINE
  8
0
 10
162.156
 20
-166.729
 11
161.796
 21
-166.922
  0
LINE
  8
0
 10
161.796
 20
-166.922
 11
161.406
 21
-167.04
  0
LINE
  8
0
 10
161.406
 20
-167.04
 11
161
 21
-167.08
  0
LINE
  8
0
 10
161
 20
-167.08
 11
160.594
 21
-167.04
  0
ENDSEC
  0
SECTION
  2
OBJECTS
  0
DICTIONARY
  0
ENDSEC
  0
EOF
