  0
SECTION
  2
BLOCKS
  0
ENDSEC
  0
SECTION
  2
ENTITIES
  0
LINE
  8
0
 10
270
 20
-10.3463
 11
270
 21
221
  0
LINE
  8
0
 10
270
 20
221
 11
9.2365
 21
221
  0
LINE
  8
0
 10
9.2365
 20
221
 11
9.3127
 21
220.857
  0
LINE
  8
0
 10
9.3127
 20
220.857
 11
9.88631
 21
218.967
  0
LINE
  8
0
 10
9.88631
 20
218.967
 11
10.08
 21
217
  0
LINE
  8
0
 10
10.08
 20
217
 11
9.88631
 21
215.033
  0
LINE
  8
0
 10
9.88631
 20
215.033
 11
9.3127
 21
213.143
  0
LINE
  8
0
 10
9.3127
 20
213.143
 11
8.38121
 21
211.4
  0
LINE
  8
0
 10
8.38121
 20
211.4
 11
7.12762
 21
209.872
  0
LINE
  8
0
 10
7.12762
 20
209.872
 11
6.57838
 21
209.422
  0
LINE
  8
0
 10
6.57838
 20
209.422
 11
25.1023
 21
190.898
  0
LINE
  8
0
 10
25.1023
 20
190.898
 11
24.0456
 21
189.841
  0
LINE
  8
0
 10
24.0456
 20
189.841
 11
-24.0456
 21
189.841
  0
LINE
  8
0
 10
-24.0456
 20
189.841
 11
-25.1023
 21
190.898
  0
LINE
  8
0
 10
-25.1023
 20
190.898
 11
-6.57838
 21
209.422
  0
LINE
  8
0
 10
-6.57838
 20
209.422
 11
-7.12762
 21
209.872
  0
LINE
  8
0
 10
-7.12762
 20
209.872
 11
-8.38121
 21
211.4
  0
LINE
  8
0
 10
-8.38121
 20
211.4
 11
-9.3127
 21
213.143
  0
LINE
  8
0
 10
-9.3127
 20
213.143
 11
-9.88631
 21
215.033
  0
LINE
  8
0
 10
-9.88631
 20
215.033
 11
-10.08
 21
217
  0
LINE
  8
0
 10
-10.08
 20
217
 11
-9.88631
 21
218.967
  0
LINE
  8
0
 10
-9.88631
 20
218.967
 11
-9.3127
 21
220.857
  0
LINE
  8
0
 10
-9.3127
 20
220.857
 11
-9.2365
 21
221
  0
LINE
  8
0
 10
-9.2365
 20
221
 11
-270
 21
221
  0
LINE
  8
0
 10
-270
 20
221
 11
-270
 21
-10.3463
  0
LINE
  8
0
 10
-270
 20
-10.3463
 11
-143.76
 21
-229
  0
LINE
  8
0
 10
-143.76
 20
-229
 11
143.76
 21
-229
  0
LINE
  8
0
 10
143.76
 20
-229
 11
270
 21
-10.3463
  0
LINE
  8
0
 10
34.4009
 20
193.534
 11
33.8231
 21
193.709
  0
LINE
  8
0
 10
33.8231
 20
193.709
 11
33.2906
 21
193.994
  0
LINE
  8
0
 10
33.2906
 20
193.994
 11
32.8239
 21
194.377
  0
LINE
  8
0
 10
32.8239
 20
194.377
 11
32.4409
 21
194.843
  0
LINE
  8
0
 10
32.4409
 20
194.843
 11
32.1562
 21
195.376
  0
LINE
  8
0
 10
32.1562
 20
195.376
 11
31.981
 21
195.954
  0
LINE
  8
0
 10
31.981
 20
195.954
 11
31.9218
 21
196.555
  0
LINE
  8
0
 10
31.9218
 20
196.555
 11
31.981
 21
197.155
  0
LINE
  8
0
 10
31.981
 20
197.155
 11
32.1562
 21
197.733
  0
LINE
  8
0
 10
32.1562
 20
197.733
 11
32.4409
 21
198.266
  0
LINE
  8
0
 10
32.4409
 20
198.266
 11
32.8239
 21
198.732
  0
LINE
  8
0
 10
32.8239
 20
198.732
 11
33.2906
 21
199.115
  0
LINE
  8
0
 10
33.2906
 20
199.115
 11
33.8231
 21
199.4
  0
LINE
  8
0
 10
33.8231
 20
199.4
 11
34.4009
 21
199.575
  0
LINE
  8
0
 10
34.4009
 20
199.575
 11
35.0018
 21
199.635
  0
LINE
  8
0
 10
35.0018
 20
199.635
 11
35.6027
 21
199.575
  0
LINE
  8
0
 10
35.6027
 20
199.575
 11
36.1805
 21
199.4
  0
LINE
  8
0
 10
36.1805
 20
199.4
 11
36.7129
 21
199.115
  0
LINE
  8
0
 10
36.7129
 20
199.115
 11
37.1797
 21
198.732
  0
LINE
  8
0
 10
37.1797
 20
198.732
 11
37.5627
 21
198.266
  0
LINE
  8
0
 10
37.5627
 20
198.266
 11
37.8473
 21
197.733
  0
LINE
  8
0
 10
37.8473
 20
197.733
 11
38.0226
 21
197.155
  0
LINE
  8
0
 10
38.0226
 20
197.155
 11
38.0818
 21
196.555
  0
LINE
  8
0
 10
38.0818
 20
196.555
 11
38.0226
 21
195.954
  0
LINE
  8
0
 10
38.0226
 20
195.954
 11
37.8473
 21
195.376
  0
LINE
  8
0
 10
37.8473
 20
195.376
 11
37.5627
 21
194.843
  0
LINE
  8
0
 10
37.5627
 20
194.843
 11
37.1797
 21
194.377
  0
LINE
  8
0
 10
37.1797
 20
194.377
 11
36.7129
 21
193.994
  0
LINE
  8
0
 10
36.7129
 20
193.994
 11
36.1805
 21
193.709
  0
LINE
  8
0
 10
36.1805
 20
193.709
 11
35.6027
 21
193.534
  0
LINE
  8
0
 10
35.6027
 20
193.534
 11
35.0018
 21
193.475
  0
LINE
  8
0
 10
35.0018
 20
193.475
 11
34.4009
 21
193.534
  0
LINE
  8
0
 10
-225.819
 20
70.768
 11
-228.22
 21
71.328
  0
LINE
  8
0
 10
-228.22
 20
71.328
 11
-230.467
 21
72.3458
  0
LINE
  8
0
 10
-230.467
 20
72.3458
 11
-232.471
 21
73.7822
  0
LINE
  8
0
 10
-232.471
 20
73.7822
 11
-234.157
 21
75.5822
  0
LINE
  8
0
 10
-234.157
 20
75.5822
 11
-235.459
 21
77.6764
  0
LINE
  8
0
 10
-235.459
 20
77.6764
 11
-236.328
 21
79.9844
  0
LINE
  8
0
 10
-236.328
 20
79.9844
 11
-236.73
 21
82.4176
  0
LINE
  8
0
 10
-236.73
 20
82.4176
 11
-236.649
 21
84.8824
  0
LINE
  8
0
 10
-236.649
 20
84.8824
 11
-236.089
 21
87.2841
  0
LINE
  8
0
 10
-236.089
 20
87.2841
 11
-235.071
 21
89.5304
  0
LINE
  8
0
 10
-235.071
 20
89.5304
 11
-210.071
 21
132.832
  0
LINE
  8
0
 10
-210.071
 20
132.832
 11
-208.635
 21
134.836
  0
LINE
  8
0
 10
-208.635
 20
134.836
 11
-206.835
 21
136.522
  0
LINE
  8
0
 10
-206.835
 20
136.522
 11
-204.741
 21
137.824
  0
LINE
  8
0
 10
-204.741
 20
137.824
 11
-202.433
 21
138.693
  0
LINE
  8
0
 10
-202.433
 20
138.693
 11
-199.999
 21
139.095
  0
LINE
  8
0
 10
-199.999
 20
139.095
 11
-197.535
 21
139.014
  0
LINE
  8
0
 10
-197.535
 20
139.014
 11
-195.133
 21
138.454
  0
LINE
  8
0
 10
-195.133
 20
138.454
 11
-192.887
 21
137.436
  0
LINE
  8
0
 10
-192.887
 20
137.436
 11
-190.882
 21
136
  0
LINE
  8
0
 10
-190.882
 20
136
 11
-189.196
 21
134.2
  0
LINE
  8
0
 10
-189.196
 20
134.2
 11
-187.894
 21
132.106
  0
LINE
  8
0
 10
-187.894
 20
132.106
 11
-187.025
 21
129.798
  0
LINE
  8
0
 10
-187.025
 20
129.798
 11
-186.624
 21
127.364
  0
LINE
  8
0
 10
-186.624
 20
127.364
 11
-186.704
 21
124.9
  0
LINE
  8
0
 10
-186.704
 20
124.9
 11
-187.264
 21
122.498
  0
LINE
  8
0
 10
-187.264
 20
122.498
 11
-188.282
 21
120.252
  0
LINE
  8
0
 10
-188.282
 20
120.252
 11
-213.282
 21
76.9504
  0
LINE
  8
0
 10
-213.282
 20
76.9504
 11
-214.718
 21
74.9458
  0
LINE
  8
0
 10
-214.718
 20
74.9458
 11
-216.518
 21
73.26
  0
LINE
  8
0
 10
-216.518
 20
73.26
 11
-218.613
 21
71.9577
  0
LINE
  8
0
 10
-218.613
 20
71.9577
 11
-220.921
 21
71.089
  0
LINE
  8
0
 10
-220.921
 20
71.089
 11
-223.354
 21
70.6873
  0
LINE
  8
0
 10
-223.354
 20
70.6873
 11
-225.819
 21
70.768
  0
LINE
  8
0
 10
-0.308228
 20
-1.54964
 11
-0.60463
 21
-1.45972
  0
LINE
  8
0
 10
-0.60463
 20
-1.45972
 11
-0.877792
 21
-1.31372
  0
LINE
  8
0
 10
-0.877792
 20
-1.31372
 11
-1.11722
 21
-1.11722
  0
LINE
  8
0
 10
-1.11722
 20
-1.11722
 11
-1.31372
 21
-0.877792
  0
LINE
  8
0
 10
-1.31372
 20
-0.877792
 11
-1.45972
 21
-0.60463
  0
LINE
  8
0
 10
-1.45972
 20
-0.60463
 11
-1.54964
 21
-0.308228
  0
LINE
  8
0
 10
-1.54964
 20
-0.308228
 11
-1.57999
 21
0
  0
LINE
  8
0
 10
-1.57999
 20
0
 11
-1.54964
 21
0.308228
  0
LINE
  8
0
 10
-1.54964
 20
0.308228
 11
-1.45972
 21
0.60463
  0
LINE
  8
0
 10
-1.45972
 20
0.60463
 11
-1.31372
 21
0.877792
  0
LINE
  8
0
 10
-1.31372
 20
0.877792
 11
-1.11722
 21
1.11722
  0
LINE
  8
0
 10
-1.11722
 20
1.11722
 11
-0.877792
 21
1.31372
  0
LINE
  8
0
 10
-0.877792
 20
1.31372
 11
-0.60463
 21
1.45972
  0
LINE
  8
0
 10
-0.60463
 20
1.45972
 11
-0.308228
 21
1.54964
  0
LINE
  8
0
 10
-0.308228
 20
1.54964
 11
0
 21
1.57999
  0
LINE
  8
0
 10
0
 20
1.57999
 11
0.308228
 21
1.54964
  0
LINE
  8
0
 10
0.308228
 20
1.54964
 11
0.60463
 21
1.45972
  0
LINE
  8
0
 10
0.60463
 20
1.45972
 11
0.877792
 21
1.31372
  0
LINE
  8
0
 10
0.877792
 20
1.31372
 11
1.11722
 21
1.11722
  0
LINE
  8
0
 10
1.11722
 20
1.11722
 11
1.31372
 21
0.877792
  0
LINE
  8
0
 10
1.31372
 20
0.877792
 11
1.45972
 21
0.60463
  0
LINE
  8
0
 10
1.45972
 20
0.60463
 11
1.54964
 21
0.308228
  0
LINE
  8
0
 10
1.54964
 20
0.308228
 11
1.57999
 21
0
  0
LINE
  8
0
 10
1.57999
 20
0
 11
1.54964
 21
-0.308228
  0
LINE
  8
0
 10
1.54964
 20
-0.308228
 11
1.45972
 21
-0.60463
  0
LINE
  8
0
 10
1.45972
 20
-0.60463
 11
1.31372
 21
-0.877792
  0
LINE
  8
0
 10
1.31372
 20
-0.877792
 11
1.11722
 21
-1.11722
  0
LINE
  8
0
 10
1.11722
 20
-1.11722
 11
0.877792
 21
-1.31372
  0
LINE
  8
0
 10
0.877792
 20
-1.31372
 11
0.60463
 21
-1.45972
  0
LINE
  8
0
 10
0.60463
 20
-1.45972
 11
0.308228
 21
-1.54964
  0
LINE
  8
0
 10
0.308228
 20
-1.54964
 11
0
 21
-1.57999
  0
LINE
  8
0
 10
0
 20
-1.57999
 11
-0.308228
 21
-1.54964
  0
LINE
  8
0
 10
-245.724
 20
-37.3348
 11
-246.106
 21
-37.1911
  0
LINE
  8
0
 10
-246.106
 20
-37.1911
 11
-246.452
 21
-36.9758
  0
LINE
  8
0
 10
-246.452
 20
-36.9758
 11
-246.75
 21
-36.6971
  0
LINE
  8
0
 10
-246.75
 20
-36.6971
 11
-246.987
 21
-36.3657
  0
LINE
  8
0
 10
-246.987
 20
-36.3657
 11
-247.155
 21
-35.9942
  0
LINE
  8
0
 10
-247.155
 20
-35.9942
 11
-247.248
 21
-35.5972
  0
LINE
  8
0
 10
-247.248
 20
-35.5972
 11
-247.261
 21
-35.1896
  0
LINE
  8
0
 10
-247.261
 20
-35.1896
 11
-247.195
 21
-34.7873
  0
LINE
  8
0
 10
-247.195
 20
-34.7873
 11
-247.051
 21
-34.4057
  0
LINE
  8
0
 10
-247.051
 20
-34.4057
 11
-246.836
 21
-34.0594
  0
LINE
  8
0
 10
-246.836
 20
-34.0594
 11
-246.557
 21
-33.7618
  0
LINE
  8
0
 10
-246.557
 20
-33.7618
 11
-246.226
 21
-33.5243
  0
LINE
  8
0
 10
-246.226
 20
-33.5243
 11
-245.854
 21
-33.356
  0
LINE
  8
0
 10
-245.854
 20
-33.356
 11
-245.457
 21
-33.2635
  0
LINE
  8
0
 10
-245.457
 20
-33.2635
 11
-245.05
 21
-33.2501
  0
LINE
  8
0
 10
-245.05
 20
-33.2501
 11
-244.647
 21
-33.3165
  0
LINE
  8
0
 10
-244.647
 20
-33.3165
 11
-244.266
 21
-33.4602
  0
LINE
  8
0
 10
-244.266
 20
-33.4602
 11
-243.92
 21
-33.6755
  0
LINE
  8
0
 10
-243.92
 20
-33.6755
 11
-243.622
 21
-33.9542
  0
LINE
  8
0
 10
-243.622
 20
-33.9542
 11
-243.385
 21
-34.2857
  0
LINE
  8
0
 10
-243.385
 20
-34.2857
 11
-243.216
 21
-34.6571
  0
LINE
  8
0
 10
-243.216
 20
-34.6571
 11
-243.124
 21
-35.0542
  0
LINE
  8
0
 10
-243.124
 20
-35.0542
 11
-243.11
 21
-35.4617
  0
LINE
  8
0
 10
-243.11
 20
-35.4617
 11
-243.177
 21
-35.864
  0
LINE
  8
0
 10
-243.177
 20
-35.864
 11
-243.32
 21
-36.2456
  0
LINE
  8
0
 10
-243.32
 20
-36.2456
 11
-243.536
 21
-36.5919
  0
LINE
  8
0
 10
-243.536
 20
-36.5919
 11
-243.814
 21
-36.8895
  0
LINE
  8
0
 10
-243.814
 20
-36.8895
 11
-244.146
 21
-37.127
  0
LINE
  8
0
 10
-244.146
 20
-37.127
 11
-244.517
 21
-37.2953
  0
LINE
  8
0
 10
-244.517
 20
-37.2953
 11
-244.914
 21
-37.3879
  0
LINE
  8
0
 10
-244.914
 20
-37.3879
 11
-245.322
 21
-37.4012
  0
LINE
  8
0
 10
-245.322
 20
-37.4012
 11
-245.724
 21
-37.3348
  0
LINE
  8
0
 10
244.914
 20
-37.3879
 11
244.517
 21
-37.2953
  0
LINE
  8
0
 10
244.517
 20
-37.2953
 11
244.146
 21
-37.127
  0
LINE
  8
0
 10
244.146
 20
-37.127
 11
243.814
 21
-36.8895
  0
LINE
  8
0
 10
243.814
 20
-36.8895
 11
243.536
 21
-36.5919
  0
LINE
  8
0
 10
243.536
 20
-36.5919
 11
243.32
 21
-36.2456
  0
LINE
  8
0
 10
243.32
 20
-36.2456
 11
243.177
 21
-35.864
  0
LINE
  8
0
 10
243.177
 20
-35.864
 11
243.11
 21
-35.4617
  0
LINE
  8
0
 10
243.11
 20
-35.4617
 11
243.124
 21
-35.0542
  0
LINE
  8
0
 10
243.124
 20
-35.0542
 11
243.216
 21
-34.6571
  0
LINE
  8
0
 10
243.216
 20
-34.6571
 11
243.385
 21
-34.2857
  0
LINE
  8
0
 10
243.385
 20
-34.2857
 11
243.622
 21
-33.9542
  0
LINE
  8
0
 10
243.622
 20
-33.9542
 11
243.92
 21
-33.6755
  0
LINE
  8
0
 10
243.92
 20
-33.6755
 11
244.266
 21
-33.4602
  0
LINE
  8
0
 10
244.266
 20
-33.4602
 11
244.647
 21
-33.3165
  0
LINE
  8
0
 10
244.647
 20
-33.3165
 11
245.05
 21
-33.2501
  0
LINE
  8
0
 10
245.05
 20
-33.2501
 11
245.457
 21
-33.2635
  0
LINE
  8
0
 10
245.457
 20
-33.2635
 11
245.854
 21
-33.356
  0
LINE
  8
0
 10
245.854
 20
-33.356
 11
246.226
 21
-33.5243
  0
LINE
  8
0
 10
246.226
 20
-33.5243
 11
246.557
 21
-33.7618
  0
LINE
  8
0
 10
246.557
 20
-33.7618
 11
246.836
 21
-34.0594
  0
LINE
  8
0
 10
246.836
 20
-34.0594
 11
247.051
 21
-34.4057
  0
LINE
  8
0
 10
247.051
 20
-34.4057
 11
247.195
 21
-34.7873
  0
LINE
  8
0
 10
247.195
 20
-34.7873
 11
247.261
 21
-35.1896
  0
LINE
  8
0
 10
247.261
 20
-35.1896
 11
247.248
 21
-35.5972
  0
LINE
  8
0
 10
247.248
 20
-35.5972
 11
247.155
 21
-35.9942
  0
LINE
  8
0
 10
247.155
 20
-35.9942
 11
246.987
 21
-36.3657
  0
LINE
  8
0
 10
246.987
 20
-36.3657
 11
246.75
 21
-36.6971
  0
LINE
  8
0
 10
246.75
 20
-36.6971
 11
246.452
 21
-36.9758
  0
LINE
  8
0
 10
246.452
 20
-36.9758
 11
246.106
 21
-37.1911
  0
LINE
  8
0
 10
246.106
 20
-37.1911
 11
245.724
 21
-37.3348
  0
LINE
  8
0
 10
245.724
 20
-37.3348
 11
245.322
 21
-37.4012
  0
LINE
  8
0
 10
245.322
 20
-37.4012
 11
244.914
 21
-37.3879
  0
LINE
  8
0
 10
-188.519
 20
-70.9399
 11
-189.084
 21
-70.7272
  0
LINE
  8
0
 10
-189.084
 20
-70.7272
 11
-189.597
 21
-70.4084
  0
LINE
  8
0
 10
-189.597
 20
-70.4084
 11
-190.038
 21
-69.9956
  0
LINE
  8
0
 10
-190.038
 20
-69.9956
 11
-190.389
 21
-69.5048
  0
LINE
  8
0
 10
-190.389
 20
-69.5048
 11
-190.639
 21
-68.9549
  0
LINE
  8
0
 10
-190.639
 20
-68.9549
 11
-190.776
 21
-68.3669
  0
LINE
  8
0
 10
-190.776
 20
-68.3669
 11
-190.796
 21
-67.7634
  0
LINE
  8
0
 10
-190.796
 20
-67.7634
 11
-190.697
 21
-67.1677
  0
LINE
  8
0
 10
-190.697
 20
-67.1677
 11
-190.485
 21
-66.6026
  0
LINE
  8
0
 10
-190.485
 20
-66.6026
 11
-190.166
 21
-66.0899
  0
LINE
  8
0
 10
-190.166
 20
-66.0899
 11
-189.753
 21
-65.6492
  0
LINE
  8
0
 10
-189.753
 20
-65.6492
 11
-189.262
 21
-65.2975
  0
LINE
  8
0
 10
-189.262
 20
-65.2975
 11
-188.712
 21
-65.0483
  0
LINE
  8
0
 10
-188.712
 20
-65.0483
 11
-188.124
 21
-64.9112
  0
LINE
  8
0
 10
-188.124
 20
-64.9112
 11
-187.521
 21
-64.8914
  0
LINE
  8
0
 10
-187.521
 20
-64.8914
 11
-186.925
 21
-64.9898
  0
LINE
  8
0
 10
-186.925
 20
-64.9898
 11
-186.36
 21
-65.2025
  0
LINE
  8
0
 10
-186.36
 20
-65.2025
 11
-185.847
 21
-65.5213
  0
LINE
  8
0
 10
-185.847
 20
-65.5213
 11
-185.406
 21
-65.9341
  0
LINE
  8
0
 10
-185.406
 20
-65.9341
 11
-185.055
 21
-66.4248
  0
LINE
  8
0
 10
-185.055
 20
-66.4248
 11
-184.806
 21
-66.9748
  0
LINE
  8
0
 10
-184.806
 20
-66.9748
 11
-184.668
 21
-67.5628
  0
LINE
  8
0
 10
-184.668
 20
-67.5628
 11
-184.649
 21
-68.1663
  0
LINE
  8
0
 10
-184.649
 20
-68.1663
 11
-184.747
 21
-68.762
  0
LINE
  8
0
 10
-184.747
 20
-68.762
 11
-184.96
 21
-69.3271
  0
LINE
  8
0
 10
-184.96
 20
-69.3271
 11
-185.279
 21
-69.8398
  0
LINE
  8
0
 10
-185.279
 20
-69.8398
 11
-185.691
 21
-70.2805
  0
LINE
  8
0
 10
-185.691
 20
-70.2805
 11
-186.182
 21
-70.6322
  0
LINE
  8
0
 10
-186.182
 20
-70.6322
 11
-186.732
 21
-70.8814
  0
LINE
  8
0
 10
-186.732
 20
-70.8814
 11
-187.32
 21
-71.0185
  0
LINE
  8
0
 10
-187.32
 20
-71.0185
 11
-187.924
 21
-71.0383
  0
LINE
  8
0
 10
-187.924
 20
-71.0383
 11
-188.519
 21
-70.9399
  0
LINE
  8
0
 10
186.612
 20
-118.494
 11
184.687
 21
-118.045
  0
LINE
  8
0
 10
184.687
 20
-118.045
 11
182.888
 21
-117.23
  0
LINE
  8
0
 10
182.888
 20
-117.23
 11
181.281
 21
-116.079
  0
LINE
  8
0
 10
181.281
 20
-116.079
 11
179.931
 21
-114.636
  0
LINE
  8
0
 10
179.931
 20
-114.636
 11
178.887
 21
-112.958
  0
LINE
  8
0
 10
178.887
 20
-112.958
 11
178.191
 21
-111.109
  0
LINE
  8
0
 10
178.191
 20
-111.109
 11
178.075
 21
-110.408
  0
LINE
  8
0
 10
178.075
 20
-110.408
 11
152.771
 21
-117.188
  0
LINE
  8
0
 10
152.771
 20
-117.188
 11
152.384
 21
-115.745
  0
LINE
  8
0
 10
152.384
 20
-115.745
 11
176.43
 21
-74.0964
  0
LINE
  8
0
 10
176.43
 20
-74.0964
 11
177.873
 21
-73.7096
  0
LINE
  8
0
 10
177.873
 20
-73.7096
 11
184.654
 21
-99.0137
  0
LINE
  8
0
 10
184.654
 20
-99.0137
 11
185.319
 21
-98.7635
  0
LINE
  8
0
 10
185.319
 20
-98.7635
 11
187.268
 21
-98.4416
  0
LINE
  8
0
 10
187.268
 20
-98.4416
 11
189.243
 21
-98.5062
  0
LINE
  8
0
 10
189.243
 20
-98.5062
 11
191.168
 21
-98.9549
  0
LINE
  8
0
 10
191.168
 20
-98.9549
 11
192.968
 21
-99.7705
  0
LINE
  8
0
 10
192.968
 20
-99.7705
 11
194.574
 21
-100.921
  0
LINE
  8
0
 10
194.574
 20
-100.921
 11
195.925
 21
-102.364
  0
LINE
  8
0
 10
195.925
 20
-102.364
 11
196.968
 21
-104.042
  0
LINE
  8
0
 10
196.968
 20
-104.042
 11
197.664
 21
-105.891
  0
LINE
  8
0
 10
197.664
 20
-105.891
 11
197.986
 21
-107.841
  0
LINE
  8
0
 10
197.986
 20
-107.841
 11
197.921
 21
-109.816
  0
LINE
  8
0
 10
197.921
 20
-109.816
 11
197.473
 21
-111.74
  0
LINE
  8
0
 10
197.473
 20
-111.74
 11
196.657
 21
-113.54
  0
LINE
  8
0
 10
196.657
 20
-113.54
 11
195.506
 21
-115.146
  0
LINE
  8
0
 10
195.506
 20
-115.146
 11
194.064
 21
-116.497
  0
LINE
  8
0
 10
194.064
 20
-116.497
 11
192.386
 21
-117.54
  0
LINE
  8
0
 10
192.386
 20
-117.54
 11
190.536
 21
-118.237
  0
LINE
  8
0
 10
190.536
 20
-118.237
 11
188.587
 21
-118.558
  0
LINE
  8
0
 10
188.587
 20
-118.558
 11
186.612
 21
-118.494
  0
LINE
  8
0
 10
-190.536
 20
-118.237
 11
-192.386
 21
-117.54
  0
LINE
  8
0
 10
-192.386
 20
-117.54
 11
-194.064
 21
-116.497
  0
LINE
  8
0
 10
-194.064
 20
-116.497
 11
-195.506
 21
-115.146
  0
LINE
  8
0
 10
-195.506
 20
-115.146
 11
-196.657
 21
-113.54
  0
LINE
  8
0
 10
-196.657
 20
-113.54
 11
-197.473
 21
-111.74
  0
LINE
  8
0
 10
-197.473
 20
-111.74
 11
-197.921
 21
-109.816
  0
LINE
  8
0
 10
-197.921
 20
-109.816
 11
-197.986
 21
-107.841
  0
LINE
  8
0
 10
-197.986
 20
-107.841
 11
-197.664
 21
-105.891
  0
LINE
  8
0
 10
-197.664
 20
-105.891
 11
-196.968
 21
-104.042
  0
LINE
  8
0
 10
-196.968
 20
-104.042
 11
-195.925
 21
-102.364
  0
LINE
  8
0
 10
-195.925
 20
-102.364
 11
-194.574
 21
-100.921
  0
LINE
  8
0
 10
-194.574
 20
-100.921
 11
-192.968
 21
-99.7705
  0
LINE
  8
0
 10
-192.968
 20
-99.7705
 11
-191.168
 21
-98.9549
  0
LINE
  8
0
 10
-191.168
 20
-98.9549
 11
-189.243
 21
-98.5062
  0
LINE
  8
0
 10
-189.243
 20
-98.5062
 11
-187.268
 21
-98.4416
  0
LINE
  8
0
 10
-187.268
 20
-98.4416
 11
-185.319
 21
-98.7635
  0
LINE
  8
0
 10
-185.319
 20
-98.7635
 11
-184.654
 21
-99.0137
  0
LINE
  8
0
 10
-184.654
 20
-99.0137
 11
-177.873
 21
-73.7096
  0
LINE
  8
0
 10
-177.873
 20
-73.7096
 11
-176.43
 21
-74.0964
  0
LINE
  8
0
 10
-176.43
 20
-74.0964
 11
-152.384
 21
-115.745
  0
LINE
  8
0
 10
-152.384
 20
-115.745
 11
-152.771
 21
-117.188
  0
LINE
  8
0
 10
-152.771
 20
-117.188
 11
-178.075
 21
-110.408
  0
LINE
  8
0
 10
-178.075
 20
-110.408
 11
-178.191
 21
-111.109
  0
LINE
  8
0
 10
-178.191
 20
-111.109
 11
-178.887
 21
-112.958
  0
LINE
  8
0
 10
-178.887
 20
-112.958
 11
-179.931
 21
-114.636
  0
LINE
  8
0
 10
-179.931
 20
-114.636
 11
-181.281
 21
-116.079
  0
LINE
  8
0
 10
-181.281
 20
-116.079
 11
-182.888
 21
-117.23
  0
LINE
  8
0
 10
-182.888
 20
-117.23
 11
-184.687
 21
-118.045
  0
LINE
  8
0
 10
-184.687
 20
-118.045
 11
-186.612
 21
-118.494
  0
LINE
  8
0
 10
-186.612
 20
-118.494
 11
-188.587
 21
-118.558
  0
LINE
  8
0
 10
-188.587
 20
-118.558
 11
-190.536
 21
-118.237
  0
LINE
  8
0
 10
-214.724
 20
-91.0284
 11
-215.106
 21
-90.8847
  0
LINE
  8
0
 10
-215.106
 20
-90.8847
 11
-215.452
 21
-90.6694
  0
LINE
  8
0
 10
-215.452
 20
-90.6694
 11
-215.75
 21
-90.3907
  0
LINE
  8
0
 10
-215.75
 20
-90.3907
 11
-215.987
 21
-90.0592
  0
LINE
  8
0
 10
-215.987
 20
-90.0592
 11
-216.155
 21
-89.6878
  0
LINE
  8
0
 10
-216.155
 20
-89.6878
 11
-216.248
 21
-89.2907
  0
LINE
  8
0
 10
-216.248
 20
-89.2907
 11
-216.261
 21
-88.8832
  0
LINE
  8
0
 10
-216.261
 20
-88.8832
 11
-216.195
 21
-88.4809
  0
LINE
  8
0
 10
-216.195
 20
-88.4809
 11
-216.051
 21
-88.0993
  0
LINE
  8
0
 10
-216.051
 20
-88.0993
 11
-215.836
 21
-87.753
  0
LINE
  8
0
 10
-215.836
 20
-87.753
 11
-215.557
 21
-87.4554
  0
LINE
  8
0
 10
-215.557
 20
-87.4554
 11
-215.226
 21
-87.2179
  0
LINE
  8
0
 10
-215.226
 20
-87.2179
 11
-214.854
 21
-87.0496
  0
LINE
  8
0
 10
-214.854
 20
-87.0496
 11
-214.457
 21
-86.957
  0
LINE
  8
0
 10
-214.457
 20
-86.957
 11
-214.05
 21
-86.9437
  0
LINE
  8
0
 10
-214.05
 20
-86.9437
 11
-213.647
 21
-87.0101
  0
LINE
  8
0
 10
-213.647
 20
-87.0101
 11
-213.266
 21
-87.1537
  0
LINE
  8
0
 10
-213.266
 20
-87.1537
 11
-212.92
 21
-87.3691
  0
LINE
  8
0
 10
-212.92
 20
-87.3691
 11
-212.622
 21
-87.6478
  0
LINE
  8
0
 10
-212.622
 20
-87.6478
 11
-212.385
 21
-87.9792
  0
LINE
  8
0
 10
-212.385
 20
-87.9792
 11
-212.216
 21
-88.3506
  0
LINE
  8
0
 10
-212.216
 20
-88.3506
 11
-212.124
 21
-88.7477
  0
LINE
  8
0
 10
-212.124
 20
-88.7477
 11
-212.11
 21
-89.1553
  0
LINE
  8
0
 10
-212.11
 20
-89.1553
 11
-212.177
 21
-89.5576
  0
LINE
  8
0
 10
-212.177
 20
-89.5576
 11
-212.32
 21
-89.9392
  0
LINE
  8
0
 10
-212.32
 20
-89.9392
 11
-212.536
 21
-90.2855
  0
LINE
  8
0
 10
-212.536
 20
-90.2855
 11
-212.814
 21
-90.5831
  0
LINE
  8
0
 10
-212.814
 20
-90.5831
 11
-213.146
 21
-90.8206
  0
LINE
  8
0
 10
-213.146
 20
-90.8206
 11
-213.517
 21
-90.9888
  0
LINE
  8
0
 10
-213.517
 20
-90.9888
 11
-213.914
 21
-91.0814
  0
LINE
  8
0
 10
-213.914
 20
-91.0814
 11
-214.322
 21
-91.0948
  0
LINE
  8
0
 10
-214.322
 20
-91.0948
 11
-214.724
 21
-91.0284
  0
LINE
  8
0
 10
213.914
 20
-91.0814
 11
213.517
 21
-90.9888
  0
LINE
  8
0
 10
213.517
 20
-90.9888
 11
213.146
 21
-90.8206
  0
LINE
  8
0
 10
213.146
 20
-90.8206
 11
212.814
 21
-90.5831
  0
LINE
  8
0
 10
212.814
 20
-90.5831
 11
212.536
 21
-90.2855
  0
LINE
  8
0
 10
212.536
 20
-90.2855
 11
212.32
 21
-89.9392
  0
LINE
  8
0
 10
212.32
 20
-89.9392
 11
212.177
 21
-89.5576
  0
LINE
  8
0
 10
212.177
 20
-89.5576
 11
212.11
 21
-89.1553
  0
LINE
  8
0
 10
212.11
 20
-89.1553
 11
212.124
 21
-88.7477
  0
LINE
  8
0
 10
212.124
 20
-88.7477
 11
212.216
 21
-88.3506
  0
LINE
  8
0
 10
212.216
 20
-88.3506
 11
212.385
 21
-87.9792
  0
LINE
  8
0
 10
212.385
 20
-87.9792
 11
212.622
 21
-87.6478
  0
LINE
  8
0
 10
212.622
 20
-87.6478
 11
212.92
 21
-87.3691
  0
LINE
  8
0
 10
212.92
 20
-87.3691
 11
213.266
 21
-87.1537
  0
LINE
  8
0
 10
213.266
 20
-87.1537
 11
213.647
 21
-87.0101
  0
LINE
  8
0
 10
213.647
 20
-87.0101
 11
214.05
 21
-86.9437
  0
LINE
  8
0
 10
214.05
 20
-86.9437
 11
214.457
 21
-86.957
  0
LINE
  8
0
 10
214.457
 20
-86.957
 11
214.854
 21
-87.0496
  0
LINE
  8
0
 10
214.854
 20
-87.0496
 11
215.226
 21
-87.2179
  0
LINE
  8
0
 10
215.226
 20
-87.2179
 11
215.557
 21
-87.4554
  0
LINE
  8
0
 10
215.557
 20
-87.4554
 11
215.836
 21
-87.753
  0
LINE
  8
0
 10
215.836
 20
-87.753
 11
216.051
 21
-88.0993
  0
LINE
  8
0
 10
216.051
 20
-88.0993
 11
216.195
 21
-88.4809
  0
LINE
  8
0
 10
216.195
 20
-88.4809
 11
216.261
 21
-88.8832
  0
LINE
  8
0
 10
216.261
 20
-88.8832
 11
216.248
 21
-89.2907
  0
LINE
  8
0
 10
216.248
 20
-89.2907
 11
216.155
 21
-89.6878
  0
LINE
  8
0
 10
216.155
 20
-89.6878
 11
215.987
 21
-90.0592
  0
LINE
  8
0
 10
215.987
 20
-90.0592
 11
215.75
 21
-90.3907
  0
LINE
  8
0
 10
215.75
 20
-90.3907
 11
215.452
 21
-90.6694
  0
LINE
  8
0
 10
215.452
 20
-90.6694
 11
215.106
 21
-90.8847
  0
LINE
  8
0
 10
215.106
 20
-90.8847
 11
214.724
 21
-91.0284
  0
LINE
  8
0
 10
214.724
 20
-91.0284
 11
214.322
 21
-91.0948
  0
LINE
  8
0
 10
214.322
 20
-91.0948
 11
213.914
 21
-91.0814
  0
LINE
  8
0
 10
152.318
 20
-131.643
 11
151.73
 21
-131.506
  0
LINE
  8
0
 10
151.73
 20
-131.506
 11
151.18
 21
-131.257
  0
LINE
  8
0
 10
151.18
 20
-131.257
 11
150.69
 21
-130.905
  0
LINE
  8
0
 10
150.69
 20
-130.905
 11
150.277
 21
-130.465
  0
LINE
  8
0
 10
150.277
 20
-130.465
 11
149.958
 21
-129.952
  0
LINE
  8
0
 10
149.958
 20
-129.952
 11
149.745
 21
-129.387
  0
LINE
  8
0
 10
149.745
 20
-129.387
 11
149.647
 21
-128.791
  0
LINE
  8
0
 10
149.647
 20
-128.791
 11
149.667
 21
-128.188
  0
LINE
  8
0
 10
149.667
 20
-128.188
 11
149.804
 21
-127.6
  0
LINE
  8
0
 10
149.804
 20
-127.6
 11
150.053
 21
-127.05
  0
LINE
  8
0
 10
150.053
 20
-127.05
 11
150.405
 21
-126.559
  0
LINE
  8
0
 10
150.405
 20
-126.559
 11
150.845
 21
-126.146
  0
LINE
  8
0
 10
150.845
 20
-126.146
 11
151.358
 21
-125.827
  0
LINE
  8
0
 10
151.358
 20
-125.827
 11
151.923
 21
-125.615
  0
LINE
  8
0
 10
151.923
 20
-125.615
 11
152.519
 21
-125.516
  0
LINE
  8
0
 10
152.519
 20
-125.516
 11
153.122
 21
-125.536
  0
LINE
  8
0
 10
153.122
 20
-125.536
 11
153.71
 21
-125.673
  0
LINE
  8
0
 10
153.71
 20
-125.673
 11
154.26
 21
-125.922
  0
LINE
  8
0
 10
154.26
 20
-125.922
 11
154.751
 21
-126.274
  0
LINE
  8
0
 10
154.751
 20
-126.274
 11
155.164
 21
-126.715
  0
LINE
  8
0
 10
155.164
 20
-126.715
 11
155.483
 21
-127.227
  0
LINE
  8
0
 10
155.483
 20
-127.227
 11
155.695
 21
-127.793
  0
LINE
  8
0
 10
155.695
 20
-127.793
 11
155.794
 21
-128.388
  0
LINE
  8
0
 10
155.794
 20
-128.388
 11
155.774
 21
-128.992
  0
LINE
  8
0
 10
155.774
 20
-128.992
 11
155.637
 21
-129.58
  0
LINE
  8
0
 10
155.637
 20
-129.58
 11
155.388
 21
-130.13
  0
LINE
  8
0
 10
155.388
 20
-130.13
 11
155.036
 21
-130.62
  0
LINE
  8
0
 10
155.036
 20
-130.62
 11
154.595
 21
-131.033
  0
LINE
  8
0
 10
154.595
 20
-131.033
 11
154.083
 21
-131.352
  0
LINE
  8
0
 10
154.083
 20
-131.352
 11
153.518
 21
-131.565
  0
LINE
  8
0
 10
153.518
 20
-131.565
 11
152.922
 21
-131.663
  0
LINE
  8
0
 10
152.922
 20
-131.663
 11
152.318
 21
-131.643
  0
LINE
  8
0
 10
183.914
 20
-143.043
 11
183.517
 21
-142.95
  0
LINE
  8
0
 10
183.517
 20
-142.95
 11
183.146
 21
-142.782
  0
LINE
  8
0
 10
183.146
 20
-142.782
 11
182.814
 21
-142.545
  0
LINE
  8
0
 10
182.814
 20
-142.545
 11
182.536
 21
-142.247
  0
LINE
  8
0
 10
182.536
 20
-142.247
 11
182.32
 21
-141.901
  0
LINE
  8
0
 10
182.32
 20
-141.901
 11
182.177
 21
-141.519
  0
LINE
  8
0
 10
182.177
 20
-141.519
 11
182.11
 21
-141.117
  0
LINE
  8
0
 10
182.11
 20
-141.117
 11
182.124
 21
-140.709
  0
LINE
  8
0
 10
182.124
 20
-140.709
 11
182.216
 21
-140.312
  0
LINE
  8
0
 10
182.216
 20
-140.312
 11
182.385
 21
-139.941
  0
LINE
  8
0
 10
182.385
 20
-139.941
 11
182.622
 21
-139.609
  0
LINE
  8
0
 10
182.622
 20
-139.609
 11
182.92
 21
-139.331
  0
LINE
  8
0
 10
182.92
 20
-139.331
 11
183.266
 21
-139.115
  0
LINE
  8
0
 10
183.266
 20
-139.115
 11
183.648
 21
-138.972
  0
LINE
  8
0
 10
183.648
 20
-138.972
 11
184.05
 21
-138.905
  0
LINE
  8
0
 10
184.05
 20
-138.905
 11
184.457
 21
-138.919
  0
LINE
  8
0
 10
184.457
 20
-138.919
 11
184.854
 21
-139.011
  0
LINE
  8
0
 10
184.854
 20
-139.011
 11
185.226
 21
-139.179
  0
LINE
  8
0
 10
185.226
 20
-139.179
 11
185.557
 21
-139.417
  0
LINE
  8
0
 10
185.557
 20
-139.417
 11
185.836
 21
-139.715
  0
LINE
  8
0
 10
185.836
 20
-139.715
 11
186.051
 21
-140.061
  0
LINE
  8
0
 10
186.051
 20
-140.061
 11
186.195
 21
-140.442
  0
LINE
  8
0
 10
186.195
 20
-140.442
 11
186.261
 21
-140.845
  0
LINE
  8
0
 10
186.261
 20
-140.845
 11
186.248
 21
-141.252
  0
LINE
  8
0
 10
186.248
 20
-141.252
 11
186.155
 21
-141.649
  0
LINE
  8
0
 10
186.155
 20
-141.649
 11
185.987
 21
-142.021
  0
LINE
  8
0
 10
185.987
 20
-142.021
 11
185.75
 21
-142.352
  0
LINE
  8
0
 10
185.75
 20
-142.352
 11
185.452
 21
-142.631
  0
LINE
  8
0
 10
185.452
 20
-142.631
 11
185.106
 21
-142.846
  0
LINE
  8
0
 10
185.106
 20
-142.846
 11
184.724
 21
-142.99
  0
LINE
  8
0
 10
184.724
 20
-142.99
 11
184.322
 21
-143.056
  0
LINE
  8
0
 10
184.322
 20
-143.056
 11
183.914
 21
-143.043
  0
LINE
  8
0
 10
-184.724
 20
-142.99
 11
-185.106
 21
-142.846
  0
LINE
  8
0
 10
-185.106
 20
-142.846
 11
-185.452
 21
-142.631
  0
LINE
  8
0
 10
-185.452
 20
-142.631
 11
-185.75
 21
-142.352
  0
LINE
  8
0
 10
-185.75
 20
-142.352
 11
-185.987
 21
-142.021
  0
LINE
  8
0
 10
-185.987
 20
-142.021
 11
-186.155
 21
-141.649
  0
LINE
  8
0
 10
-186.155
 20
-141.649
 11
-186.248
 21
-141.252
  0
LINE
  8
0
 10
-186.248
 20
-141.252
 11
-186.261
 21
-140.845
  0
LINE
  8
0
 10
-186.261
 20
-140.845
 11
-186.195
 21
-140.442
  0
LINE
  8
0
 10
-186.195
 20
-140.442
 11
-186.051
 21
-140.061
  0
LINE
  8
0
 10
-186.051
 20
-140.061
 11
-185.836
 21
-139.715
  0
LINE
  8
0
 10
-185.836
 20
-139.715
 11
-185.557
 21
-139.417
  0
LINE
  8
0
 10
-185.557
 20
-139.417
 11
-185.226
 21
-139.179
  0
LINE
  8
0
 10
-185.226
 20
-139.179
 11
-184.854
 21
-139.011
  0
LINE
  8
0
 10
-184.854
 20
-139.011
 11
-184.457
 21
-138.919
  0
LINE
  8
0
 10
-184.457
 20
-138.919
 11
-184.05
 21
-138.905
  0
LINE
  8
0
 10
-184.05
 20
-138.905
 11
-183.648
 21
-138.972
  0
LINE
  8
0
 10
-183.648
 20
-138.972
 11
-183.266
 21
-139.115
  0
LINE
  8
0
 10
-183.266
 20
-139.115
 11
-182.92
 21
-139.331
  0
LINE
  8
0
 10
-182.92
 20
-139.331
 11
-182.622
 21
-139.609
  0
LINE
  8
0
 10
-182.622
 20
-139.609
 11
-182.385
 21
-139.941
  0
LINE
  8
0
 10
-182.385
 20
-139.941
 11
-182.216
 21
-140.312
  0
LINE
  8
0
 10
-182.216
 20
-140.312
 11
-182.124
 21
-140.709
  0
LINE
  8
0
 10
-182.124
 20
-140.709
 11
-182.11
 21
-141.117
  0
LINE
  8
0
 10
-182.11
 20
-141.117
 11
-182.177
 21
-141.519
  0
LINE
  8
0
 10
-182.177
 20
-141.519
 11
-182.32
 21
-141.901
  0
LINE
  8
0
 10
-182.32
 20
-141.901
 11
-182.536
 21
-142.247
  0
LINE
  8
0
 10
-182.536
 20
-142.247
 11
-182.814
 21
-142.545
  0
LINE
  8
0
 10
-182.814
 20
-142.545
 11
-183.146
 21
-142.782
  0
LINE
  8
0
 10
-183.146
 20
-142.782
 11
-183.517
 21
-142.95
  0
LINE
  8
0
 10
-183.517
 20
-142.95
 11
-183.914
 21
-143.043
  0
LINE
  8
0
 10
-183.914
 20
-143.043
 11
-184.322
 21
-143.056
  0
LINE
  8
0
 10
-184.322
 20
-143.056
 11
-184.724
 21
-142.99
  0
LINE
  8
0
 10
-153.724
 20
-196.683
 11
-154.106
 21
-196.54
  0
LINE
  8
0
 10
-154.106
 20
-196.54
 11
-154.452
 21
-196.325
  0
LINE
  8
0
 10
-154.452
 20
-196.325
 11
-154.75
 21
-196.046
  0
LINE
  8
0
 10
-154.75
 20
-196.046
 11
-154.987
 21
-195.714
  0
LINE
  8
0
 10
-154.987
 20
-195.714
 11
-155.155
 21
-195.343
  0
LINE
  8
0
 10
-155.155
 20
-195.343
 11
-155.248
 21
-194.946
  0
LINE
  8
0
 10
-155.248
 20
-194.946
 11
-155.261
 21
-194.538
  0
LINE
  8
0
 10
-155.261
 20
-194.538
 11
-155.195
 21
-194.136
  0
LINE
  8
0
 10
-155.195
 20
-194.136
 11
-155.051
 21
-193.754
  0
LINE
  8
0
 10
-155.051
 20
-193.754
 11
-154.836
 21
-193.408
  0
LINE
  8
0
 10
-154.836
 20
-193.408
 11
-154.557
 21
-193.111
  0
LINE
  8
0
 10
-154.557
 20
-193.111
 11
-154.226
 21
-192.873
  0
LINE
  8
0
 10
-154.226
 20
-192.873
 11
-153.854
 21
-192.705
  0
LINE
  8
0
 10
-153.854
 20
-192.705
 11
-153.457
 21
-192.612
  0
LINE
  8
0
 10
-153.457
 20
-192.612
 11
-153.05
 21
-192.599
  0
LINE
  8
0
 10
-153.05
 20
-192.599
 11
-152.648
 21
-192.665
  0
LINE
  8
0
 10
-152.648
 20
-192.665
 11
-152.266
 21
-192.809
  0
LINE
  8
0
 10
-152.266
 20
-192.809
 11
-151.92
 21
-193.024
  0
LINE
  8
0
 10
-151.92
 20
-193.024
 11
-151.622
 21
-193.303
  0
LINE
  8
0
 10
-151.622
 20
-193.303
 11
-151.385
 21
-193.634
  0
LINE
  8
0
 10
-151.385
 20
-193.634
 11
-151.216
 21
-194.006
  0
LINE
  8
0
 10
-151.216
 20
-194.006
 11
-151.124
 21
-194.403
  0
LINE
  8
0
 10
-151.124
 20
-194.403
 11
-151.11
 21
-194.81
  0
LINE
  8
0
 10
-151.11
 20
-194.81
 11
-151.177
 21
-195.213
  0
LINE
  8
0
 10
-151.177
 20
-195.213
 11
-151.32
 21
-195.594
  0
LINE
  8
0
 10
-151.32
 20
-195.594
 11
-151.536
 21
-195.941
  0
LINE
  8
0
 10
-151.536
 20
-195.941
 11
-151.814
 21
-196.238
  0
LINE
  8
0
 10
-151.814
 20
-196.238
 11
-152.146
 21
-196.476
  0
LINE
  8
0
 10
-152.146
 20
-196.476
 11
-152.517
 21
-196.644
  0
LINE
  8
0
 10
-152.517
 20
-196.644
 11
-152.914
 21
-196.737
  0
LINE
  8
0
 10
-152.914
 20
-196.737
 11
-153.322
 21
-196.75
  0
LINE
  8
0
 10
-153.322
 20
-196.75
 11
-153.724
 21
-196.683
  0
LINE
  8
0
 10
152.914
 20
-196.737
 11
152.517
 21
-196.644
  0
LINE
  8
0
 10
152.517
 20
-196.644
 11
152.146
 21
-196.476
  0
LINE
  8
0
 10
152.146
 20
-196.476
 11
151.814
 21
-196.238
  0
LINE
  8
0
 10
151.814
 20
-196.238
 11
151.536
 21
-195.941
  0
LINE
  8
0
 10
151.536
 20
-195.941
 11
151.32
 21
-195.594
  0
LINE
  8
0
 10
151.32
 20
-195.594
 11
151.177
 21
-195.213
  0
LINE
  8
0
 10
151.177
 20
-195.213
 11
151.11
 21
-194.81
  0
LINE
  8
0
 10
151.11
 20
-194.81
 11
151.124
 21
-194.403
  0
LINE
  8
0
 10
151.124
 20
-194.403
 11
151.216
 21
-194.006
  0
LINE
  8
0
 10
151.216
 20
-194.006
 11
151.385
 21
-193.634
  0
LINE
  8
0
 10
151.385
 20
-193.634
 11
151.622
 21
-193.303
  0
LINE
  8
0
 10
151.622
 20
-193.303
 11
151.92
 21
-193.024
  0
LINE
  8
0
 10
151.92
 20
-193.024
 11
152.266
 21
-192.809
  0
LINE
  8
0
 10
152.266
 20
-192.809
 11
152.648
 21
-192.665
  0
LINE
  8
0
 10
152.648
 20
-192.665
 11
153.05
 21
-192.599
  0
LINE
  8
0
 10
153.05
 20
-192.599
 11
153.457
 21
-192.612
  0
LINE
  8
0
 10
153.457
 20
-192.612
 11
153.854
 21
-192.705
  0
LINE
  8
0
 10
153.854
 20
-192.705
 11
154.226
 21
-192.873
  0
LINE
  8
0
 10
154.226
 20
-192.873
 11
154.557
 21
-193.111
  0
LINE
  8
0
 10
154.557
 20
-193.111
 11
154.836
 21
-193.408
  0
LINE
  8
0
 10
154.836
 20
-193.408
 11
155.051
 21
-193.754
  0
LINE
  8
0
 10
155.051
 20
-193.754
 11
155.195
 21
-194.136
  0
LINE
  8
0
 10
155.195
 20
-194.136
 11
155.261
 21
-194.538
  0
LINE
  8
0
 10
155.261
 20
-194.538
 11
155.248
 21
-194.946
  0
LINE
  8
0
 10
155.248
 20
-194.946
 11
155.155
 21
-195.343
  0
LINE
  8
0
 10
155.155
 20
-195.343
 11
154.987
 21
-195.714
  0
LINE
  8
0
 10
154.987
 20
-195.714
 11
154.75
 21
-196.046
  0
LINE
  8
0
 10
154.75
 20
-196.046
 11
154.452
 21
-196.325
  0
LINE
  8
0
 10
154.452
 20
-196.325
 11
154.106
 21
-196.54
  0
LINE
  8
0
 10
154.106
 20
-196.54
 11
153.724
 21
-196.683
  0
LINE
  8
0
 10
153.724
 20
-196.683
 11
153.322
 21
-196.75
  0
LINE
  8
0
 10
153.322
 20
-196.75
 11
152.914
 21
-196.737
  0
ENDSEC
  0
SECTION
  2
OBJECTS
  0
DICTIONARY
  0
ENDSEC
  0
EOF
