solid OpenSCAD_Model
  facet normal 0.281951 0 0.959429
    outer loop
      vertex 2.6764 7 4.67299
      vertex 16.5213 4.5 0.604331
      vertex 16.5213 7 0.604331
    endloop
  endfacet
  facet normal 0.281951 0 0.959429
    outer loop
      vertex 16.5213 4.5 0.604331
      vertex 2.6764 7 4.67299
      vertex 2.6764 4.5 4.67299
    endloop
  endfacet
  facet normal 0 -1 0
    outer loop
      vertex 2.6764 4.5 4.67299
      vertex 14.2253 4.5 0.624368
      vertex 14.9835 4.5 0.820455
    endloop
  endfacet
  facet normal 0 -1 0
    outer loop
      vertex 2.6764 4.5 4.67299
      vertex 13.5437 4.5 0.238723
      vertex 14.2253 4.5 0.624368
    endloop
  endfacet
  facet normal 0 -1 0
    outer loop
      vertex 2.6764 4.5 4.67299
      vertex 12.9851 4.5 -0.310199
      vertex 13.5437 4.5 0.238723
    endloop
  endfacet
  facet normal 0 -1 0
    outer loop
      vertex 2.6764 4.5 4.67299
      vertex 12.5876 4.5 -0.98499
      vertex 12.9851 4.5 -0.310199
    endloop
  endfacet
  facet normal 0 -1 0
    outer loop
      vertex 2.6764 4.5 4.67299
      vertex 12.3784 4.5 -1.73966
      vertex 12.5876 4.5 -0.98499
    endloop
  endfacet
  facet normal 0 -1 0
    outer loop
      vertex 1.38722 4.5 -4.5
      vertex 12.3784 4.5 -1.73966
      vertex 2.6764 4.5 4.67299
    endloop
  endfacet
  facet normal 0 -1 0
    outer loop
      vertex 12.3784 4.5 -1.73966
      vertex 1.38722 4.5 -4.5
      vertex 12.3715 4.5 -2.52279
    endloop
  endfacet
  facet normal 0 -1 -0
    outer loop
      vertex 12.3715 4.5 -2.52279
      vertex 1.38722 4.5 -4.5
      vertex 12.5676 4.5 -3.281
    endloop
  endfacet
  facet normal 0 -1 -0
    outer loop
      vertex 12.5676 4.5 -3.281
      vertex 1.38722 4.5 -4.5
      vertex 12.9532 4.5 -3.96263
    endloop
  endfacet
  facet normal 0 -1 -0
    outer loop
      vertex 12.9532 4.5 -3.96263
      vertex 1.38722 4.5 -4.5
      vertex 13.4813 4.5 -4.5
    endloop
  endfacet
  facet normal 0 -1 0
    outer loop
      vertex 15.7667 4.5 0.813621
      vertex 2.6764 4.5 4.67299
      vertex 14.9835 4.5 0.820455
    endloop
  endfacet
  facet normal 0 -1 0
    outer loop
      vertex 2.6764 4.5 4.67299
      vertex 15.7667 4.5 0.813621
      vertex 16.5213 4.5 0.604331
    endloop
  endfacet
  facet normal 0 1 0
    outer loop
      vertex -1.13735 7 -4.5
      vertex 2.6764 7 4.67299
      vertex 16.5213 7 0.604331
    endloop
  endfacet
  facet normal 0 1 0
    outer loop
      vertex 17.2086 7 -4.5
      vertex 16.5213 7 0.604331
      vertex 17.1961 7 0.206849
    endloop
  endfacet
  facet normal 0 1 -0
    outer loop
      vertex 17.2086 7 -4.5
      vertex 17.1961 7 0.206849
      vertex 17.7451 7 -0.351738
    endloop
  endfacet
  facet normal 0 1 0
    outer loop
      vertex 17.2086 7 -4.5
      vertex 17.7451 7 -0.351738
      vertex 18.1307 7 -1.03336
    endloop
  endfacet
  facet normal 0 1 0
    outer loop
      vertex 17.2086 7 -4.5
      vertex 18.1307 7 -1.03336
      vertex 18.3268 7 -1.79158
    endloop
  endfacet
  facet normal 0 1 0
    outer loop
      vertex 17.2086 7 -4.5
      vertex 18.3268 7 -1.79158
      vertex 18.32 7 -2.5747
    endloop
  endfacet
  facet normal 0 1 0
    outer loop
      vertex 17.2086 7 -4.5
      vertex 18.32 7 -2.5747
      vertex 18.1107 7 -3.32938
    endloop
  endfacet
  facet normal 0 1 0
    outer loop
      vertex 17.2086 7 -4.5
      vertex 18.1107 7 -3.32938
      vertex 17.7132 7 -4.00417
    endloop
  endfacet
  facet normal 0 1 0
    outer loop
      vertex 16.5213 7 0.604331
      vertex 17.2086 7 -4.5
      vertex -1.13735 7 -4.5
    endloop
  endfacet
  facet normal 0 1 0
    outer loop
      vertex 2.6764 7 4.67299
      vertex -1.13735 7 -4.5
      vertex 0.200731 7 5.02093
    endloop
  endfacet
  facet normal 0.139173 0 0.990268
    outer loop
      vertex 0.200731 7 5.02093
      vertex 2.6764 4.5 4.67299
      vertex 2.6764 7 4.67299
    endloop
  endfacet
  facet normal 0.139173 0 0.990268
    outer loop
      vertex 2.6764 4.5 4.67299
      vertex -3.26521 4.6 5.50803
      vertex 2.6764 -4.5 4.67299
    endloop
  endfacet
  facet normal 0.139173 -1.79751e-008 0.990268
    outer loop
      vertex 2.6764 4.5 4.67299
      vertex 0.200731 7 5.02093
      vertex -3.26521 4.6 5.50803
    endloop
  endfacet
  facet normal 0.139173 -0 0.990268
    outer loop
      vertex -3.26521 -4.6 5.50803
      vertex 2.6764 -4.5 4.67299
      vertex -3.26521 4.6 5.50803
    endloop
  endfacet
  facet normal 0.139173 1.79751e-008 0.990268
    outer loop
      vertex 0.200731 -7 5.02093
      vertex 2.6764 -4.5 4.67299
      vertex -3.26521 -4.6 5.50803
    endloop
  endfacet
  facet normal 0.139173 0 0.990268
    outer loop
      vertex 2.6764 -4.5 4.67299
      vertex 0.200731 -7 5.02093
      vertex 2.6764 -7 4.67299
    endloop
  endfacet
  facet normal 0.96363 0 -0.267241
    outer loop
      vertex 18.32 -7 -2.5747
      vertex 18.1107 7 -3.32938
      vertex 18.32 7 -2.5747
    endloop
  endfacet
  facet normal 0.96363 0 -0.267241
    outer loop
      vertex 18.1107 7 -3.32938
      vertex 18.32 -7 -2.5747
      vertex 18.1107 -7 -3.32938
    endloop
  endfacet
  facet normal -0.990268 3.19052e-009 0.139173
    outer loop
      vertex -4.65694 4.6 -4.39465
      vertex -3.96107 2 0.556692
      vertex -3.26521 4.6 5.50803
    endloop
  endfacet
  facet normal -0.990268 7.72136e-007 0.139173
    outer loop
      vertex -4.65694 4.6 -4.39465
      vertex -3.98399 1.97832 0.393593
      vertex -3.96107 2 0.556692
    endloop
  endfacet
  facet normal -0.990268 1.04143e-007 0.139173
    outer loop
      vertex -4.65694 4.6 -4.39465
      vertex -4.03311 1.93185 0.0440928
      vertex -3.98399 1.97832 0.393593
    endloop
  endfacet
  facet normal -0.990268 4.79401e-007 0.139173
    outer loop
      vertex -4.65694 4.6 -4.39465
      vertex -4.10025 1.73205 -0.433575
      vertex -4.03311 1.93185 0.0440928
    endloop
  endfacet
  facet normal -0.990268 -3.12378e-007 0.139173
    outer loop
      vertex -4.65694 4.6 -4.39465
      vertex -4.15789 1.41421 -0.843758
      vertex -4.10025 1.73205 -0.433575
    endloop
  endfacet
  facet normal -0.990268 3.92772e-007 0.139173
    outer loop
      vertex -4.65694 4.6 -4.39465
      vertex -4.18805 1.1318 -1.05836
      vertex -4.15789 1.41421 -0.843758
    endloop
  endfacet
  facet normal -0.990268 -9.3699e-007 0.139172
    outer loop
      vertex -4.65694 4.6 -4.39465
      vertex -4.20213 1 -1.1585
      vertex -4.18805 1.1318 -1.05836
    endloop
  endfacet
  facet normal -0.990268 2.1529e-007 0.139173
    outer loop
      vertex -4.65694 4.6 -4.39465
      vertex -4.21097 0.846521 -1.22146
      vertex -4.20213 1 -1.1585
    endloop
  endfacet
  facet normal -0.990268 4.52676e-007 0.139174
    outer loop
      vertex -4.65694 4.6 -4.39465
      vertex -4.22993 0.517637 -1.35636
      vertex -4.21097 0.846521 -1.22146
    endloop
  endfacet
  facet normal -0.990268 -2.63353e-007 0.139173
    outer loop
      vertex -4.65694 4.6 -4.39465
      vertex -4.23942 4.44089e-016 -1.42384
      vertex -4.22993 0.517637 -1.35636
    endloop
  endfacet
  facet normal -0.990268 0 0.139173
    outer loop
      vertex -4.65694 -4.6 -4.39465
      vertex -4.23942 4.44089e-016 -1.42384
      vertex -4.65694 4.6 -4.39465
    endloop
  endfacet
  facet normal -0.990268 2.63353e-007 0.139173
    outer loop
      vertex -4.23942 4.44089e-016 -1.42384
      vertex -4.65694 -4.6 -4.39465
      vertex -4.22993 -0.517637 -1.35636
    endloop
  endfacet
  facet normal -0.990268 -2.25382e-007 0.139173
    outer loop
      vertex -4.22993 -0.517637 -1.35636
      vertex -4.65694 -4.6 -4.39465
      vertex -4.22109 -0.671116 -1.2934
    endloop
  endfacet
  facet normal -0.990268 -1.08991e-006 0.139174
    outer loop
      vertex -4.01019 -1.95354 0.207193
      vertex -4.65694 -4.6 -4.39465
      vertex -3.96107 -2 0.556692
    endloop
  endfacet
  facet normal -0.990268 1.214e-006 0.139172
    outer loop
      vertex -4.03311 -1.93185 0.0440928
      vertex -4.65694 -4.6 -4.39465
      vertex -4.01019 -1.95354 0.207193
    endloop
  endfacet
  facet normal -0.990268 -4.79401e-007 0.139173
    outer loop
      vertex -4.10025 -1.73205 -0.433575
      vertex -4.65694 -4.6 -4.39465
      vertex -4.03311 -1.93185 0.0440928
    endloop
  endfacet
  facet normal -0.990268 3.12378e-007 0.139173
    outer loop
      vertex -4.15789 -1.41421 -0.843758
      vertex -4.65694 -4.6 -4.39465
      vertex -4.10025 -1.73205 -0.433575
    endloop
  endfacet
  facet normal -0.990268 1.02252e-006 0.139172
    outer loop
      vertex -4.17197 -1.28242 -0.943903
      vertex -4.65694 -4.6 -4.39465
      vertex -4.15789 -1.41421 -0.843758
    endloop
  endfacet
  facet normal -0.990268 -3.52856e-007 0.139173
    outer loop
      vertex -4.20213 -0.999999 -1.1585
      vertex -4.65694 -4.6 -4.39465
      vertex -4.17197 -1.28242 -0.943903
    endloop
  endfacet
  facet normal -0.990268 -4.57386e-007 0.139174
    outer loop
      vertex -4.22109 -0.671116 -1.2934
      vertex -4.65694 -4.6 -4.39465
      vertex -4.20213 -0.999999 -1.1585
    endloop
  endfacet
  facet normal -0.990268 1.39408e-006 0.139172
    outer loop
      vertex -3.93815 1.97832 0.719792
      vertex -3.26521 4.6 5.50803
      vertex -3.96107 2 0.556692
    endloop
  endfacet
  facet normal -0.990268 -1.91427e-008 0.139173
    outer loop
      vertex -3.88903 1.93185 1.06929
      vertex -3.26521 4.6 5.50803
      vertex -3.93815 1.97832 0.719792
    endloop
  endfacet
  facet normal -0.990268 -1.55695e-007 0.139173
    outer loop
      vertex -3.8219 1.73205 1.54696
      vertex -3.26521 4.6 5.50803
      vertex -3.88903 1.93185 1.06929
    endloop
  endfacet
  facet normal -0.990268 1.67464e-007 0.139173
    outer loop
      vertex -3.76425 1.41421 1.95714
      vertex -3.26521 4.6 5.50803
      vertex -3.8219 1.73205 1.54696
    endloop
  endfacet
  facet normal -0.990268 -3.60619e-007 0.139173
    outer loop
      vertex -3.73409 1.1318 2.17174
      vertex -3.26521 4.6 5.50803
      vertex -3.76425 1.41421 1.95714
    endloop
  endfacet
  facet normal -0.990268 -1.02024e-007 0.139173
    outer loop
      vertex -3.72002 1 2.27189
      vertex -3.26521 4.6 5.50803
      vertex -3.73409 1.1318 2.17174
    endloop
  endfacet
  facet normal -0.990268 -2.1529e-007 0.139173
    outer loop
      vertex -3.71117 0.846521 2.33484
      vertex -3.26521 4.6 5.50803
      vertex -3.72002 1 2.27189
    endloop
  endfacet
  facet normal -0.990268 9.86117e-008 0.139173
    outer loop
      vertex -3.69221 0.517637 2.46974
      vertex -3.26521 4.6 5.50803
      vertex -3.71117 0.846521 2.33484
    endloop
  endfacet
  facet normal -0.990268 2.45912e-007 0.139173
    outer loop
      vertex -3.68273 -4.44089e-016 2.53723
      vertex -3.26521 4.6 5.50803
      vertex -3.69221 0.517637 2.46974
    endloop
  endfacet
  facet normal -0.990268 -2.45912e-007 0.139173
    outer loop
      vertex -3.26521 -4.6 5.50803
      vertex -3.68273 -4.44089e-016 2.53723
      vertex -3.69221 -0.517637 2.46974
    endloop
  endfacet
  facet normal -0.990268 6.25666e-008 0.139173
    outer loop
      vertex -3.26521 -4.6 5.50803
      vertex -3.69221 -0.517637 2.46974
      vertex -3.70106 -0.671116 2.40679
    endloop
  endfacet
  facet normal -0.990268 -3.55605e-008 0.139173
    outer loop
      vertex -3.26521 -4.6 5.50803
      vertex -3.70106 -0.671116 2.40679
      vertex -3.72002 -0.999999 2.27189
    endloop
  endfacet
  facet normal -0.990268 -3.19052e-009 0.139173
    outer loop
      vertex -3.26521 -4.6 5.50803
      vertex -3.96107 -2 0.556692
      vertex -4.65694 -4.6 -4.39465
    endloop
  endfacet
  facet normal -0.990268 6.72807e-008 0.139173
    outer loop
      vertex -3.96107 -2 0.556692
      vertex -3.26521 -4.6 5.50803
      vertex -3.91195 -1.95354 0.906192
    endloop
  endfacet
  facet normal -0.990268 -1.29092e-006 0.139172
    outer loop
      vertex -3.91195 -1.95354 0.906192
      vertex -3.26521 -4.6 5.50803
      vertex -3.88903 -1.93185 1.06929
    endloop
  endfacet
  facet normal -0.990268 0 0.139173
    outer loop
      vertex -3.68273 -4.44089e-016 2.53723
      vertex -3.26521 -4.6 5.50803
      vertex -3.26521 4.6 5.50803
    endloop
  endfacet
  facet normal -0.990268 3.52856e-007 0.139173
    outer loop
      vertex -3.75018 -1.28242 2.05729
      vertex -3.26521 -4.6 5.50803
      vertex -3.72002 -0.999999 2.27189
    endloop
  endfacet
  facet normal -0.990268 8.53904e-008 0.139173
    outer loop
      vertex -3.76425 -1.41421 1.95714
      vertex -3.26521 -4.6 5.50803
      vertex -3.75018 -1.28242 2.05729
    endloop
  endfacet
  facet normal -0.990268 -1.67411e-008 0.139173
    outer loop
      vertex -3.8219 -1.73205 1.54696
      vertex -3.26521 -4.6 5.50803
      vertex -3.76425 -1.41421 1.95714
    endloop
  endfacet
  facet normal -0.990268 -5.65988e-008 0.139173
    outer loop
      vertex -3.88903 -1.93185 1.06929
      vertex -3.26521 -4.6 5.50803
      vertex -3.8219 -1.73205 1.54696
    endloop
  endfacet
  facet normal -0.139173 0 -0.990268
    outer loop
      vertex -4.65694 -4.6 -4.39465
      vertex -3.90732 5.11907 -4.5
      vertex -3.90732 -5.11907 -4.5
    endloop
  endfacet
  facet normal -0.139173 0 -0.990268
    outer loop
      vertex -3.90732 5.11907 -4.5
      vertex -4.65694 -4.6 -4.39465
      vertex -4.65694 4.6 -4.39465
    endloop
  endfacet
  facet normal -0.560025 0.824729 0.0787063
    outer loop
      vertex -1.13735 7 -4.5
      vertex -3.26521 4.6 5.50803
      vertex 0.200731 7 5.02093
    endloop
  endfacet
  facet normal -0.560025 0.824729 0.0787064
    outer loop
      vertex -3.26521 4.6 5.50803
      vertex -1.13735 7 -4.5
      vertex -3.90732 5.11907 -4.5
    endloop
  endfacet
  facet normal -0.560025 0.824729 0.0787064
    outer loop
      vertex -3.26521 4.6 5.50803
      vertex -3.90732 5.11907 -4.5
      vertex -4.65694 4.6 -4.39465
    endloop
  endfacet
  facet normal 0.870356 -0 0.492424
    outer loop
      vertex 17.7451 -7 -0.351738
      vertex 18.1307 7 -1.03336
      vertex 17.7451 7 -0.351738
    endloop
  endfacet
  facet normal 0.870356 0 0.492424
    outer loop
      vertex 18.1307 7 -1.03336
      vertex 17.7451 -7 -0.351738
      vertex 18.1307 -7 -1.03336
    endloop
  endfacet
  facet normal 0.507538 -0 0.86163
    outer loop
      vertex 16.5213 4.5 0.604331
      vertex 17.1961 7 0.206849
      vertex 16.5213 7 0.604331
    endloop
  endfacet
  facet normal 0.507538 0 0.86163
    outer loop
      vertex 17.1961 7 0.206849
      vertex 16.5213 4.5 0.604331
      vertex 17.1961 -7 0.206849
    endloop
  endfacet
  facet normal 0.507538 -0 0.86163
    outer loop
      vertex 16.5213 -4.5 0.604331
      vertex 17.1961 -7 0.206849
      vertex 16.5213 4.5 0.604331
    endloop
  endfacet
  facet normal 0.507538 0 0.86163
    outer loop
      vertex 17.1961 -7 0.206849
      vertex 16.5213 -4.5 0.604331
      vertex 16.5213 -7 0.604331
    endloop
  endfacet
  facet normal 0.70091 0 -0.71325
    outer loop
      vertex 17.2086 -7 -4.5
      vertex 17.7132 7 -4.00417
      vertex 17.7132 -7 -4.00417
    endloop
  endfacet
  facet normal 0.70091 0 -0.71325
    outer loop
      vertex 17.7132 7 -4.00417
      vertex 17.2086 -7 -4.5
      vertex 17.2086 7 -4.5
    endloop
  endfacet
  facet normal 0.861629 0 -0.507538
    outer loop
      vertex 18.1107 -7 -3.32938
      vertex 17.7132 7 -4.00417
      vertex 18.1107 7 -3.32938
    endloop
  endfacet
  facet normal 0.861629 0 -0.507538
    outer loop
      vertex 17.7132 7 -4.00417
      vertex 18.1107 -7 -3.32938
      vertex 17.7132 -7 -4.00417
    endloop
  endfacet
  facet normal 0.968148 -0 0.250378
    outer loop
      vertex 18.1307 -7 -1.03336
      vertex 18.3268 7 -1.79158
      vertex 18.1307 7 -1.03336
    endloop
  endfacet
  facet normal 0.968148 0 0.250378
    outer loop
      vertex 18.3268 7 -1.79158
      vertex 18.1307 -7 -1.03336
      vertex 18.3268 -7 -1.79158
    endloop
  endfacet
  facet normal 0.713251 -0 0.700909
    outer loop
      vertex 17.1961 -7 0.206849
      vertex 17.7451 7 -0.351738
      vertex 17.1961 7 0.206849
    endloop
  endfacet
  facet normal 0.713251 0 0.700909
    outer loop
      vertex 17.7451 7 -0.351738
      vertex 17.1961 -7 0.206849
      vertex 17.7451 -7 -0.351738
    endloop
  endfacet
  facet normal 0.999962 0 -0.00872382
    outer loop
      vertex 18.3268 -7 -1.79158
      vertex 18.32 7 -2.5747
      vertex 18.3268 7 -1.79158
    endloop
  endfacet
  facet normal 0.999962 0 -0.00872382
    outer loop
      vertex 18.32 7 -2.5747
      vertex 18.3268 -7 -1.79158
      vertex 18.32 -7 -2.5747
    endloop
  endfacet
  facet normal 0 -1 0
    outer loop
      vertex -1.13735 -7 -4.5
      vertex 2.6764 -7 4.67299
      vertex 0.200731 -7 5.02093
    endloop
  endfacet
  facet normal 0 -1 -0
    outer loop
      vertex 2.6764 -7 4.67299
      vertex -1.13735 -7 -4.5
      vertex 16.5213 -7 0.604331
    endloop
  endfacet
  facet normal 0 -1 0
    outer loop
      vertex 17.2086 -7 -4.5
      vertex 16.5213 -7 0.604331
      vertex -1.13735 -7 -4.5
    endloop
  endfacet
  facet normal 0 -1 0
    outer loop
      vertex 16.5213 -7 0.604331
      vertex 17.2086 -7 -4.5
      vertex 17.1961 -7 0.206849
    endloop
  endfacet
  facet normal 0 -1 -0
    outer loop
      vertex 17.7451 -7 -0.351738
      vertex 17.2086 -7 -4.5
      vertex 18.1307 -7 -1.03336
    endloop
  endfacet
  facet normal 0 -1 -0
    outer loop
      vertex 18.1307 -7 -1.03336
      vertex 17.2086 -7 -4.5
      vertex 18.3268 -7 -1.79158
    endloop
  endfacet
  facet normal 0 -1 0
    outer loop
      vertex 18.3268 -7 -1.79158
      vertex 17.2086 -7 -4.5
      vertex 18.32 -7 -2.5747
    endloop
  endfacet
  facet normal 0 -1 0
    outer loop
      vertex 18.32 -7 -2.5747
      vertex 17.2086 -7 -4.5
      vertex 18.1107 -7 -3.32938
    endloop
  endfacet
  facet normal 0 -1 0
    outer loop
      vertex 17.1961 -7 0.206849
      vertex 17.2086 -7 -4.5
      vertex 17.7451 -7 -0.351738
    endloop
  endfacet
  facet normal 0 -1 0
    outer loop
      vertex 18.1107 -7 -3.32938
      vertex 17.2086 -7 -4.5
      vertex 17.7132 -7 -4.00417
    endloop
  endfacet
  facet normal -0.560025 -0.824729 0.0787064
    outer loop
      vertex -3.90732 -5.11907 -4.5
      vertex -3.26521 -4.6 5.50803
      vertex -4.65694 -4.6 -4.39465
    endloop
  endfacet
  facet normal -0.560025 -0.824729 0.0787064
    outer loop
      vertex -1.13735 -7 -4.5
      vertex -3.26521 -4.6 5.50803
      vertex -3.90732 -5.11907 -4.5
    endloop
  endfacet
  facet normal -0.560025 -0.824729 0.0787063
    outer loop
      vertex -3.26521 -4.6 5.50803
      vertex -1.13735 -7 -4.5
      vertex 0.200731 -7 5.02093
    endloop
  endfacet
  facet normal 0.281951 0 0.959429
    outer loop
      vertex 2.6764 -4.5 4.67299
      vertex 16.5213 -7 0.604331
      vertex 16.5213 -4.5 0.604331
    endloop
  endfacet
  facet normal 0.281951 0 0.959429
    outer loop
      vertex 16.5213 -7 0.604331
      vertex 2.6764 -4.5 4.67299
      vertex 2.6764 -7 4.67299
    endloop
  endfacet
  facet normal 0 1 0
    outer loop
      vertex 2.6764 -4.5 4.67299
      vertex 15.7667 -4.5 0.813621
      vertex 14.9835 -4.5 0.820455
    endloop
  endfacet
  facet normal -0 1 -0
    outer loop
      vertex 15.7667 -4.5 0.813621
      vertex 2.6764 -4.5 4.67299
      vertex 16.5213 -4.5 0.604331
    endloop
  endfacet
  facet normal 0 1 -0
    outer loop
      vertex 14.2253 -4.5 0.624368
      vertex 2.6764 -4.5 4.67299
      vertex 14.9835 -4.5 0.820455
    endloop
  endfacet
  facet normal 0 1 -0
    outer loop
      vertex 13.5437 -4.5 0.238723
      vertex 2.6764 -4.5 4.67299
      vertex 14.2253 -4.5 0.624368
    endloop
  endfacet
  facet normal 0 1 -0
    outer loop
      vertex 12.9851 -4.5 -0.310199
      vertex 2.6764 -4.5 4.67299
      vertex 13.5437 -4.5 0.238723
    endloop
  endfacet
  facet normal 0 1 -0
    outer loop
      vertex 12.5876 -4.5 -0.98499
      vertex 2.6764 -4.5 4.67299
      vertex 12.9851 -4.5 -0.310199
    endloop
  endfacet
  facet normal 0 1 -0
    outer loop
      vertex 12.3784 -4.5 -1.73966
      vertex 2.6764 -4.5 4.67299
      vertex 12.5876 -4.5 -0.98499
    endloop
  endfacet
  facet normal 0 1 0
    outer loop
      vertex 1.38722 -4.5 -4.5
      vertex 12.3784 -4.5 -1.73966
      vertex 12.3715 -4.5 -2.52279
    endloop
  endfacet
  facet normal 0 1 0
    outer loop
      vertex 1.38722 -4.5 -4.5
      vertex 12.3715 -4.5 -2.52279
      vertex 12.5676 -4.5 -3.281
    endloop
  endfacet
  facet normal 0 1 0
    outer loop
      vertex 1.38722 -4.5 -4.5
      vertex 12.5676 -4.5 -3.281
      vertex 12.9532 -4.5 -3.96263
    endloop
  endfacet
  facet normal 0 1 0
    outer loop
      vertex 1.38722 -4.5 -4.5
      vertex 12.9532 -4.5 -3.96263
      vertex 13.4813 -4.5 -4.5
    endloop
  endfacet
  facet normal 0 1 0
    outer loop
      vertex 12.3784 -4.5 -1.73966
      vertex 1.38722 -4.5 -4.5
      vertex 2.6764 -4.5 4.67299
    endloop
  endfacet
  facet normal 0.990268 -4.54593e-008 -0.139173
    outer loop
      vertex 2.6764 4.5 4.67299
      vertex 1.98054 4.05 -0.278346
      vertex 1.38722 4.5 -4.5
    endloop
  endfacet
  facet normal 0.990268 3.86539e-008 -0.139173
    outer loop
      vertex 2.6764 4.5 4.67299
      vertex 2.46867 2.025 3.19492
      vertex 1.98054 4.05 -0.278346
    endloop
  endfacet
  facet normal 0.990268 0 -0.139173
    outer loop
      vertex 2.6764 4.5 4.67299
      vertex 2.46867 -2.025 3.19492
      vertex 2.46867 2.025 3.19492
    endloop
  endfacet
  facet normal 0.990268 -3.86539e-008 -0.139173
    outer loop
      vertex 2.46867 -2.025 3.19492
      vertex 2.6764 -4.5 4.67299
      vertex 1.98054 -4.05 -0.278346
    endloop
  endfacet
  facet normal 0.990268 0 -0.139173
    outer loop
      vertex 2.6764 -4.5 4.67299
      vertex 2.46867 -2.025 3.19492
      vertex 2.6764 4.5 4.67299
    endloop
  endfacet
  facet normal 0.990268 -4.96917e-009 -0.139173
    outer loop
      vertex 1.4924 2.025 -3.75161
      vertex 1.38722 4.5 -4.5
      vertex 1.98054 4.05 -0.278346
    endloop
  endfacet
  facet normal 0.990268 0 -0.139173
    outer loop
      vertex 1.4924 -2.025 -3.75161
      vertex 1.38722 4.5 -4.5
      vertex 1.4924 2.025 -3.75161
    endloop
  endfacet
  facet normal 0.990268 0 -0.139173
    outer loop
      vertex 1.4924 -2.025 -3.75161
      vertex 1.38722 -4.5 -4.5
      vertex 1.38722 4.5 -4.5
    endloop
  endfacet
  facet normal 0.990268 4.96917e-009 -0.139173
    outer loop
      vertex 1.98054 -4.05 -0.278346
      vertex 1.38722 -4.5 -4.5
      vertex 1.4924 -2.025 -3.75161
    endloop
  endfacet
  facet normal 0.990268 4.54593e-008 -0.139173
    outer loop
      vertex 1.38722 -4.5 -4.5
      vertex 1.98054 -4.05 -0.278346
      vertex 2.6764 -4.5 4.67299
    endloop
  endfacet
  facet normal 0.267239 0 0.96363
    outer loop
      vertex 15.7667 4.5 0.813621
      vertex 16.5213 -4.5 0.604331
      vertex 16.5213 4.5 0.604331
    endloop
  endfacet
  facet normal 0.267239 0 0.96363
    outer loop
      vertex 16.5213 -4.5 0.604331
      vertex 15.7667 4.5 0.813621
      vertex 15.7667 -4.5 0.813621
    endloop
  endfacet
  facet normal -0.870356 0 -0.492423
    outer loop
      vertex 12.9532 -4.5 -3.96263
      vertex 12.5676 4.5 -3.281
      vertex 12.9532 4.5 -3.96263
    endloop
  endfacet
  facet normal -0.870356 -0 -0.492423
    outer loop
      vertex 12.5676 4.5 -3.281
      vertex 12.9532 -4.5 -3.96263
      vertex 12.5676 -4.5 -3.281
    endloop
  endfacet
  facet normal -0.71325 0 -0.700909
    outer loop
      vertex 13.4813 -4.5 -4.5
      vertex 12.9532 4.5 -3.96263
      vertex 13.4813 4.5 -4.5
    endloop
  endfacet
  facet normal -0.71325 -0 -0.700909
    outer loop
      vertex 12.9532 4.5 -3.96263
      vertex 13.4813 -4.5 -4.5
      vertex 12.9532 -4.5 -3.96263
    endloop
  endfacet
  facet normal -0.968148 0 -0.25038
    outer loop
      vertex 12.5676 -4.5 -3.281
      vertex 12.3715 4.5 -2.52279
      vertex 12.5676 4.5 -3.281
    endloop
  endfacet
  facet normal -0.968148 -0 -0.25038
    outer loop
      vertex 12.3715 4.5 -2.52279
      vertex 12.5676 -4.5 -3.281
      vertex 12.3715 -4.5 -2.52279
    endloop
  endfacet
  facet normal -0.999962 0 0.00872748
    outer loop
      vertex 12.3715 -4.5 -2.52279
      vertex 12.3784 4.5 -1.73966
      vertex 12.3715 4.5 -2.52279
    endloop
  endfacet
  facet normal -0.999962 0 0.00872748
    outer loop
      vertex 12.3784 4.5 -1.73966
      vertex 12.3715 -4.5 -2.52279
      vertex 12.3784 -4.5 -1.73966
    endloop
  endfacet
  facet normal -0.96363 0 0.267238
    outer loop
      vertex 12.3784 -4.5 -1.73966
      vertex 12.5876 4.5 -0.98499
      vertex 12.3784 4.5 -1.73966
    endloop
  endfacet
  facet normal -0.96363 0 0.267238
    outer loop
      vertex 12.5876 4.5 -0.98499
      vertex 12.3784 -4.5 -1.73966
      vertex 12.5876 -4.5 -0.98499
    endloop
  endfacet
  facet normal -0.86163 0 0.507537
    outer loop
      vertex 12.5876 -4.5 -0.98499
      vertex 12.9851 4.5 -0.310199
      vertex 12.5876 4.5 -0.98499
    endloop
  endfacet
  facet normal -0.86163 0 0.507537
    outer loop
      vertex 12.9851 4.5 -0.310199
      vertex 12.5876 -4.5 -0.98499
      vertex 12.9851 -4.5 -0.310199
    endloop
  endfacet
  facet normal -0.250379 0 0.968148
    outer loop
      vertex 14.2253 4.5 0.624368
      vertex 14.9835 -4.5 0.820455
      vertex 14.9835 4.5 0.820455
    endloop
  endfacet
  facet normal -0.250379 0 0.968148
    outer loop
      vertex 14.9835 -4.5 0.820455
      vertex 14.2253 4.5 0.624368
      vertex 14.2253 -4.5 0.624368
    endloop
  endfacet
  facet normal -0.700909 0 0.713251
    outer loop
      vertex 12.9851 4.5 -0.310199
      vertex 13.5437 -4.5 0.238723
      vertex 13.5437 4.5 0.238723
    endloop
  endfacet
  facet normal -0.700909 0 0.713251
    outer loop
      vertex 13.5437 -4.5 0.238723
      vertex 12.9851 4.5 -0.310199
      vertex 12.9851 -4.5 -0.310199
    endloop
  endfacet
  facet normal -0.492424 0 0.870355
    outer loop
      vertex 13.5437 4.5 0.238723
      vertex 14.2253 -4.5 0.624368
      vertex 14.2253 4.5 0.624368
    endloop
  endfacet
  facet normal -0.492424 0 0.870355
    outer loop
      vertex 14.2253 -4.5 0.624368
      vertex 13.5437 4.5 0.238723
      vertex 13.5437 -4.5 0.238723
    endloop
  endfacet
  facet normal 0.00872549 0 0.999962
    outer loop
      vertex 14.9835 4.5 0.820455
      vertex 15.7667 -4.5 0.813621
      vertex 15.7667 4.5 0.813621
    endloop
  endfacet
  facet normal 0.00872549 0 0.999962
    outer loop
      vertex 15.7667 -4.5 0.813621
      vertex 14.9835 4.5 0.820455
      vertex 14.9835 -4.5 0.820455
    endloop
  endfacet
  facet normal 0.0181658 -0.991445 0.129257
    outer loop
      vertex -4.03311 1.93185 0.0440928
      vertex -1.22041 1.96964 -0.0613322
      vertex -3.98399 1.97832 0.393593
    endloop
  endfacet
  facet normal 0.0181658 -0.991445 0.129257
    outer loop
      vertex -1.22041 1.96964 -0.0613322
      vertex -4.03311 1.93185 0.0440928
      vertex -1.26036 1.93185 -0.345592
    endloop
  endfacet
  facet normal 0.0181655 -0.991445 0.129255
    outer loop
      vertex -3.98399 1.97832 0.393593
      vertex -1.18832 2 0.167008
      vertex -3.96107 2 0.556692
    endloop
  endfacet
  facet normal 0.0181655 -0.991445 0.129255
    outer loop
      vertex -1.18832 2 0.167008
      vertex -3.98399 1.97832 0.393593
      vertex -1.22041 1.96964 -0.0613322
    endloop
  endfacet
  facet normal -0.0181656 0.991445 -0.129255
    outer loop
      vertex -1.14837 -1.96221 0.451267
      vertex -3.96107 -2 0.556692
      vertex -3.91195 -1.95354 0.906192
    endloop
  endfacet
  facet normal -0.0181656 0.991445 -0.129255
    outer loop
      vertex -3.96107 -2 0.556692
      vertex -1.14837 -1.96221 0.451267
      vertex -1.18832 -2 0.167008
    endloop
  endfacet
  facet normal 0.0532594 -0.923879 0.37896
    outer loop
      vertex -4.10025 1.73205 -0.433575
      vertex -1.26036 1.93185 -0.345592
      vertex -4.03311 1.93185 0.0440928
    endloop
  endfacet
  facet normal 0.0532594 -0.923879 0.37896
    outer loop
      vertex -1.26036 1.93185 -0.345592
      vertex -4.10025 1.73205 -0.433575
      vertex -1.32749 1.73205 -0.823259
    endloop
  endfacet
  facet normal 0.0847231 0.793354 0.602836
    outer loop
      vertex -1.32749 -1.73205 -0.823259
      vertex -4.15789 -1.41421 -0.843758
      vertex -4.10025 -1.73205 -0.433575
    endloop
  endfacet
  facet normal 0.0847231 0.793354 0.602836
    outer loop
      vertex -4.15789 -1.41421 -0.843758
      vertex -1.32749 -1.73205 -0.823259
      vertex -1.38514 -1.41421 -1.23344
    endloop
  endfacet
  facet normal 0.110414 -0.60876 0.785633
    outer loop
      vertex -4.18805 1.1318 -1.05836
      vertex -1.42938 1 -1.54819
      vertex -1.40967 1.18451 -1.40798
    endloop
  endfacet
  facet normal 0.110414 -0.60876 0.785633
    outer loop
      vertex -1.42938 1 -1.54819
      vertex -4.18805 1.1318 -1.05836
      vertex -4.20213 1 -1.1585
    endloop
  endfacet
  facet normal 0.110413 -0.608761 0.785633
    outer loop
      vertex -4.15789 1.41421 -0.843758
      vertex -1.40967 1.18451 -1.40798
      vertex -1.38514 1.41421 -1.23344
    endloop
  endfacet
  facet normal 0.110413 -0.608761 0.785633
    outer loop
      vertex -1.40967 1.18451 -1.40798
      vertex -4.15789 1.41421 -0.843758
      vertex -4.18805 1.1318 -1.05836
    endloop
  endfacet
  facet normal 0.128579 -0.382684 0.914888
    outer loop
      vertex -4.21097 0.846521 -1.22146
      vertex -1.45718 0.517637 -1.74604
      vertex -1.44176 0.785129 -1.63632
    endloop
  endfacet
  facet normal 0.128579 -0.382684 0.914888
    outer loop
      vertex -1.45718 0.517637 -1.74604
      vertex -4.21097 0.846521 -1.22146
      vertex -4.22993 0.517637 -1.35636
    endloop
  endfacet
  facet normal 0.137982 -0.130527 0.981796
    outer loop
      vertex -4.22993 0.517637 -1.35636
      vertex -1.46667 4.44089e-016 -1.81353
      vertex -1.45718 0.517637 -1.74604
    endloop
  endfacet
  facet normal 0.137982 -0.130527 0.981796
    outer loop
      vertex -1.46667 4.44089e-016 -1.81353
      vertex -4.22993 0.517637 -1.35636
      vertex -4.23942 4.44089e-016 -1.42384
    endloop
  endfacet
  facet normal 0.0847231 -0.793354 0.602836
    outer loop
      vertex -4.15789 1.41421 -0.843758
      vertex -1.32749 1.73205 -0.823259
      vertex -4.10025 1.73205 -0.433575
    endloop
  endfacet
  facet normal 0.0847231 -0.793354 0.602836
    outer loop
      vertex -1.32749 1.73205 -0.823259
      vertex -4.15789 1.41421 -0.843758
      vertex -1.38514 1.41421 -1.23344
    endloop
  endfacet
  facet normal -0.137982 0.130527 -0.981796
    outer loop
      vertex -0.91946 -0.517637 2.08006
      vertex -3.68273 -4.44089e-016 2.53723
      vertex -0.909975 -4.44089e-016 2.14754
    endloop
  endfacet
  facet normal -0.137983 0.130527 -0.981796
    outer loop
      vertex -3.68273 -4.44089e-016 2.53723
      vertex -0.91946 -0.517637 2.08006
      vertex -3.69221 -0.517637 2.46974
    endloop
  endfacet
  facet normal -0.0181659 0.991445 -0.129257
    outer loop
      vertex -1.11628 -1.93185 0.679607
      vertex -3.91195 -1.95354 0.906192
      vertex -3.88903 -1.93185 1.06929
    endloop
  endfacet
  facet normal -0.0181659 0.991445 -0.129257
    outer loop
      vertex -3.91195 -1.95354 0.906192
      vertex -1.11628 -1.93185 0.679607
      vertex -1.14837 -1.96221 0.451267
    endloop
  endfacet
  facet normal -0.110413 0.608762 -0.785632
    outer loop
      vertex -0.991501 -1.41421 1.56746
      vertex -3.75018 -1.28242 2.05729
      vertex -0.971797 -1.2297 1.70766
    endloop
  endfacet
  facet normal -0.110414 0.608761 -0.785633
    outer loop
      vertex -3.75018 -1.28242 2.05729
      vertex -0.991501 -1.41421 1.56746
      vertex -3.76425 -1.41421 1.95714
    endloop
  endfacet
  facet normal -0.110413 -0.608761 -0.785633
    outer loop
      vertex -3.73409 1.1318 2.17174
      vertex -0.991501 1.41421 1.56746
      vertex -0.966971 1.18451 1.742
    endloop
  endfacet
  facet normal -0.110413 -0.608761 -0.785633
    outer loop
      vertex -0.991501 1.41421 1.56746
      vertex -3.73409 1.1318 2.17174
      vertex -3.76425 1.41421 1.95714
    endloop
  endfacet
  facet normal -0.0181658 -0.991445 -0.129257
    outer loop
      vertex -1.15623 1.96964 0.395348
      vertex -3.88903 1.93185 1.06929
      vertex -3.93815 1.97832 0.719792
    endloop
  endfacet
  facet normal -0.0181658 -0.991445 -0.129257
    outer loop
      vertex -3.88903 1.93185 1.06929
      vertex -1.15623 1.96964 0.395348
      vertex -1.11628 1.93185 0.679607
    endloop
  endfacet
  facet normal -0.0181656 -0.991445 -0.129255
    outer loop
      vertex -1.18832 2 0.167008
      vertex -3.93815 1.97832 0.719792
      vertex -3.96107 2 0.556692
    endloop
  endfacet
  facet normal -0.0181656 -0.991445 -0.129255
    outer loop
      vertex -3.93815 1.97832 0.719792
      vertex -1.18832 2 0.167008
      vertex -1.15623 1.96964 0.395348
    endloop
  endfacet
  facet normal 0.0181656 0.991445 0.129255
    outer loop
      vertex -1.22827 -1.96221 -0.117252
      vertex -3.96107 -2 0.556692
      vertex -1.18832 -2 0.167008
    endloop
  endfacet
  facet normal 0.0181656 0.991445 0.129255
    outer loop
      vertex -3.96107 -2 0.556692
      vertex -1.22827 -1.96221 -0.117252
      vertex -4.01019 -1.95354 0.207193
    endloop
  endfacet
  facet normal 0.110414 0.60876 0.785633
    outer loop
      vertex -1.42938 -0.999999 -1.54819
      vertex -4.17197 -1.28242 -0.943903
      vertex -1.40485 -1.2297 -1.37365
    endloop
  endfacet
  facet normal 0.110414 0.60876 0.785633
    outer loop
      vertex -4.17197 -1.28242 -0.943903
      vertex -1.42938 -0.999999 -1.54819
      vertex -4.20213 -0.999999 -1.1585
    endloop
  endfacet
  facet normal 0.110413 0.608761 0.785633
    outer loop
      vertex -1.40485 -1.2297 -1.37365
      vertex -4.15789 -1.41421 -0.843758
      vertex -1.38514 -1.41421 -1.23344
    endloop
  endfacet
  facet normal 0.110413 0.608761 0.785633
    outer loop
      vertex -4.15789 -1.41421 -0.843758
      vertex -1.40485 -1.2297 -1.37365
      vertex -4.17197 -1.28242 -0.943903
    endloop
  endfacet
  facet normal 0.128579 0.382684 0.914888
    outer loop
      vertex -1.45718 -0.517637 -1.74604
      vertex -4.22109 -0.671116 -1.2934
      vertex -1.4448 -0.732508 -1.65791
    endloop
  endfacet
  facet normal 0.128579 0.382684 0.914888
    outer loop
      vertex -4.22109 -0.671116 -1.2934
      vertex -1.45718 -0.517637 -1.74604
      vertex -4.22993 -0.517637 -1.35636
    endloop
  endfacet
  facet normal 0.137982 0.130527 0.981796
    outer loop
      vertex -1.46667 4.44089e-016 -1.81353
      vertex -4.22993 -0.517637 -1.35636
      vertex -1.45718 -0.517637 -1.74604
    endloop
  endfacet
  facet normal 0.137982 0.130527 0.981796
    outer loop
      vertex -4.22993 -0.517637 -1.35636
      vertex -1.46667 4.44089e-016 -1.81353
      vertex -4.23942 4.44089e-016 -1.42384
    endloop
  endfacet
  facet normal 0.128579 -0.382685 0.914888
    outer loop
      vertex -4.20213 1 -1.1585
      vertex -1.44176 0.785129 -1.63632
      vertex -1.42938 1 -1.54819
    endloop
  endfacet
  facet normal 0.128579 -0.382684 0.914888
    outer loop
      vertex -1.44176 0.785129 -1.63632
      vertex -4.20213 1 -1.1585
      vertex -4.21097 0.846521 -1.22146
    endloop
  endfacet
  facet normal -0.0532594 0.923879 -0.37896
    outer loop
      vertex -1.04915 -1.73205 1.15727
      vertex -3.88903 -1.93185 1.06929
      vertex -3.8219 -1.73205 1.54696
    endloop
  endfacet
  facet normal -0.0532594 0.923879 -0.37896
    outer loop
      vertex -3.88903 -1.93185 1.06929
      vertex -1.04915 -1.73205 1.15727
      vertex -1.11628 -1.93185 0.679607
    endloop
  endfacet
  facet normal 0.0181658 0.991445 0.129257
    outer loop
      vertex -1.26036 -1.93185 -0.345592
      vertex -4.01019 -1.95354 0.207193
      vertex -1.22827 -1.96221 -0.117252
    endloop
  endfacet
  facet normal 0.0181659 0.991445 0.129257
    outer loop
      vertex -4.01019 -1.95354 0.207193
      vertex -1.26036 -1.93185 -0.345592
      vertex -4.03311 -1.93185 0.0440928
    endloop
  endfacet
  facet normal 0.0532594 0.923879 0.37896
    outer loop
      vertex -1.26036 -1.93185 -0.345592
      vertex -4.10025 -1.73205 -0.433575
      vertex -4.03311 -1.93185 0.0440928
    endloop
  endfacet
  facet normal 0.0532594 0.923879 0.37896
    outer loop
      vertex -4.10025 -1.73205 -0.433575
      vertex -1.26036 -1.93185 -0.345592
      vertex -1.32749 -1.73205 -0.823259
    endloop
  endfacet
  facet normal 0.128579 0.382685 0.914888
    outer loop
      vertex -1.4448 -0.732508 -1.65791
      vertex -4.20213 -0.999999 -1.1585
      vertex -1.42938 -0.999999 -1.54819
    endloop
  endfacet
  facet normal 0.128579 0.382685 0.914888
    outer loop
      vertex -4.20213 -0.999999 -1.1585
      vertex -1.4448 -0.732508 -1.65791
      vertex -4.22109 -0.671116 -1.2934
    endloop
  endfacet
  facet normal -0.128579 0.382683 -0.914888
    outer loop
      vertex -0.931846 -0.732508 1.99192
      vertex -3.69221 -0.517637 2.46974
      vertex -0.91946 -0.517637 2.08006
    endloop
  endfacet
  facet normal -0.128579 0.382685 -0.914888
    outer loop
      vertex -3.69221 -0.517637 2.46974
      vertex -0.931846 -0.732508 1.99192
      vertex -3.70106 -0.671116 2.40679
    endloop
  endfacet
  facet normal -0.0847231 0.793354 -0.602836
    outer loop
      vertex -0.991501 -1.41421 1.56746
      vertex -3.8219 -1.73205 1.54696
      vertex -3.76425 -1.41421 1.95714
    endloop
  endfacet
  facet normal -0.0847231 0.793354 -0.602836
    outer loop
      vertex -3.8219 -1.73205 1.54696
      vertex -0.991501 -1.41421 1.56746
      vertex -1.04915 -1.73205 1.15727
    endloop
  endfacet
  facet normal -0.128579 -0.382685 -0.914888
    outer loop
      vertex -3.71117 0.846521 2.33484
      vertex -0.947267 1 1.8822
      vertex -0.93488 0.785129 1.97034
    endloop
  endfacet
  facet normal -0.128579 -0.382684 -0.914888
    outer loop
      vertex -0.947267 1 1.8822
      vertex -3.71117 0.846521 2.33484
      vertex -3.72002 1 2.27189
    endloop
  endfacet
  facet normal -0.110414 -0.60876 -0.785633
    outer loop
      vertex -3.72002 1 2.27189
      vertex -0.966971 1.18451 1.742
      vertex -0.947267 1 1.8822
    endloop
  endfacet
  facet normal -0.110414 -0.60876 -0.785634
    outer loop
      vertex -0.966971 1.18451 1.742
      vertex -3.72002 1 2.27189
      vertex -3.73409 1.1318 2.17174
    endloop
  endfacet
  facet normal -0.128579 -0.382684 -0.914888
    outer loop
      vertex -3.69221 0.517637 2.46974
      vertex -0.93488 0.785129 1.97034
      vertex -0.91946 0.517637 2.08006
    endloop
  endfacet
  facet normal -0.128579 -0.382684 -0.914888
    outer loop
      vertex -0.93488 0.785129 1.97034
      vertex -3.69221 0.517637 2.46974
      vertex -3.71117 0.846521 2.33484
    endloop
  endfacet
  facet normal -0.137982 -0.130527 -0.981796
    outer loop
      vertex -3.68273 -4.44089e-016 2.53723
      vertex -0.91946 0.517637 2.08006
      vertex -0.909975 -4.44089e-016 2.14754
    endloop
  endfacet
  facet normal -0.137983 -0.130527 -0.981796
    outer loop
      vertex -0.91946 0.517637 2.08006
      vertex -3.68273 -4.44089e-016 2.53723
      vertex -3.69221 0.517637 2.46974
    endloop
  endfacet
  facet normal -0.0532593 -0.923879 -0.37896
    outer loop
      vertex -3.88903 1.93185 1.06929
      vertex -1.04915 1.73205 1.15728
      vertex -3.8219 1.73205 1.54696
    endloop
  endfacet
  facet normal -0.0532593 -0.923879 -0.37896
    outer loop
      vertex -1.04915 1.73205 1.15728
      vertex -3.88903 1.93185 1.06929
      vertex -1.11628 1.93185 0.679607
    endloop
  endfacet
  facet normal -0.0847232 -0.793354 -0.602837
    outer loop
      vertex -3.8219 1.73205 1.54696
      vertex -0.991501 1.41421 1.56746
      vertex -3.76425 1.41421 1.95714
    endloop
  endfacet
  facet normal -0.0847232 -0.793353 -0.602837
    outer loop
      vertex -0.991501 1.41421 1.56746
      vertex -3.8219 1.73205 1.54696
      vertex -1.04915 1.73205 1.15728
    endloop
  endfacet
  facet normal -0.128579 0.382685 -0.914888
    outer loop
      vertex -0.947267 -0.999999 1.8822
      vertex -3.70106 -0.671116 2.40679
      vertex -0.931846 -0.732508 1.99192
    endloop
  endfacet
  facet normal -0.128579 0.382684 -0.914888
    outer loop
      vertex -3.70106 -0.671116 2.40679
      vertex -0.947267 -0.999999 1.8822
      vertex -3.72002 -0.999999 2.27189
    endloop
  endfacet
  facet normal -0.110414 0.60876 -0.785634
    outer loop
      vertex -0.971797 -1.2297 1.70766
      vertex -3.72002 -0.999999 2.27189
      vertex -0.947267 -0.999999 1.8822
    endloop
  endfacet
  facet normal -0.110413 0.60876 -0.785633
    outer loop
      vertex -3.72002 -0.999999 2.27189
      vertex -0.971797 -1.2297 1.70766
      vertex -3.75018 -1.28242 2.05729
    endloop
  endfacet
  facet normal 0.0695866 -0.866025 0.495134
    outer loop
      vertex -1.67646 2.025 -3.30626
      vertex 1.98054 4.05 -0.278346
      vertex -1.18832 4.05 0.167008
    endloop
  endfacet
  facet normal 0.0695866 -0.866025 0.495134
    outer loop
      vertex 1.98054 4.05 -0.278346
      vertex -1.67646 2.025 -3.30626
      vertex 1.4924 2.025 -3.75161
    endloop
  endfacet
  facet normal 0.0695866 0.866025 0.495134
    outer loop
      vertex 1.98054 -4.05 -0.278346
      vertex -1.67646 -2.025 -3.30626
      vertex -1.18832 -4.05 0.167008
    endloop
  endfacet
  facet normal 0.0695866 0.866025 0.495134
    outer loop
      vertex -1.67646 -2.025 -3.30626
      vertex 1.98054 -4.05 -0.278346
      vertex 1.4924 -2.025 -3.75161
    endloop
  endfacet
  facet normal 0.139173 0 0.990268
    outer loop
      vertex -1.67646 2.025 -3.30626
      vertex 1.4924 -2.025 -3.75161
      vertex 1.4924 2.025 -3.75161
    endloop
  endfacet
  facet normal 0.139173 0 0.990268
    outer loop
      vertex 1.4924 -2.025 -3.75161
      vertex -1.67646 2.025 -3.30626
      vertex -1.67646 -2.025 -3.30626
    endloop
  endfacet
  facet normal 0.990268 -3.66222e-008 -0.139173
    outer loop
      vertex -1.04915 1.73205 1.15728
      vertex -1.18832 4.05 0.167008
      vertex -0.700185 2.025 3.64028
    endloop
  endfacet
  facet normal 0.990268 0 -0.139173
    outer loop
      vertex -1.22041 1.96964 -0.0613322
      vertex -1.18832 4.05 0.167008
      vertex -1.18832 2 0.167008
    endloop
  endfacet
  facet normal 0.990268 0 -0.139173
    outer loop
      vertex -1.18832 4.05 0.167008
      vertex -1.15623 1.96964 0.395348
      vertex -1.18832 2 0.167008
    endloop
  endfacet
  facet normal 0.990268 -3.3024e-008 -0.139173
    outer loop
      vertex -1.18832 4.05 0.167008
      vertex -1.11628 1.93185 0.679607
      vertex -1.15623 1.96964 0.395348
    endloop
  endfacet
  facet normal 0.990268 1.29782e-008 -0.139173
    outer loop
      vertex -1.18832 4.05 0.167008
      vertex -1.04915 1.73205 1.15728
      vertex -1.11628 1.93185 0.679607
    endloop
  endfacet
  facet normal 0.990268 2.15922e-007 -0.139173
    outer loop
      vertex -0.700185 2.025 3.64028
      vertex -0.991501 1.41421 1.56746
      vertex -1.04915 1.73205 1.15728
    endloop
  endfacet
  facet normal 0.990268 -5.36494e-008 -0.139173
    outer loop
      vertex -0.700185 2.025 3.64028
      vertex -0.966971 1.18451 1.742
      vertex -0.991501 1.41421 1.56746
    endloop
  endfacet
  facet normal 0.990268 -1.47231e-007 -0.139173
    outer loop
      vertex -0.700185 2.025 3.64028
      vertex -0.947267 1 1.8822
      vertex -0.966971 1.18451 1.742
    endloop
  endfacet
  facet normal 0.990268 1.7463e-007 -0.139173
    outer loop
      vertex -0.700185 2.025 3.64028
      vertex -0.93488 0.785129 1.97034
      vertex -0.947267 1 1.8822
    endloop
  endfacet
  facet normal 0.990268 -6.29397e-008 -0.139173
    outer loop
      vertex -0.700185 2.025 3.64028
      vertex -0.91946 0.517637 2.08006
      vertex -0.93488 0.785129 1.97034
    endloop
  endfacet
  facet normal 0.990268 -1.37289e-008 -0.139173
    outer loop
      vertex -0.700185 2.025 3.64028
      vertex -0.909975 -4.44089e-016 2.14754
      vertex -0.91946 0.517637 2.08006
    endloop
  endfacet
  facet normal 0.990268 0 -0.139173
    outer loop
      vertex -0.700185 -2.025 3.64028
      vertex -0.909975 -4.44089e-016 2.14754
      vertex -0.700185 2.025 3.64028
    endloop
  endfacet
  facet normal 0.990268 1.37289e-008 -0.139173
    outer loop
      vertex -0.909975 -4.44089e-016 2.14754
      vertex -0.700185 -2.025 3.64028
      vertex -0.91946 -0.517637 2.08006
    endloop
  endfacet
  facet normal 0.990268 -1.75847e-008 -0.139173
    outer loop
      vertex -0.91946 -0.517637 2.08006
      vertex -0.700185 -2.025 3.64028
      vertex -0.931846 -0.732508 1.99192
    endloop
  endfacet
  facet normal 0.990268 -4.33825e-008 -0.139173
    outer loop
      vertex -1.11628 -1.93185 0.679607
      vertex -1.18832 -4.05 0.167008
      vertex -1.14837 -1.96221 0.451267
    endloop
  endfacet
  facet normal 0.990268 -4.70506e-009 -0.139173
    outer loop
      vertex -1.04915 -1.73205 1.15727
      vertex -1.18832 -4.05 0.167008
      vertex -1.11628 -1.93185 0.679607
    endloop
  endfacet
  facet normal 0.990268 2.81902e-008 -0.139173
    outer loop
      vertex -1.18832 -4.05 0.167008
      vertex -1.04915 -1.73205 1.15727
      vertex -0.700185 -2.025 3.64028
    endloop
  endfacet
  facet normal 0.990268 -1.82467e-007 -0.139173
    outer loop
      vertex -0.991501 -1.41421 1.56746
      vertex -0.700185 -2.025 3.64028
      vertex -1.04915 -1.73205 1.15727
    endloop
  endfacet
  facet normal 0.990268 2.29302e-007 -0.139173
    outer loop
      vertex -0.971797 -1.2297 1.70766
      vertex -0.700185 -2.025 3.64028
      vertex -0.991501 -1.41421 1.56746
    endloop
  endfacet
  facet normal 0.990268 1.05078e-008 -0.139173
    outer loop
      vertex -0.947267 -0.999999 1.8822
      vertex -0.700185 -2.025 3.64028
      vertex -0.971797 -1.2297 1.70766
    endloop
  endfacet
  facet normal 0.990268 -5.25423e-008 -0.139173
    outer loop
      vertex -0.931846 -0.732508 1.99192
      vertex -0.700185 -2.025 3.64028
      vertex -0.947267 -0.999999 1.8822
    endloop
  endfacet
  facet normal 0.990268 -7.06188e-008 -0.139173
    outer loop
      vertex -1.26036 1.93185 -0.345592
      vertex -1.18832 4.05 0.167008
      vertex -1.22041 1.96964 -0.0613322
    endloop
  endfacet
  facet normal 0.990268 6.86938e-008 -0.139173
    outer loop
      vertex -1.32749 1.73205 -0.823259
      vertex -1.18832 4.05 0.167008
      vertex -1.26036 1.93185 -0.345592
    endloop
  endfacet
  facet normal 0.990268 -3.72579e-008 -0.139173
    outer loop
      vertex -1.18832 4.05 0.167008
      vertex -1.32749 1.73205 -0.823259
      vertex -1.67646 2.025 -3.30626
    endloop
  endfacet
  facet normal 0.990268 -4.06722e-008 -0.139173
    outer loop
      vertex -1.38514 1.41421 -1.23344
      vertex -1.67646 2.025 -3.30626
      vertex -1.32749 1.73205 -0.823259
    endloop
  endfacet
  facet normal 0.990268 4.59089e-008 -0.139173
    outer loop
      vertex -1.40967 1.18451 -1.40798
      vertex -1.67646 2.025 -3.30626
      vertex -1.38514 1.41421 -1.23344
    endloop
  endfacet
  facet normal 0.990268 1.3949e-007 -0.139173
    outer loop
      vertex -1.42938 1 -1.54819
      vertex -1.67646 2.025 -3.30626
      vertex -1.40967 1.18451 -1.40798
    endloop
  endfacet
  facet normal 0.990268 -1.79496e-007 -0.139173
    outer loop
      vertex -1.44176 0.785129 -1.63632
      vertex -1.67646 2.025 -3.30626
      vertex -1.42938 1 -1.54819
    endloop
  endfacet
  facet normal 0.990268 1.05618e-007 -0.139173
    outer loop
      vertex -1.45718 0.517637 -1.74604
      vertex -1.67646 2.025 -3.30626
      vertex -1.44176 0.785129 -1.63632
    endloop
  endfacet
  facet normal 0.990268 5.73826e-008 -0.139173
    outer loop
      vertex -1.46667 4.44089e-016 -1.81353
      vertex -1.67646 2.025 -3.30626
      vertex -1.45718 0.517637 -1.74604
    endloop
  endfacet
  facet normal 0.990268 -5.73826e-008 -0.139173
    outer loop
      vertex -1.67646 -2.025 -3.30626
      vertex -1.46667 4.44089e-016 -1.81353
      vertex -1.45718 -0.517637 -1.74604
    endloop
  endfacet
  facet normal 0.990268 1.60763e-007 -0.139173
    outer loop
      vertex -1.67646 -2.025 -3.30626
      vertex -1.45718 -0.517637 -1.74604
      vertex -1.4448 -0.732508 -1.65791
    endloop
  endfacet
  facet normal 0.990268 -1.20666e-007 -0.139173
    outer loop
      vertex -1.67646 -2.025 -3.30626
      vertex -1.4448 -0.732508 -1.65791
      vertex -1.42938 -0.999999 -1.54819
    endloop
  endfacet
  facet normal 0.990268 0 -0.139173
    outer loop
      vertex -1.46667 4.44089e-016 -1.81353
      vertex -1.67646 -2.025 -3.30626
      vertex -1.67646 2.025 -3.30626
    endloop
  endfacet
  facet normal 0.990268 -5.28206e-008 -0.139173
    outer loop
      vertex -1.40485 -1.2297 -1.37365
      vertex -1.67646 -2.025 -3.30626
      vertex -1.42938 -0.999999 -1.54819
    endloop
  endfacet
  facet normal 0.990268 -1.48095e-007 -0.139173
    outer loop
      vertex -1.38514 -1.41421 -1.23344
      vertex -1.67646 -2.025 -3.30626
      vertex -1.40485 -1.2297 -1.37365
    endloop
  endfacet
  facet normal 0.990268 4.06722e-008 -0.139173
    outer loop
      vertex -1.32749 -1.73205 -0.823259
      vertex -1.67646 -2.025 -3.30626
      vertex -1.38514 -1.41421 -1.23344
    endloop
  endfacet
  facet normal 0.990268 -6.86938e-008 -0.139173
    outer loop
      vertex -1.18832 -4.05 0.167008
      vertex -1.32749 -1.73205 -0.823259
      vertex -1.26036 -1.93185 -0.345592
    endloop
  endfacet
  facet normal 0.990268 4.24947e-008 -0.139173
    outer loop
      vertex -1.18832 -4.05 0.167008
      vertex -1.26036 -1.93185 -0.345592
      vertex -1.22827 -1.96221 -0.117252
    endloop
  endfacet
  facet normal 0.990268 0 -0.139173
    outer loop
      vertex -1.18832 -4.05 0.167008
      vertex -1.22827 -1.96221 -0.117252
      vertex -1.18832 -2 0.167008
    endloop
  endfacet
  facet normal 0.990268 0 -0.139173
    outer loop
      vertex -1.14837 -1.96221 0.451267
      vertex -1.18832 -4.05 0.167008
      vertex -1.18832 -2 0.167008
    endloop
  endfacet
  facet normal 0.990268 3.72579e-008 -0.139173
    outer loop
      vertex -1.32749 -1.73205 -0.823259
      vertex -1.18832 -4.05 0.167008
      vertex -1.67646 -2.025 -3.30626
    endloop
  endfacet
  facet normal -0.0695866 -0.866025 -0.495134
    outer loop
      vertex -1.18832 4.05 0.167008
      vertex 2.46867 2.025 3.19492
      vertex -0.700185 2.025 3.64028
    endloop
  endfacet
  facet normal -0.0695866 -0.866025 -0.495134
    outer loop
      vertex 2.46867 2.025 3.19492
      vertex -1.18832 4.05 0.167008
      vertex 1.98054 4.05 -0.278346
    endloop
  endfacet
  facet normal -0.139173 0 -0.990268
    outer loop
      vertex -0.700185 -2.025 3.64028
      vertex 2.46867 2.025 3.19492
      vertex 2.46867 -2.025 3.19492
    endloop
  endfacet
  facet normal -0.139173 0 -0.990268
    outer loop
      vertex 2.46867 2.025 3.19492
      vertex -0.700185 -2.025 3.64028
      vertex -0.700185 2.025 3.64028
    endloop
  endfacet
  facet normal -0.0695866 0.866025 -0.495134
    outer loop
      vertex 2.46867 -2.025 3.19492
      vertex -1.18832 -4.05 0.167008
      vertex -0.700185 -2.025 3.64028
    endloop
  endfacet
  facet normal -0.0695866 0.866025 -0.495134
    outer loop
      vertex -1.18832 -4.05 0.167008
      vertex 2.46867 -2.025 3.19492
      vertex 1.98054 -4.05 -0.278346
    endloop
  endfacet
  facet normal 0 0 -1
    outer loop
      vertex 17.2086 -7 -4.5
      vertex 13.4813 -4.5 -4.5
      vertex 17.2086 7 -4.5
    endloop
  endfacet
  facet normal 0 0 -1
    outer loop
      vertex -1.13735 -7 -4.5
      vertex 13.4813 -4.5 -4.5
      vertex 17.2086 -7 -4.5
    endloop
  endfacet
  facet normal 0 0 -1
    outer loop
      vertex -3.90732 -5.11907 -4.5
      vertex 1.38722 -4.5 -4.5
      vertex -1.13735 -7 -4.5
    endloop
  endfacet
  facet normal -0 0 -1
    outer loop
      vertex 13.4813 -4.5 -4.5
      vertex -1.13735 -7 -4.5
      vertex 1.38722 -4.5 -4.5
    endloop
  endfacet
  facet normal 0 0 -1
    outer loop
      vertex 13.4813 4.5 -4.5
      vertex 17.2086 7 -4.5
      vertex 13.4813 -4.5 -4.5
    endloop
  endfacet
  facet normal 0 0 -1
    outer loop
      vertex -1.13735 7 -4.5
      vertex 13.4813 4.5 -4.5
      vertex 1.38722 4.5 -4.5
    endloop
  endfacet
  facet normal 0 0 -1
    outer loop
      vertex 13.4813 4.5 -4.5
      vertex -1.13735 7 -4.5
      vertex 17.2086 7 -4.5
    endloop
  endfacet
  facet normal -0 0 -1
    outer loop
      vertex 1.38722 -4.5 -4.5
      vertex -3.90732 -5.11907 -4.5
      vertex 1.38722 4.5 -4.5
    endloop
  endfacet
  facet normal 0 0 -1
    outer loop
      vertex -3.90732 5.11907 -4.5
      vertex 1.38722 4.5 -4.5
      vertex -3.90732 -5.11907 -4.5
    endloop
  endfacet
  facet normal 0 0 -1
    outer loop
      vertex 1.38722 4.5 -4.5
      vertex -3.90732 5.11907 -4.5
      vertex -1.13735 7 -4.5
    endloop
  endfacet
endsolid OpenSCAD_Model
